STARTFONT 2.1
FONT -bited-ANAKRON2x-Regular-R-Normal--24-220-75-75-C-160-ISO10646-1
SIZE 22 75 75
FONTBOUNDINGBOX 16 24 0 -4
STARTPROPERTIES 24
FOUNDRY "bited"
FAMILY_NAME "ANAKRON2x"
WEIGHT_NAME "Regular"
SLANT "R"
SETWIDTH_NAME "Normal"
ADD_STYLE_NAME ""
PIXEL_SIZE 24
POINT_SIZE 220
RESOLUTION_X 75
RESOLUTION_Y 75
SPACING "C"
AVERAGE_WIDTH 160
CHARSET_REGISTRY "ISO10646"
CHARSET_ENCODING "1"
FONT_ASCENT 20
FONT_DESCENT 4
CAP_HEIGHT 14
X_HEIGHT 10
COPYRIGHT "Copyright 2024 The ANAKRON Project Authors (https://github.com/molarmanful/ANAKRON)"
BITED_DWIDTH 16
BITED_TABLE_WIDTH -16
BITED_TABLE_CELL_SCALE 2
BITED_EDITOR_GRID_SIZE 64
BITED_EDITOR_CELL_SIZE 12
ENDPROPERTIES
CHARS 2007
STARTCHAR .notdef
ENCODING -1
SWIDTH 1920 0
DWIDTH 16 0
BBX 16 20 0 -2
BITMAP
FFFF
FFFF
F00F
F00F
C3C3
C3C3
FFC3
FFC3
FF0F
FF0F
FC3F
FC3F
FFFF
FFFF
FC3F
FC3F
FC3F
FC3F
FFFF
FFFF
ENDCHAR
STARTCHAR U+0020
ENCODING 32
SWIDTH 1920 0
DWIDTH 16 0
BBX 0 0 0 0
BITMAP
ENDCHAR
STARTCHAR U+0021
ENCODING 33
SWIDTH 1920 0
DWIDTH 16 0
BBX 8 16 4 0
BITMAP
3C00
3C00
FF00
FF00
FF00
FF00
3C00
3C00
3C00
3C00
0000
0000
3C00
3C00
3C00
3C00
ENDCHAR
STARTCHAR U+0022
ENCODING 34
SWIDTH 1920 0
DWIDTH 16 0
BBX 10 6 4 10
BITMAP
F3C0
F3C0
F3C0
F3C0
F3C0
F3C0
ENDCHAR
STARTCHAR U+0023
ENCODING 35
SWIDTH 1920 0
DWIDTH 16 0
BBX 14 14 2 0
BITMAP
3CF0
3CF0
3CF0
3CF0
FFFC
FFFC
3CF0
3CF0
FFFC
FFFC
3CF0
3CF0
3CF0
3CF0
ENDCHAR
STARTCHAR U+0024
ENCODING 36
SWIDTH 1920 0
DWIDTH 16 0
BBX 14 14 2 0
BITMAP
0300
0300
3FF0
3FF0
F300
F300
3FF0
3FF0
033C
033C
3FF0
3FF0
0300
0300
ENDCHAR
STARTCHAR U+0025
ENCODING 37
SWIDTH 1920 0
DWIDTH 16 0
BBX 12 14 2 0
BITMAP
F030
F030
F0F0
F0F0
03C0
03C0
0F00
0F00
3C00
3C00
F0F0
F0F0
C0F0
C0F0
ENDCHAR
STARTCHAR U+0026
ENCODING 38
SWIDTH 1920 0
DWIDTH 16 0
BBX 12 14 2 0
BITMAP
0FC0
0FC0
3CC0
3CC0
3C00
3C00
3CF0
3CF0
F3C0
F3C0
F3C0
F3C0
3CF0
3CF0
ENDCHAR
STARTCHAR U+0027
ENCODING 39
SWIDTH 1920 0
DWIDTH 16 0
BBX 4 6 6 10
BITMAP
F000
F000
F000
F000
F000
F000
ENDCHAR
STARTCHAR U+0028
ENCODING 40
SWIDTH 1920 0
DWIDTH 16 0
BBX 8 18 4 -2
BITMAP
0F00
0F00
3C00
3C00
3C00
3C00
F000
F000
F000
F000
F000
F000
3C00
3C00
3C00
3C00
0F00
0F00
ENDCHAR
STARTCHAR U+0029
ENCODING 41
SWIDTH 1920 0
DWIDTH 16 0
BBX 8 18 4 -2
BITMAP
F000
F000
3C00
3C00
3C00
3C00
0F00
0F00
0F00
0F00
0F00
0F00
3C00
3C00
3C00
3C00
F000
F000
ENDCHAR
STARTCHAR U+002A
ENCODING 42
SWIDTH 1920 0
DWIDTH 16 0
BBX 12 10 2 2
BITMAP
30C0
30C0
0F00
0F00
FFF0
FFF0
0F00
0F00
30C0
30C0
ENDCHAR
STARTCHAR U+002B
ENCODING 43
SWIDTH 1920 0
DWIDTH 16 0
BBX 12 10 2 2
BITMAP
0F00
0F00
0F00
0F00
FFF0
FFF0
0F00
0F00
0F00
0F00
ENDCHAR
STARTCHAR U+002C
ENCODING 44
SWIDTH 1920 0
DWIDTH 16 0
BBX 4 8 6 -4
BITMAP
F000
F000
F000
F000
3000
3000
C000
C000
ENDCHAR
STARTCHAR U+002D
ENCODING 45
SWIDTH 1920 0
DWIDTH 16 0
BBX 8 2 4 6
BITMAP
FF00
FF00
ENDCHAR
STARTCHAR U+002E
ENCODING 46
SWIDTH 1920 0
DWIDTH 16 0
BBX 4 4 6 0
BITMAP
F000
F000
F000
F000
ENDCHAR
STARTCHAR U+002F
ENCODING 47
SWIDTH 1920 0
DWIDTH 16 0
BBX 12 14 2 0
BITMAP
0030
0030
00F0
00F0
03C0
03C0
0F00
0F00
3C00
3C00
F000
F000
C000
C000
ENDCHAR
STARTCHAR U+0030
ENCODING 48
SWIDTH 1920 0
DWIDTH 16 0
BBX 12 14 2 0
BITMAP
3FC0
3FC0
F0F0
F0F0
F3F0
F3F0
FFF0
FFF0
FCF0
FCF0
F0F0
F0F0
3FC0
3FC0
ENDCHAR
STARTCHAR U+0031
ENCODING 49
SWIDTH 1920 0
DWIDTH 16 0
BBX 12 14 2 0
BITMAP
0300
0300
FF00
FF00
0F00
0F00
0F00
0F00
0F00
0F00
0F00
0F00
FFF0
FFF0
ENDCHAR
STARTCHAR U+0032
ENCODING 50
SWIDTH 1920 0
DWIDTH 16 0
BBX 12 14 2 0
BITMAP
3FC0
3FC0
F0F0
F0F0
00F0
00F0
03C0
03C0
0F00
0F00
3C30
3C30
FFF0
FFF0
ENDCHAR
STARTCHAR U+0033
ENCODING 51
SWIDTH 1920 0
DWIDTH 16 0
BBX 12 14 2 0
BITMAP
3FC0
3FC0
F0F0
F0F0
00F0
00F0
0FC0
0FC0
00F0
00F0
F0F0
F0F0
3FC0
3FC0
ENDCHAR
STARTCHAR U+0034
ENCODING 52
SWIDTH 1920 0
DWIDTH 16 0
BBX 12 14 2 0
BITMAP
00C0
00C0
03C0
03C0
0FC0
0FC0
33C0
33C0
FFF0
FFF0
03C0
03C0
03C0
03C0
ENDCHAR
STARTCHAR U+0035
ENCODING 53
SWIDTH 1920 0
DWIDTH 16 0
BBX 12 14 2 0
BITMAP
FFF0
FFF0
F000
F000
FFC0
FFC0
00F0
00F0
00F0
00F0
F0F0
F0F0
3FC0
3FC0
ENDCHAR
STARTCHAR U+0036
ENCODING 54
SWIDTH 1920 0
DWIDTH 16 0
BBX 12 14 2 0
BITMAP
0FC0
0FC0
3C00
3C00
F000
F000
F3C0
F3C0
F0F0
F0F0
F0F0
F0F0
3FC0
3FC0
ENDCHAR
STARTCHAR U+0037
ENCODING 55
SWIDTH 1920 0
DWIDTH 16 0
BBX 12 14 2 0
BITMAP
FFF0
FFF0
C0F0
C0F0
03C0
03C0
03C0
03C0
0F00
0F00
0F00
0F00
0F00
0F00
ENDCHAR
STARTCHAR U+0038
ENCODING 56
SWIDTH 1920 0
DWIDTH 16 0
BBX 12 14 2 0
BITMAP
3FC0
3FC0
F0F0
F0F0
F0F0
F0F0
3FC0
3FC0
F0F0
F0F0
F0F0
F0F0
3FC0
3FC0
ENDCHAR
STARTCHAR U+0039
ENCODING 57
SWIDTH 1920 0
DWIDTH 16 0
BBX 12 14 2 0
BITMAP
3FC0
3FC0
F0F0
F0F0
F0F0
F0F0
3CF0
3CF0
00F0
00F0
03C0
03C0
3F00
3F00
ENDCHAR
STARTCHAR U+003A
ENCODING 58
SWIDTH 1920 0
DWIDTH 16 0
BBX 4 12 6 0
BITMAP
F000
F000
F000
F000
0000
0000
0000
0000
F000
F000
F000
F000
ENDCHAR
STARTCHAR U+003B
ENCODING 59
SWIDTH 1920 0
DWIDTH 16 0
BBX 4 16 6 -4
BITMAP
F000
F000
F000
F000
0000
0000
0000
0000
F000
F000
F000
F000
3000
3000
C000
C000
ENDCHAR
STARTCHAR U+003C
ENCODING 60
SWIDTH 1920 0
DWIDTH 16 0
BBX 10 14 2 0
BITMAP
03C0
03C0
0F00
0F00
3C00
3C00
F000
F000
3C00
3C00
0F00
0F00
03C0
03C0
ENDCHAR
STARTCHAR U+003D
ENCODING 61
SWIDTH 1920 0
DWIDTH 16 0
BBX 12 8 2 2
BITMAP
FFF0
FFF0
0000
0000
0000
0000
FFF0
FFF0
ENDCHAR
STARTCHAR U+003E
ENCODING 62
SWIDTH 1920 0
DWIDTH 16 0
BBX 10 14 4 0
BITMAP
F000
F000
3C00
3C00
0F00
0F00
03C0
03C0
0F00
0F00
3C00
3C00
F000
F000
ENDCHAR
STARTCHAR U+003F
ENCODING 63
SWIDTH 1920 0
DWIDTH 16 0
BBX 12 16 2 0
BITMAP
3FC0
3FC0
F0F0
F0F0
00F0
00F0
03C0
03C0
0F00
0F00
0000
0000
0F00
0F00
0F00
0F00
ENDCHAR
STARTCHAR U+0040
ENCODING 64
SWIDTH 1920 0
DWIDTH 16 0
BBX 12 14 2 0
BITMAP
3FC0
3FC0
F0F0
F0F0
F3F0
F3F0
F3F0
F3F0
F3F0
F3F0
F000
F000
3FC0
3FC0
ENDCHAR
STARTCHAR U+0041
ENCODING 65
SWIDTH 1920 0
DWIDTH 16 0
BBX 12 14 2 0
BITMAP
0300
0300
0CC0
0CC0
30F0
30F0
FFF0
FFF0
F0F0
F0F0
F0F0
F0F0
F0F0
F0F0
ENDCHAR
STARTCHAR U+0042
ENCODING 66
SWIDTH 1920 0
DWIDTH 16 0
BBX 12 14 2 0
BITMAP
FFC0
FFC0
F0F0
F0F0
F0F0
F0F0
F3C0
F3C0
F0F0
F0F0
F0F0
F0F0
F3C0
F3C0
ENDCHAR
STARTCHAR U+0043
ENCODING 67
SWIDTH 1920 0
DWIDTH 16 0
BBX 12 14 2 0
BITMAP
3FC0
3FC0
F0F0
F0F0
F000
F000
F000
F000
F000
F000
F0F0
F0F0
3FC0
3FC0
ENDCHAR
STARTCHAR U+0044
ENCODING 68
SWIDTH 1920 0
DWIDTH 16 0
BBX 12 14 2 0
BITMAP
FF00
FF00
F0C0
F0C0
F0F0
F0F0
F0F0
F0F0
F0F0
F0F0
F0C0
F0C0
FF00
FF00
ENDCHAR
STARTCHAR U+0045
ENCODING 69
SWIDTH 1920 0
DWIDTH 16 0
BBX 12 14 2 0
BITMAP
FFF0
FFF0
F030
F030
F000
F000
FF00
FF00
F000
F000
F030
F030
FFF0
FFF0
ENDCHAR
STARTCHAR U+0046
ENCODING 70
SWIDTH 1920 0
DWIDTH 16 0
BBX 12 14 2 0
BITMAP
FFF0
FFF0
F030
F030
F000
F000
FF00
FF00
F000
F000
F000
F000
F000
F000
ENDCHAR
STARTCHAR U+0047
ENCODING 71
SWIDTH 1920 0
DWIDTH 16 0
BBX 12 14 2 0
BITMAP
3FC0
3FC0
F0F0
F0F0
F000
F000
F3F0
F3F0
F0F0
F0F0
F0F0
F0F0
3CF0
3CF0
ENDCHAR
STARTCHAR U+0048
ENCODING 72
SWIDTH 1920 0
DWIDTH 16 0
BBX 12 14 2 0
BITMAP
F0F0
F0F0
F0F0
F0F0
F0F0
F0F0
FFF0
FFF0
F0F0
F0F0
F0F0
F0F0
F0F0
F0F0
ENDCHAR
STARTCHAR U+0049
ENCODING 73
SWIDTH 1920 0
DWIDTH 16 0
BBX 12 14 2 0
BITMAP
FFF0
FFF0
0F00
0F00
0F00
0F00
0F00
0F00
0F00
0F00
0F00
0F00
FFF0
FFF0
ENDCHAR
STARTCHAR U+004A
ENCODING 74
SWIDTH 1920 0
DWIDTH 16 0
BBX 12 16 2 -2
BITMAP
3FF0
3FF0
03C0
03C0
03C0
03C0
03C0
03C0
03C0
03C0
03C0
03C0
F3C0
F3C0
3F00
3F00
ENDCHAR
STARTCHAR U+004B
ENCODING 75
SWIDTH 1920 0
DWIDTH 16 0
BBX 12 14 2 0
BITMAP
F0F0
F0F0
F0F0
F0F0
F0C0
F0C0
F300
F300
FCC0
FCC0
F0F0
F0F0
F0F0
F0F0
ENDCHAR
STARTCHAR U+004C
ENCODING 76
SWIDTH 1920 0
DWIDTH 16 0
BBX 12 14 2 0
BITMAP
F000
F000
F000
F000
F000
F000
F000
F000
F000
F000
F030
F030
FFF0
FFF0
ENDCHAR
STARTCHAR U+004D
ENCODING 77
SWIDTH 1920 0
DWIDTH 16 0
BBX 14 14 2 0
BITMAP
C00C
C00C
F03C
F03C
FCFC
FCFC
F33C
F33C
F03C
F03C
F03C
F03C
F03C
F03C
ENDCHAR
STARTCHAR U+004E
ENCODING 78
SWIDTH 1920 0
DWIDTH 16 0
BBX 12 14 2 0
BITMAP
C0F0
C0F0
F0F0
F0F0
FCF0
FCF0
F3F0
F3F0
F0F0
F0F0
F0F0
F0F0
F0F0
F0F0
ENDCHAR
STARTCHAR U+004F
ENCODING 79
SWIDTH 1920 0
DWIDTH 16 0
BBX 12 14 2 0
BITMAP
3FC0
3FC0
F0F0
F0F0
F0F0
F0F0
F0F0
F0F0
F0F0
F0F0
F0F0
F0F0
3FC0
3FC0
ENDCHAR
STARTCHAR U+0050
ENCODING 80
SWIDTH 1920 0
DWIDTH 16 0
BBX 12 14 2 0
BITMAP
FFC0
FFC0
F0F0
F0F0
F0F0
F0F0
F3C0
F3C0
F000
F000
F000
F000
F000
F000
ENDCHAR
STARTCHAR U+0051
ENCODING 81
SWIDTH 1920 0
DWIDTH 16 0
BBX 12 16 2 -2
BITMAP
3FC0
3FC0
F0F0
F0F0
F0F0
F0F0
F0F0
F0F0
F0F0
F0F0
F0C0
F0C0
3F00
3F00
00F0
00F0
ENDCHAR
STARTCHAR U+0052
ENCODING 82
SWIDTH 1920 0
DWIDTH 16 0
BBX 12 14 2 0
BITMAP
FFC0
FFC0
F0F0
F0F0
F0F0
F0F0
F3C0
F3C0
F0C0
F0C0
F0F0
F0F0
F0F0
F0F0
ENDCHAR
STARTCHAR U+0053
ENCODING 83
SWIDTH 1920 0
DWIDTH 16 0
BBX 12 14 2 0
BITMAP
3FC0
3FC0
F0F0
F0F0
F000
F000
3FC0
3FC0
00F0
00F0
F0F0
F0F0
3FC0
3FC0
ENDCHAR
STARTCHAR U+0054
ENCODING 84
SWIDTH 1920 0
DWIDTH 16 0
BBX 12 14 2 0
BITMAP
FFF0
FFF0
0F00
0F00
0F00
0F00
0F00
0F00
0F00
0F00
0F00
0F00
0F00
0F00
ENDCHAR
STARTCHAR U+0055
ENCODING 85
SWIDTH 1920 0
DWIDTH 16 0
BBX 12 14 2 0
BITMAP
F0F0
F0F0
F0F0
F0F0
F0F0
F0F0
F0F0
F0F0
F0F0
F0F0
F0F0
F0F0
3FC0
3FC0
ENDCHAR
STARTCHAR U+0056
ENCODING 86
SWIDTH 1920 0
DWIDTH 16 0
BBX 12 14 2 0
BITMAP
F0F0
F0F0
F0F0
F0F0
F0F0
F0F0
F0F0
F0F0
F0C0
F0C0
3300
3300
0C00
0C00
ENDCHAR
STARTCHAR U+0057
ENCODING 87
SWIDTH 1920 0
DWIDTH 16 0
BBX 14 14 2 0
BITMAP
F03C
F03C
F03C
F03C
F33C
F33C
F33C
F33C
F33C
F33C
F33C
F33C
3CF0
3CF0
ENDCHAR
STARTCHAR U+0058
ENCODING 88
SWIDTH 1920 0
DWIDTH 16 0
BBX 12 14 2 0
BITMAP
F0F0
F0F0
F0F0
F0F0
30C0
30C0
0F00
0F00
30C0
30C0
F0F0
F0F0
F0F0
F0F0
ENDCHAR
STARTCHAR U+0059
ENCODING 89
SWIDTH 1920 0
DWIDTH 16 0
BBX 12 14 2 0
BITMAP
F0F0
F0F0
F0F0
F0F0
30C0
30C0
0F00
0F00
0F00
0F00
0F00
0F00
0F00
0F00
ENDCHAR
STARTCHAR U+005A
ENCODING 90
SWIDTH 1920 0
DWIDTH 16 0
BBX 12 14 2 0
BITMAP
FFF0
FFF0
C0F0
C0F0
03C0
03C0
0F00
0F00
3C00
3C00
F030
F030
FFF0
FFF0
ENDCHAR
STARTCHAR U+005B
ENCODING 91
SWIDTH 1920 0
DWIDTH 16 0
BBX 8 18 4 -2
BITMAP
FF00
FF00
F000
F000
F000
F000
F000
F000
F000
F000
F000
F000
F000
F000
F000
F000
FF00
FF00
ENDCHAR
STARTCHAR U+005C
ENCODING 92
SWIDTH 1920 0
DWIDTH 16 0
BBX 12 14 2 0
BITMAP
C000
C000
F000
F000
3C00
3C00
0F00
0F00
03C0
03C0
00F0
00F0
0030
0030
ENDCHAR
STARTCHAR U+005D
ENCODING 93
SWIDTH 1920 0
DWIDTH 16 0
BBX 8 18 4 -2
BITMAP
FF00
FF00
0F00
0F00
0F00
0F00
0F00
0F00
0F00
0F00
0F00
0F00
0F00
0F00
0F00
0F00
FF00
FF00
ENDCHAR
STARTCHAR U+005E
ENCODING 94
SWIDTH 1920 0
DWIDTH 16 0
BBX 14 8 2 8
BITMAP
0300
0300
0FC0
0FC0
3CF0
3CF0
F03C
F03C
ENDCHAR
STARTCHAR U+005F
ENCODING 95
SWIDTH 1920 0
DWIDTH 16 0
BBX 12 2 2 -2
BITMAP
FFF0
FFF0
ENDCHAR
STARTCHAR U+0060
ENCODING 96
SWIDTH 1920 0
DWIDTH 16 0
BBX 8 6 4 10
BITMAP
F000
F000
3C00
3C00
0F00
0F00
ENDCHAR
STARTCHAR U+0061
ENCODING 97
SWIDTH 1920 0
DWIDTH 16 0
BBX 12 10 2 0
BITMAP
3FC0
3FC0
00F0
00F0
3FF0
3FF0
F0F0
F0F0
3CF0
3CF0
ENDCHAR
STARTCHAR U+0062
ENCODING 98
SWIDTH 1920 0
DWIDTH 16 0
BBX 12 14 2 0
BITMAP
F000
F000
F000
F000
F3C0
F3C0
FCF0
FCF0
F0F0
F0F0
F0F0
F0F0
F3C0
F3C0
ENDCHAR
STARTCHAR U+0063
ENCODING 99
SWIDTH 1920 0
DWIDTH 16 0
BBX 12 10 2 0
BITMAP
3FC0
3FC0
F0C0
F0C0
F000
F000
F0F0
F0F0
3FC0
3FC0
ENDCHAR
STARTCHAR U+0064
ENCODING 100
SWIDTH 1920 0
DWIDTH 16 0
BBX 12 14 2 0
BITMAP
00F0
00F0
00F0
00F0
3CF0
3CF0
F3F0
F3F0
F0F0
F0F0
F0F0
F0F0
3CF0
3CF0
ENDCHAR
STARTCHAR U+0065
ENCODING 101
SWIDTH 1920 0
DWIDTH 16 0
BBX 12 10 2 0
BITMAP
3FC0
3FC0
F0F0
F0F0
FFF0
FFF0
F000
F000
3FC0
3FC0
ENDCHAR
STARTCHAR U+0066
ENCODING 102
SWIDTH 1920 0
DWIDTH 16 0
BBX 12 14 2 0
BITMAP
03F0
03F0
0F00
0F00
FFF0
FFF0
0F00
0F00
0F00
0F00
0F00
0F00
0F00
0F00
ENDCHAR
STARTCHAR U+0067
ENCODING 103
SWIDTH 1920 0
DWIDTH 16 0
BBX 12 16 2 -4
BITMAP
00F0
00F0
3FC0
3FC0
F0F0
F0F0
3FC0
3FC0
F000
F000
3FC0
3FC0
00F0
00F0
0FC0
0FC0
ENDCHAR
STARTCHAR U+0068
ENCODING 104
SWIDTH 1920 0
DWIDTH 16 0
BBX 12 14 2 0
BITMAP
F000
F000
F000
F000
F3C0
F3C0
FCF0
FCF0
F0F0
F0F0
F0F0
F0F0
F0F0
F0F0
ENDCHAR
STARTCHAR U+0069
ENCODING 105
SWIDTH 1920 0
DWIDTH 16 0
BBX 12 16 2 0
BITMAP
0F00
0F00
0F00
0F00
0000
0000
FF00
FF00
0F00
0F00
0F00
0F00
0F00
0F00
03F0
03F0
ENDCHAR
STARTCHAR U+006A
ENCODING 106
SWIDTH 1920 0
DWIDTH 16 0
BBX 10 20 2 -4
BITMAP
03C0
03C0
03C0
03C0
0000
0000
3FC0
3FC0
03C0
03C0
03C0
03C0
03C0
03C0
03C0
03C0
F3C0
F3C0
3F00
3F00
ENDCHAR
STARTCHAR U+006B
ENCODING 107
SWIDTH 1920 0
DWIDTH 16 0
BBX 12 14 2 0
BITMAP
F000
F000
F000
F000
F0F0
F0F0
F0F0
F0F0
F3C0
F3C0
FCF0
FCF0
F0F0
F0F0
ENDCHAR
STARTCHAR U+006C
ENCODING 108
SWIDTH 1920 0
DWIDTH 16 0
BBX 12 14 2 0
BITMAP
FF00
FF00
0F00
0F00
0F00
0F00
0F00
0F00
0F00
0F00
0F00
0F00
03F0
03F0
ENDCHAR
STARTCHAR U+006D
ENCODING 109
SWIDTH 1920 0
DWIDTH 16 0
BBX 12 10 2 0
BITMAP
FCC0
FCC0
F330
F330
F330
F330
F330
F330
F330
F330
ENDCHAR
STARTCHAR U+006E
ENCODING 110
SWIDTH 1920 0
DWIDTH 16 0
BBX 12 10 2 0
BITMAP
F3C0
F3C0
FCF0
FCF0
F0F0
F0F0
F0F0
F0F0
F0F0
F0F0
ENDCHAR
STARTCHAR U+006F
ENCODING 111
SWIDTH 1920 0
DWIDTH 16 0
BBX 12 10 2 0
BITMAP
3FC0
3FC0
F0F0
F0F0
F0F0
F0F0
F0F0
F0F0
3FC0
3FC0
ENDCHAR
STARTCHAR U+0070
ENCODING 112
SWIDTH 1920 0
DWIDTH 16 0
BBX 12 14 2 -4
BITMAP
F3C0
F3C0
FCF0
FCF0
F0F0
F0F0
F0F0
F0F0
F3C0
F3C0
F000
F000
F000
F000
ENDCHAR
STARTCHAR U+0071
ENCODING 113
SWIDTH 1920 0
DWIDTH 16 0
BBX 12 14 2 -4
BITMAP
3CF0
3CF0
F3F0
F3F0
F0F0
F0F0
F0F0
F0F0
3CF0
3CF0
00F0
00F0
00F0
00F0
ENDCHAR
STARTCHAR U+0072
ENCODING 114
SWIDTH 1920 0
DWIDTH 16 0
BBX 12 10 2 0
BITMAP
FCF0
FCF0
3F00
3F00
3C00
3C00
3C00
3C00
3C00
3C00
ENDCHAR
STARTCHAR U+0073
ENCODING 115
SWIDTH 1920 0
DWIDTH 16 0
BBX 12 10 2 0
BITMAP
3FC0
3FC0
F000
F000
3FC0
3FC0
00F0
00F0
3FC0
3FC0
ENDCHAR
STARTCHAR U+0074
ENCODING 116
SWIDTH 1920 0
DWIDTH 16 0
BBX 12 14 2 0
BITMAP
0F00
0F00
0F00
0F00
FFF0
FFF0
0F00
0F00
0F00
0F00
0F00
0F00
03F0
03F0
ENDCHAR
STARTCHAR U+0075
ENCODING 117
SWIDTH 1920 0
DWIDTH 16 0
BBX 12 10 2 0
BITMAP
F0F0
F0F0
F0F0
F0F0
F0F0
F0F0
F3F0
F3F0
3CF0
3CF0
ENDCHAR
STARTCHAR U+0076
ENCODING 118
SWIDTH 1920 0
DWIDTH 16 0
BBX 12 10 2 0
BITMAP
F0F0
F0F0
F0F0
F0F0
F0C0
F0C0
3300
3300
0C00
0C00
ENDCHAR
STARTCHAR U+0077
ENCODING 119
SWIDTH 1920 0
DWIDTH 16 0
BBX 12 10 2 0
BITMAP
F330
F330
F330
F330
F330
F330
F330
F330
3CC0
3CC0
ENDCHAR
STARTCHAR U+0078
ENCODING 120
SWIDTH 1920 0
DWIDTH 16 0
BBX 12 10 2 0
BITMAP
F0F0
F0F0
F0F0
F0F0
3FC0
3FC0
F0F0
F0F0
F0F0
F0F0
ENDCHAR
STARTCHAR U+0079
ENCODING 121
SWIDTH 1920 0
DWIDTH 16 0
BBX 12 14 2 -4
BITMAP
F0F0
F0F0
F0F0
F0F0
F0F0
F0F0
F3F0
F3F0
3CF0
3CF0
00F0
00F0
3FC0
3FC0
ENDCHAR
STARTCHAR U+007A
ENCODING 122
SWIDTH 1920 0
DWIDTH 16 0
BBX 12 10 2 0
BITMAP
FFF0
FFF0
C3C0
C3C0
0F00
0F00
3C30
3C30
FFF0
FFF0
ENDCHAR
STARTCHAR U+007B
ENCODING 123
SWIDTH 1920 0
DWIDTH 16 0
BBX 12 18 2 -2
BITMAP
03F0
03F0
0F00
0F00
0F00
0F00
0F00
0F00
FC00
FC00
0F00
0F00
0F00
0F00
0F00
0F00
03F0
03F0
ENDCHAR
STARTCHAR U+007C
ENCODING 124
SWIDTH 1920 0
DWIDTH 16 0
BBX 4 18 6 -2
BITMAP
F000
F000
F000
F000
F000
F000
F000
F000
F000
F000
F000
F000
F000
F000
F000
F000
F000
F000
ENDCHAR
STARTCHAR U+007D
ENCODING 125
SWIDTH 1920 0
DWIDTH 16 0
BBX 12 18 2 -2
BITMAP
FC00
FC00
0F00
0F00
0F00
0F00
0F00
0F00
03F0
03F0
0F00
0F00
0F00
0F00
0F00
0F00
FC00
FC00
ENDCHAR
STARTCHAR U+007E
ENCODING 126
SWIDTH 1920 0
DWIDTH 16 0
BBX 14 6 2 4
BITMAP
3C3C
3C3C
F33C
F33C
F0F0
F0F0
ENDCHAR
STARTCHAR U+00A0
ENCODING 160
SWIDTH 1920 0
DWIDTH 16 0
BBX 0 0 0 0
BITMAP
ENDCHAR
STARTCHAR U+00A1
ENCODING 161
SWIDTH 1920 0
DWIDTH 16 0
BBX 8 16 4 -2
BITMAP
3C00
3C00
3C00
3C00
0000
0000
3C00
3C00
3C00
3C00
FF00
FF00
FF00
FF00
3C00
3C00
ENDCHAR
STARTCHAR U+00A2
ENCODING 162
SWIDTH 1920 0
DWIDTH 16 0
BBX 14 14 2 0
BITMAP
0300
0300
3FF0
3FF0
F33C
F33C
F300
F300
F33C
F33C
3FF0
3FF0
0300
0300
ENDCHAR
STARTCHAR U+00A3
ENCODING 163
SWIDTH 1920 0
DWIDTH 16 0
BBX 12 14 2 0
BITMAP
0FC0
0FC0
3CF0
3CF0
3C00
3C00
FF00
FF00
3C00
3C00
3C30
3C30
F3F0
F3F0
ENDCHAR
STARTCHAR U+00A4
ENCODING 164
SWIDTH 1920 0
DWIDTH 16 0
BBX 12 12 2 0
BITMAP
F0F0
F0F0
3FC0
3FC0
F0F0
F0F0
F0F0
F0F0
3FC0
3FC0
F0F0
F0F0
ENDCHAR
STARTCHAR U+00A5
ENCODING 165
SWIDTH 1920 0
DWIDTH 16 0
BBX 12 14 2 0
BITMAP
F0F0
F0F0
3FC0
3FC0
0F00
0F00
FFF0
FFF0
0F00
0F00
FFF0
FFF0
0F00
0F00
ENDCHAR
STARTCHAR U+00A6
ENCODING 166
SWIDTH 1920 0
DWIDTH 16 0
BBX 4 18 6 -2
BITMAP
F000
F000
F000
F000
F000
F000
F000
F000
0000
0000
F000
F000
F000
F000
F000
F000
F000
F000
ENDCHAR
STARTCHAR U+00A7
ENCODING 167
SWIDTH 1920 0
DWIDTH 16 0
BBX 12 14 2 0
BITMAP
3FC0
3FC0
F000
F000
3FC0
3FC0
F0F0
F0F0
3FC0
3FC0
00F0
00F0
3FC0
3FC0
ENDCHAR
STARTCHAR U+00A8
ENCODING 168
SWIDTH 1920 0
DWIDTH 16 0
BBX 12 4 2 16
BITMAP
F0F0
F0F0
F0F0
F0F0
ENDCHAR
STARTCHAR U+00A9
ENCODING 169
SWIDTH 1920 0
DWIDTH 16 0
BBX 16 16 0 0
BITMAP
0FF0
0FF0
300C
300C
C3C3
C3C3
CC03
CC03
CC33
CC33
C3C3
C3C3
300C
300C
0FF0
0FF0
ENDCHAR
STARTCHAR U+00AA
ENCODING 170
SWIDTH 1920 0
DWIDTH 16 0
BBX 10 12 2 4
BITMAP
3FC0
3FC0
F3C0
F3C0
F3C0
F3C0
3CC0
3CC0
0000
0000
FFC0
FFC0
ENDCHAR
STARTCHAR U+00AB
ENCODING 171
SWIDTH 1920 0
DWIDTH 16 0
BBX 12 10 2 2
BITMAP
0C30
0C30
3CF0
3CF0
F3C0
F3C0
3CF0
3CF0
0C30
0C30
ENDCHAR
STARTCHAR U+00AC
ENCODING 172
SWIDTH 1920 0
DWIDTH 16 0
BBX 12 6 2 2
BITMAP
FFF0
FFF0
00F0
00F0
00F0
00F0
ENDCHAR
STARTCHAR U+00AD
ENCODING 173
SWIDTH 1920 0
DWIDTH 16 0
BBX 8 2 4 6
BITMAP
FF00
FF00
ENDCHAR
STARTCHAR U+00AE
ENCODING 174
SWIDTH 1920 0
DWIDTH 16 0
BBX 16 16 0 0
BITMAP
0FF0
0FF0
300C
300C
CFC3
CFC3
CC33
CC33
CFC3
CFC3
CC33
CC33
300C
300C
0FF0
0FF0
ENDCHAR
STARTCHAR U+00AF
ENCODING 175
SWIDTH 1920 0
DWIDTH 16 0
BBX 12 2 2 12
BITMAP
FFF0
FFF0
ENDCHAR
STARTCHAR U+00B0
ENCODING 176
SWIDTH 1920 0
DWIDTH 16 0
BBX 10 8 2 8
BITMAP
3F00
3F00
F3C0
F3C0
F3C0
F3C0
3F00
3F00
ENDCHAR
STARTCHAR U+00B1
ENCODING 177
SWIDTH 1920 0
DWIDTH 16 0
BBX 12 14 2 0
BITMAP
0F00
0F00
0F00
0F00
FFF0
FFF0
0F00
0F00
0F00
0F00
0000
0000
FFF0
FFF0
ENDCHAR
STARTCHAR U+00B2
ENCODING 178
SWIDTH 1920 0
DWIDTH 16 0
BBX 8 10 4 8
BITMAP
FC00
FC00
CF00
CF00
0F00
0F00
3C00
3C00
FF00
FF00
ENDCHAR
STARTCHAR U+00B3
ENCODING 179
SWIDTH 1920 0
DWIDTH 16 0
BBX 8 10 4 8
BITMAP
FC00
FC00
0F00
0F00
3C00
3C00
0F00
0F00
FC00
FC00
ENDCHAR
STARTCHAR U+00B4
ENCODING 180
SWIDTH 1920 0
DWIDTH 16 0
BBX 8 6 4 10
BITMAP
0F00
0F00
3C00
3C00
F000
F000
ENDCHAR
STARTCHAR U+00B5
ENCODING 181
SWIDTH 1920 0
DWIDTH 16 0
BBX 14 12 2 -2
BITMAP
F0F0
F0F0
F0F0
F0F0
F0F0
F0F0
F0F0
F0F0
FF3C
FF3C
F000
F000
ENDCHAR
STARTCHAR U+00B6
ENCODING 182
SWIDTH 1920 0
DWIDTH 16 0
BBX 14 18 2 -4
BITMAP
3FFC
3FFC
FCF0
FCF0
FCF0
FCF0
3CF0
3CF0
00F0
00F0
00F0
00F0
00F0
00F0
00F0
00F0
03C0
03C0
ENDCHAR
STARTCHAR U+00B7
ENCODING 183
SWIDTH 1920 0
DWIDTH 16 0
BBX 4 4 6 4
BITMAP
F000
F000
F000
F000
ENDCHAR
STARTCHAR U+00B8
ENCODING 184
SWIDTH 1920 0
DWIDTH 16 0
BBX 8 6 4 -2
BITMAP
3C00
3C00
0F00
0F00
FC00
FC00
ENDCHAR
STARTCHAR U+00B9
ENCODING 185
SWIDTH 1920 0
DWIDTH 16 0
BBX 8 10 4 8
BITMAP
0C00
0C00
FC00
FC00
3C00
3C00
3C00
3C00
FF00
FF00
ENDCHAR
STARTCHAR U+00BA
ENCODING 186
SWIDTH 1920 0
DWIDTH 16 0
BBX 10 12 2 4
BITMAP
3F00
3F00
F3C0
F3C0
F3C0
F3C0
3F00
3F00
0000
0000
FFC0
FFC0
ENDCHAR
STARTCHAR U+00BB
ENCODING 187
SWIDTH 1920 0
DWIDTH 16 0
BBX 12 10 2 2
BITMAP
C300
C300
F3C0
F3C0
3CF0
3CF0
F3C0
F3C0
C300
C300
ENDCHAR
STARTCHAR U+00BC
ENCODING 188
SWIDTH 1920 0
DWIDTH 16 0
BBX 12 22 2 -4
BITMAP
0C00
0C00
FC00
FC00
3C00
3C00
3C00
3C00
FF00
FF00
0000
0000
00F0
00F0
03F0
03F0
0FF0
0FF0
00F0
00F0
00F0
00F0
ENDCHAR
STARTCHAR U+00BD
ENCODING 189
SWIDTH 1920 0
DWIDTH 16 0
BBX 12 22 2 -4
BITMAP
0C00
0C00
FC00
FC00
3C00
3C00
3C00
3C00
FF00
FF00
0000
0000
0FC0
0FC0
0CF0
0CF0
00F0
00F0
03C0
03C0
0FF0
0FF0
ENDCHAR
STARTCHAR U+00BE
ENCODING 190
SWIDTH 1920 0
DWIDTH 16 0
BBX 12 22 2 -4
BITMAP
FC00
FC00
0F00
0F00
3C00
3C00
0F00
0F00
FC00
FC00
0000
0000
00F0
00F0
03F0
03F0
0FF0
0FF0
00F0
00F0
00F0
00F0
ENDCHAR
STARTCHAR U+00BF
ENCODING 191
SWIDTH 1920 0
DWIDTH 16 0
BBX 12 16 2 -2
BITMAP
0F00
0F00
0F00
0F00
0000
0000
0F00
0F00
3C00
3C00
F000
F000
F0F0
F0F0
3FC0
3FC0
ENDCHAR
STARTCHAR U+00C0
ENCODING 192
SWIDTH 1920 0
DWIDTH 16 0
BBX 12 20 2 0
BITMAP
3C00
3C00
0F00
0F00
0000
0000
0300
0300
0CC0
0CC0
30F0
30F0
FFF0
FFF0
F0F0
F0F0
F0F0
F0F0
F0F0
F0F0
ENDCHAR
STARTCHAR U+00C1
ENCODING 193
SWIDTH 1920 0
DWIDTH 16 0
BBX 12 20 2 0
BITMAP
03C0
03C0
0F00
0F00
0000
0000
0300
0300
0CC0
0CC0
30F0
30F0
FFF0
FFF0
F0F0
F0F0
F0F0
F0F0
F0F0
F0F0
ENDCHAR
STARTCHAR U+00C2
ENCODING 194
SWIDTH 1920 0
DWIDTH 16 0
BBX 12 20 2 0
BITMAP
0FC0
0FC0
3CF0
3CF0
0000
0000
0300
0300
0CC0
0CC0
30F0
30F0
FFF0
FFF0
F0F0
F0F0
F0F0
F0F0
F0F0
F0F0
ENDCHAR
STARTCHAR U+00C3
ENCODING 195
SWIDTH 1920 0
DWIDTH 16 0
BBX 14 20 2 0
BITMAP
3F3C
3F3C
F3F0
F3F0
0000
0000
0300
0300
0CC0
0CC0
30F0
30F0
FFF0
FFF0
F0F0
F0F0
F0F0
F0F0
F0F0
F0F0
ENDCHAR
STARTCHAR U+00C4
ENCODING 196
SWIDTH 1920 0
DWIDTH 16 0
BBX 12 20 2 0
BITMAP
F0F0
F0F0
F0F0
F0F0
0000
0000
0300
0300
0CC0
0CC0
30F0
30F0
FFF0
FFF0
F0F0
F0F0
F0F0
F0F0
F0F0
F0F0
ENDCHAR
STARTCHAR U+00C5
ENCODING 197
SWIDTH 1920 0
DWIDTH 16 0
BBX 12 20 2 0
BITMAP
0FC0
0FC0
0CC0
0CC0
0FC0
0FC0
0300
0300
0CC0
0CC0
30F0
30F0
FFF0
FFF0
F0F0
F0F0
F0F0
F0F0
F0F0
F0F0
ENDCHAR
STARTCHAR U+00C6
ENCODING 198
SWIDTH 1920 0
DWIDTH 16 0
BBX 14 14 2 0
BITMAP
0FFC
0FFC
33C0
33C0
F3C0
F3C0
FFF0
FFF0
F3C0
F3C0
F3C0
F3C0
F3FC
F3FC
ENDCHAR
STARTCHAR U+00C7
ENCODING 199
SWIDTH 1920 0
DWIDTH 16 0
BBX 12 18 2 -4
BITMAP
3FC0
3FC0
F0F0
F0F0
F000
F000
F000
F000
F000
F000
F0F0
F0F0
3FC0
3FC0
03C0
03C0
0FC0
0FC0
ENDCHAR
STARTCHAR U+00C8
ENCODING 200
SWIDTH 1920 0
DWIDTH 16 0
BBX 12 20 2 0
BITMAP
3C00
3C00
0F00
0F00
0000
0000
FFF0
FFF0
F030
F030
F000
F000
FF00
FF00
F000
F000
F030
F030
FFF0
FFF0
ENDCHAR
STARTCHAR U+00C9
ENCODING 201
SWIDTH 1920 0
DWIDTH 16 0
BBX 12 20 2 0
BITMAP
03C0
03C0
0F00
0F00
0000
0000
FFF0
FFF0
F030
F030
F000
F000
FF00
FF00
F000
F000
F030
F030
FFF0
FFF0
ENDCHAR
STARTCHAR U+00CA
ENCODING 202
SWIDTH 1920 0
DWIDTH 16 0
BBX 12 20 2 0
BITMAP
0FC0
0FC0
3CF0
3CF0
0000
0000
FFF0
FFF0
F030
F030
F000
F000
FF00
FF00
F000
F000
F030
F030
FFF0
FFF0
ENDCHAR
STARTCHAR U+00CB
ENCODING 203
SWIDTH 1920 0
DWIDTH 16 0
BBX 12 20 2 0
BITMAP
F0F0
F0F0
F0F0
F0F0
0000
0000
FFF0
FFF0
F030
F030
F000
F000
FF00
FF00
F000
F000
F030
F030
FFF0
FFF0
ENDCHAR
STARTCHAR U+00CC
ENCODING 204
SWIDTH 1920 0
DWIDTH 16 0
BBX 12 20 2 0
BITMAP
3C00
3C00
0F00
0F00
0000
0000
FFF0
FFF0
0F00
0F00
0F00
0F00
0F00
0F00
0F00
0F00
0F00
0F00
FFF0
FFF0
ENDCHAR
STARTCHAR U+00CD
ENCODING 205
SWIDTH 1920 0
DWIDTH 16 0
BBX 12 20 2 0
BITMAP
03C0
03C0
0F00
0F00
0000
0000
FFF0
FFF0
0F00
0F00
0F00
0F00
0F00
0F00
0F00
0F00
0F00
0F00
FFF0
FFF0
ENDCHAR
STARTCHAR U+00CE
ENCODING 206
SWIDTH 1920 0
DWIDTH 16 0
BBX 12 20 2 0
BITMAP
0FC0
0FC0
3CF0
3CF0
0000
0000
FFF0
FFF0
0F00
0F00
0F00
0F00
0F00
0F00
0F00
0F00
0F00
0F00
FFF0
FFF0
ENDCHAR
STARTCHAR U+00CF
ENCODING 207
SWIDTH 1920 0
DWIDTH 16 0
BBX 12 20 2 0
BITMAP
F0F0
F0F0
F0F0
F0F0
0000
0000
FFF0
FFF0
0F00
0F00
0F00
0F00
0F00
0F00
0F00
0F00
0F00
0F00
FFF0
FFF0
ENDCHAR
STARTCHAR U+00D0
ENCODING 208
SWIDTH 1920 0
DWIDTH 16 0
BBX 14 14 0 0
BITMAP
3FC0
3FC0
3C30
3C30
3C3C
3C3C
FF3C
FF3C
3C3C
3C3C
3C30
3C30
3FC0
3FC0
ENDCHAR
STARTCHAR U+00D1
ENCODING 209
SWIDTH 1920 0
DWIDTH 16 0
BBX 14 20 2 0
BITMAP
3F3C
3F3C
F3F0
F3F0
0000
0000
C0F0
C0F0
F0F0
F0F0
FCF0
FCF0
F3F0
F3F0
F0F0
F0F0
F0F0
F0F0
F0F0
F0F0
ENDCHAR
STARTCHAR U+00D2
ENCODING 210
SWIDTH 1920 0
DWIDTH 16 0
BBX 12 20 2 0
BITMAP
3C00
3C00
0F00
0F00
0000
0000
3FC0
3FC0
F0F0
F0F0
F0F0
F0F0
F0F0
F0F0
F0F0
F0F0
F0F0
F0F0
3FC0
3FC0
ENDCHAR
STARTCHAR U+00D3
ENCODING 211
SWIDTH 1920 0
DWIDTH 16 0
BBX 12 20 2 0
BITMAP
03C0
03C0
0F00
0F00
0000
0000
3FC0
3FC0
F0F0
F0F0
F0F0
F0F0
F0F0
F0F0
F0F0
F0F0
F0F0
F0F0
3FC0
3FC0
ENDCHAR
STARTCHAR U+00D4
ENCODING 212
SWIDTH 1920 0
DWIDTH 16 0
BBX 12 20 2 0
BITMAP
0FC0
0FC0
3CF0
3CF0
0000
0000
3FC0
3FC0
F0F0
F0F0
F0F0
F0F0
F0F0
F0F0
F0F0
F0F0
F0F0
F0F0
3FC0
3FC0
ENDCHAR
STARTCHAR U+00D5
ENCODING 213
SWIDTH 1920 0
DWIDTH 16 0
BBX 14 20 2 0
BITMAP
3F3C
3F3C
F3F0
F3F0
0000
0000
3FC0
3FC0
F0F0
F0F0
F0F0
F0F0
F0F0
F0F0
F0F0
F0F0
F0F0
F0F0
3FC0
3FC0
ENDCHAR
STARTCHAR U+00D6
ENCODING 214
SWIDTH 1920 0
DWIDTH 16 0
BBX 12 20 2 0
BITMAP
F0F0
F0F0
F0F0
F0F0
0000
0000
3FC0
3FC0
F0F0
F0F0
F0F0
F0F0
F0F0
F0F0
F0F0
F0F0
F0F0
F0F0
3FC0
3FC0
ENDCHAR
STARTCHAR U+00D7
ENCODING 215
SWIDTH 1920 0
DWIDTH 16 0
BBX 12 10 2 2
BITMAP
F0F0
F0F0
3FC0
3FC0
0F00
0F00
3FC0
3FC0
F0F0
F0F0
ENDCHAR
STARTCHAR U+00D8
ENCODING 216
SWIDTH 1920 0
DWIDTH 16 0
BBX 12 18 2 -2
BITMAP
00F0
00F0
3FC0
3FC0
F0F0
F0F0
F3F0
F3F0
FFF0
FFF0
FCF0
FCF0
F0F0
F0F0
3FC0
3FC0
F000
F000
ENDCHAR
STARTCHAR U+00D9
ENCODING 217
SWIDTH 1920 0
DWIDTH 16 0
BBX 12 20 2 0
BITMAP
3C00
3C00
0F00
0F00
0000
0000
F0F0
F0F0
F0F0
F0F0
F0F0
F0F0
F0F0
F0F0
F0F0
F0F0
F0F0
F0F0
3FC0
3FC0
ENDCHAR
STARTCHAR U+00DA
ENCODING 218
SWIDTH 1920 0
DWIDTH 16 0
BBX 12 20 2 0
BITMAP
03C0
03C0
0F00
0F00
0000
0000
F0F0
F0F0
F0F0
F0F0
F0F0
F0F0
F0F0
F0F0
F0F0
F0F0
F0F0
F0F0
3FC0
3FC0
ENDCHAR
STARTCHAR U+00DB
ENCODING 219
SWIDTH 1920 0
DWIDTH 16 0
BBX 12 20 2 0
BITMAP
0FC0
0FC0
3CF0
3CF0
0000
0000
F0F0
F0F0
F0F0
F0F0
F0F0
F0F0
F0F0
F0F0
F0F0
F0F0
F0F0
F0F0
3FC0
3FC0
ENDCHAR
STARTCHAR U+00DC
ENCODING 220
SWIDTH 1920 0
DWIDTH 16 0
BBX 12 20 2 0
BITMAP
F0F0
F0F0
F0F0
F0F0
0000
0000
F0F0
F0F0
F0F0
F0F0
F0F0
F0F0
F0F0
F0F0
F0F0
F0F0
F0F0
F0F0
3FC0
3FC0
ENDCHAR
STARTCHAR U+00DD
ENCODING 221
SWIDTH 1920 0
DWIDTH 16 0
BBX 12 20 2 0
BITMAP
03C0
03C0
0F00
0F00
0000
0000
F0F0
F0F0
F0F0
F0F0
30C0
30C0
0F00
0F00
0F00
0F00
0F00
0F00
0F00
0F00
ENDCHAR
STARTCHAR U+00DE
ENCODING 222
SWIDTH 1920 0
DWIDTH 16 0
BBX 12 14 2 0
BITMAP
F000
F000
FFC0
FFC0
F0F0
F0F0
F0F0
F0F0
F3C0
F3C0
F000
F000
F000
F000
ENDCHAR
STARTCHAR U+00DF
ENCODING 223
SWIDTH 1920 0
DWIDTH 16 0
BBX 14 14 2 0
BITMAP
3FC0
3FC0
F0F0
F0F0
F3C0
F3C0
F3C0
F3C0
F0F0
F0F0
F03C
F03C
F3F0
F3F0
ENDCHAR
STARTCHAR U+00E0
ENCODING 224
SWIDTH 1920 0
DWIDTH 16 0
BBX 12 16 2 0
BITMAP
3C00
3C00
0F00
0F00
0000
0000
3FC0
3FC0
00F0
00F0
3FF0
3FF0
F0F0
F0F0
3CF0
3CF0
ENDCHAR
STARTCHAR U+00E1
ENCODING 225
SWIDTH 1920 0
DWIDTH 16 0
BBX 12 16 2 0
BITMAP
03C0
03C0
0F00
0F00
0000
0000
3FC0
3FC0
00F0
00F0
3FF0
3FF0
F0F0
F0F0
3CF0
3CF0
ENDCHAR
STARTCHAR U+00E2
ENCODING 226
SWIDTH 1920 0
DWIDTH 16 0
BBX 12 16 2 0
BITMAP
0FC0
0FC0
3CF0
3CF0
0000
0000
3FC0
3FC0
00F0
00F0
3FF0
3FF0
F0F0
F0F0
3CF0
3CF0
ENDCHAR
STARTCHAR U+00E3
ENCODING 227
SWIDTH 1920 0
DWIDTH 16 0
BBX 14 16 2 0
BITMAP
3F3C
3F3C
F3F0
F3F0
0000
0000
3FC0
3FC0
00F0
00F0
3FF0
3FF0
F0F0
F0F0
3CF0
3CF0
ENDCHAR
STARTCHAR U+00E4
ENCODING 228
SWIDTH 1920 0
DWIDTH 16 0
BBX 12 16 2 0
BITMAP
F0F0
F0F0
F0F0
F0F0
0000
0000
3FC0
3FC0
00F0
00F0
3FF0
3FF0
F0F0
F0F0
3CF0
3CF0
ENDCHAR
STARTCHAR U+00E5
ENCODING 229
SWIDTH 1920 0
DWIDTH 16 0
BBX 12 18 2 0
BITMAP
0FC0
0FC0
0CC0
0CC0
0FC0
0FC0
0000
0000
3FC0
3FC0
00F0
00F0
3FF0
3FF0
F0F0
F0F0
3CF0
3CF0
ENDCHAR
STARTCHAR U+00E6
ENCODING 230
SWIDTH 1920 0
DWIDTH 16 0
BBX 16 10 0 0
BITMAP
3FFC
3FFC
03CF
03CF
3FFF
3FFF
F3C0
F3C0
3FFC
3FFC
ENDCHAR
STARTCHAR U+00E7
ENCODING 231
SWIDTH 1920 0
DWIDTH 16 0
BBX 12 14 2 -4
BITMAP
3FC0
3FC0
F0C0
F0C0
F000
F000
F0F0
F0F0
3FC0
3FC0
03C0
03C0
0FC0
0FC0
ENDCHAR
STARTCHAR U+00E8
ENCODING 232
SWIDTH 1920 0
DWIDTH 16 0
BBX 12 16 2 0
BITMAP
3C00
3C00
0F00
0F00
0000
0000
3FC0
3FC0
F0F0
F0F0
FFF0
FFF0
F000
F000
3FC0
3FC0
ENDCHAR
STARTCHAR U+00E9
ENCODING 233
SWIDTH 1920 0
DWIDTH 16 0
BBX 12 16 2 0
BITMAP
03C0
03C0
0F00
0F00
0000
0000
3FC0
3FC0
F0F0
F0F0
FFF0
FFF0
F000
F000
3FC0
3FC0
ENDCHAR
STARTCHAR U+00EA
ENCODING 234
SWIDTH 1920 0
DWIDTH 16 0
BBX 12 16 2 0
BITMAP
0FC0
0FC0
3CF0
3CF0
0000
0000
3FC0
3FC0
F0F0
F0F0
FFF0
FFF0
F000
F000
3FC0
3FC0
ENDCHAR
STARTCHAR U+00EB
ENCODING 235
SWIDTH 1920 0
DWIDTH 16 0
BBX 12 16 2 0
BITMAP
F0F0
F0F0
F0F0
F0F0
0000
0000
3FC0
3FC0
F0F0
F0F0
FFF0
FFF0
F000
F000
3FC0
3FC0
ENDCHAR
STARTCHAR U+00EC
ENCODING 236
SWIDTH 1920 0
DWIDTH 16 0
BBX 12 16 2 0
BITMAP
3C00
3C00
0F00
0F00
0000
0000
FF00
FF00
0F00
0F00
0F00
0F00
0F00
0F00
03F0
03F0
ENDCHAR
STARTCHAR U+00ED
ENCODING 237
SWIDTH 1920 0
DWIDTH 16 0
BBX 12 16 2 0
BITMAP
03C0
03C0
0F00
0F00
0000
0000
FF00
FF00
0F00
0F00
0F00
0F00
0F00
0F00
03F0
03F0
ENDCHAR
STARTCHAR U+00EE
ENCODING 238
SWIDTH 1920 0
DWIDTH 16 0
BBX 12 16 2 0
BITMAP
0FC0
0FC0
3CF0
3CF0
0000
0000
FF00
FF00
0F00
0F00
0F00
0F00
0F00
0F00
03F0
03F0
ENDCHAR
STARTCHAR U+00EF
ENCODING 239
SWIDTH 1920 0
DWIDTH 16 0
BBX 12 16 2 0
BITMAP
F0F0
F0F0
F0F0
F0F0
0000
0000
FF00
FF00
0F00
0F00
0F00
0F00
0F00
0F00
03F0
03F0
ENDCHAR
STARTCHAR U+00F0
ENCODING 240
SWIDTH 1920 0
DWIDTH 16 0
BBX 12 18 2 0
BITMAP
F3C0
F3C0
3F00
3F00
F3C0
F3C0
00F0
00F0
3CF0
3CF0
F0F0
F0F0
F0F0
F0F0
F0F0
F0F0
3FC0
3FC0
ENDCHAR
STARTCHAR U+00F1
ENCODING 241
SWIDTH 1920 0
DWIDTH 16 0
BBX 14 16 2 0
BITMAP
3F3C
3F3C
F3F0
F3F0
0000
0000
F3C0
F3C0
FCF0
FCF0
F0F0
F0F0
F0F0
F0F0
F0F0
F0F0
ENDCHAR
STARTCHAR U+00F2
ENCODING 242
SWIDTH 1920 0
DWIDTH 16 0
BBX 12 16 2 0
BITMAP
3C00
3C00
0F00
0F00
0000
0000
3FC0
3FC0
F0F0
F0F0
F0F0
F0F0
F0F0
F0F0
3FC0
3FC0
ENDCHAR
STARTCHAR U+00F3
ENCODING 243
SWIDTH 1920 0
DWIDTH 16 0
BBX 12 16 2 0
BITMAP
03C0
03C0
0F00
0F00
0000
0000
3FC0
3FC0
F0F0
F0F0
F0F0
F0F0
F0F0
F0F0
3FC0
3FC0
ENDCHAR
STARTCHAR U+00F4
ENCODING 244
SWIDTH 1920 0
DWIDTH 16 0
BBX 12 16 2 0
BITMAP
0FC0
0FC0
3CF0
3CF0
0000
0000
3FC0
3FC0
F0F0
F0F0
F0F0
F0F0
F0F0
F0F0
3FC0
3FC0
ENDCHAR
STARTCHAR U+00F5
ENCODING 245
SWIDTH 1920 0
DWIDTH 16 0
BBX 14 16 2 0
BITMAP
3F3C
3F3C
F3F0
F3F0
0000
0000
3FC0
3FC0
F0F0
F0F0
F0F0
F0F0
F0F0
F0F0
3FC0
3FC0
ENDCHAR
STARTCHAR U+00F6
ENCODING 246
SWIDTH 1920 0
DWIDTH 16 0
BBX 12 10 2 0
BITMAP
3FC0
3FC0
F0F0
F0F0
F0F0
F0F0
F0F0
F0F0
3FC0
3FC0
ENDCHAR
STARTCHAR U+00F7
ENCODING 247
SWIDTH 1920 0
DWIDTH 16 0
BBX 12 14 2 0
BITMAP
0F00
0F00
0F00
0F00
0000
0000
FFF0
FFF0
0000
0000
0F00
0F00
0F00
0F00
ENDCHAR
STARTCHAR U+00F8
ENCODING 248
SWIDTH 1920 0
DWIDTH 16 0
BBX 12 14 2 -2
BITMAP
00F0
00F0
3FC0
3FC0
F3F0
F3F0
FFF0
FFF0
FCF0
FCF0
3FC0
3FC0
F000
F000
ENDCHAR
STARTCHAR U+00F9
ENCODING 249
SWIDTH 1920 0
DWIDTH 16 0
BBX 12 16 2 0
BITMAP
3C00
3C00
0F00
0F00
0000
0000
F0F0
F0F0
F0F0
F0F0
F0F0
F0F0
F3F0
F3F0
3CF0
3CF0
ENDCHAR
STARTCHAR U+00FA
ENCODING 250
SWIDTH 1920 0
DWIDTH 16 0
BBX 12 16 2 0
BITMAP
03C0
03C0
0F00
0F00
0000
0000
F0F0
F0F0
F0F0
F0F0
F0F0
F0F0
F3F0
F3F0
3CF0
3CF0
ENDCHAR
STARTCHAR U+00FB
ENCODING 251
SWIDTH 1920 0
DWIDTH 16 0
BBX 12 16 2 0
BITMAP
0FC0
0FC0
3CF0
3CF0
0000
0000
F0F0
F0F0
F0F0
F0F0
F0F0
F0F0
F3F0
F3F0
3CF0
3CF0
ENDCHAR
STARTCHAR U+00FC
ENCODING 252
SWIDTH 1920 0
DWIDTH 16 0
BBX 12 16 2 0
BITMAP
F0F0
F0F0
F0F0
F0F0
0000
0000
F0F0
F0F0
F0F0
F0F0
F0F0
F0F0
F3F0
F3F0
3CF0
3CF0
ENDCHAR
STARTCHAR U+00FD
ENCODING 253
SWIDTH 1920 0
DWIDTH 16 0
BBX 12 20 2 -4
BITMAP
03C0
03C0
0F00
0F00
0000
0000
F0F0
F0F0
F0F0
F0F0
F0F0
F0F0
F3F0
F3F0
3CF0
3CF0
00F0
00F0
3FC0
3FC0
ENDCHAR
STARTCHAR U+00FE
ENCODING 254
SWIDTH 1920 0
DWIDTH 16 0
BBX 12 18 2 -4
BITMAP
F000
F000
F000
F000
F3C0
F3C0
FCF0
FCF0
F0F0
F0F0
F0F0
F0F0
F3C0
F3C0
F000
F000
F000
F000
ENDCHAR
STARTCHAR U+00FF
ENCODING 255
SWIDTH 1920 0
DWIDTH 16 0
BBX 12 20 2 -4
BITMAP
F0F0
F0F0
F0F0
F0F0
0000
0000
F0F0
F0F0
F0F0
F0F0
F0F0
F0F0
F3F0
F3F0
3CF0
3CF0
00F0
00F0
3FC0
3FC0
ENDCHAR
STARTCHAR U+0100
ENCODING 256
SWIDTH 1920 0
DWIDTH 16 0
BBX 12 18 2 0
BITMAP
3FC0
3FC0
0000
0000
0300
0300
0CC0
0CC0
30F0
30F0
FFF0
FFF0
F0F0
F0F0
F0F0
F0F0
F0F0
F0F0
ENDCHAR
STARTCHAR U+0101
ENCODING 257
SWIDTH 1920 0
DWIDTH 16 0
BBX 12 14 2 0
BITMAP
3FC0
3FC0
0000
0000
3FC0
3FC0
00F0
00F0
3FF0
3FF0
F0F0
F0F0
3CF0
3CF0
ENDCHAR
STARTCHAR U+0102
ENCODING 258
SWIDTH 1920 0
DWIDTH 16 0
BBX 12 20 2 0
BITMAP
F0F0
F0F0
3FC0
3FC0
0000
0000
0300
0300
0CC0
0CC0
30F0
30F0
FFF0
FFF0
F0F0
F0F0
F0F0
F0F0
F0F0
F0F0
ENDCHAR
STARTCHAR U+0103
ENCODING 259
SWIDTH 1920 0
DWIDTH 16 0
BBX 12 16 2 0
BITMAP
F0F0
F0F0
3FC0
3FC0
0000
0000
3FC0
3FC0
00F0
00F0
3FF0
3FF0
F0F0
F0F0
3CF0
3CF0
ENDCHAR
STARTCHAR U+0104
ENCODING 260
SWIDTH 1920 0
DWIDTH 16 0
BBX 12 18 2 -4
BITMAP
0300
0300
0CC0
0CC0
30F0
30F0
FFF0
FFF0
F0F0
F0F0
F0F0
F0F0
F0F0
F0F0
03C0
03C0
03F0
03F0
ENDCHAR
STARTCHAR U+0105
ENCODING 261
SWIDTH 1920 0
DWIDTH 16 0
BBX 12 14 2 -4
BITMAP
3FC0
3FC0
00F0
00F0
3FF0
3FF0
F0F0
F0F0
3FF0
3FF0
03C0
03C0
03F0
03F0
ENDCHAR
STARTCHAR U+0106
ENCODING 262
SWIDTH 1920 0
DWIDTH 16 0
BBX 12 20 2 0
BITMAP
03C0
03C0
0F00
0F00
0000
0000
3FC0
3FC0
F0F0
F0F0
F000
F000
F000
F000
F000
F000
F0F0
F0F0
3FC0
3FC0
ENDCHAR
STARTCHAR U+0107
ENCODING 263
SWIDTH 1920 0
DWIDTH 16 0
BBX 12 16 2 0
BITMAP
03C0
03C0
0F00
0F00
0000
0000
3FC0
3FC0
F0C0
F0C0
F000
F000
F0F0
F0F0
3FC0
3FC0
ENDCHAR
STARTCHAR U+0108
ENCODING 264
SWIDTH 1920 0
DWIDTH 16 0
BBX 12 20 2 0
BITMAP
0FC0
0FC0
3CF0
3CF0
0000
0000
3FC0
3FC0
F0F0
F0F0
F000
F000
F000
F000
F000
F000
F0F0
F0F0
3FC0
3FC0
ENDCHAR
STARTCHAR U+0109
ENCODING 265
SWIDTH 1920 0
DWIDTH 16 0
BBX 12 16 2 0
BITMAP
0FC0
0FC0
3CF0
3CF0
0000
0000
3FC0
3FC0
F0C0
F0C0
F000
F000
F0F0
F0F0
3FC0
3FC0
ENDCHAR
STARTCHAR U+010A
ENCODING 266
SWIDTH 1920 0
DWIDTH 16 0
BBX 12 20 2 0
BITMAP
0F00
0F00
0F00
0F00
0000
0000
3FC0
3FC0
F0F0
F0F0
F000
F000
F000
F000
F000
F000
F0F0
F0F0
3FC0
3FC0
ENDCHAR
STARTCHAR U+010B
ENCODING 267
SWIDTH 1920 0
DWIDTH 16 0
BBX 12 16 2 0
BITMAP
0F00
0F00
0F00
0F00
0000
0000
3FC0
3FC0
F0C0
F0C0
F000
F000
F0F0
F0F0
3FC0
3FC0
ENDCHAR
STARTCHAR U+010C
ENCODING 268
SWIDTH 1920 0
DWIDTH 16 0
BBX 12 20 2 0
BITMAP
3CF0
3CF0
0FC0
0FC0
0000
0000
3FC0
3FC0
F0F0
F0F0
F000
F000
F000
F000
F000
F000
F0F0
F0F0
3FC0
3FC0
ENDCHAR
STARTCHAR U+010D
ENCODING 269
SWIDTH 1920 0
DWIDTH 16 0
BBX 12 16 2 0
BITMAP
3CF0
3CF0
0FC0
0FC0
0000
0000
3FC0
3FC0
F0C0
F0C0
F000
F000
F0F0
F0F0
3FC0
3FC0
ENDCHAR
STARTCHAR U+010E
ENCODING 270
SWIDTH 1920 0
DWIDTH 16 0
BBX 12 20 2 0
BITMAP
F3C0
F3C0
3F00
3F00
0000
0000
FF00
FF00
F0C0
F0C0
F0F0
F0F0
F0F0
F0F0
F0F0
F0F0
F0C0
F0C0
FF00
FF00
ENDCHAR
STARTCHAR U+010F
ENCODING 271
SWIDTH 1920 0
DWIDTH 16 0
BBX 16 14 0 0
BITMAP
03CF
03CF
03C3
03C3
3FCC
3FCC
F3C0
F3C0
F3C0
F3C0
F3C0
F3C0
3FC0
3FC0
ENDCHAR
STARTCHAR U+0110
ENCODING 272
SWIDTH 1920 0
DWIDTH 16 0
BBX 14 14 0 0
BITMAP
3FC0
3FC0
3C30
3C30
3C3C
3C3C
FF3C
FF3C
3C3C
3C3C
3C30
3C30
3FC0
3FC0
ENDCHAR
STARTCHAR U+0111
ENCODING 273
SWIDTH 1920 0
DWIDTH 16 0
BBX 14 16 2 0
BITMAP
00F0
00F0
0FFC
0FFC
00F0
00F0
3CF0
3CF0
F3F0
F3F0
F0F0
F0F0
F0F0
F0F0
3CF0
3CF0
ENDCHAR
STARTCHAR U+0112
ENCODING 274
SWIDTH 1920 0
DWIDTH 16 0
BBX 12 18 2 0
BITMAP
3FC0
3FC0
0000
0000
FFF0
FFF0
F030
F030
F000
F000
FF00
FF00
F000
F000
F030
F030
FFF0
FFF0
ENDCHAR
STARTCHAR U+0113
ENCODING 275
SWIDTH 1920 0
DWIDTH 16 0
BBX 12 14 2 0
BITMAP
3FC0
3FC0
0000
0000
3FC0
3FC0
F0F0
F0F0
FFF0
FFF0
F000
F000
3FC0
3FC0
ENDCHAR
STARTCHAR U+0114
ENCODING 276
SWIDTH 1920 0
DWIDTH 16 0
BBX 12 20 2 0
BITMAP
F0F0
F0F0
3FC0
3FC0
0000
0000
FFF0
FFF0
F030
F030
F000
F000
FF00
FF00
F000
F000
F030
F030
FFF0
FFF0
ENDCHAR
STARTCHAR U+0115
ENCODING 277
SWIDTH 1920 0
DWIDTH 16 0
BBX 12 16 2 0
BITMAP
F0F0
F0F0
3FC0
3FC0
0000
0000
3FC0
3FC0
F0F0
F0F0
FFF0
FFF0
F000
F000
3FC0
3FC0
ENDCHAR
STARTCHAR U+0116
ENCODING 278
SWIDTH 1920 0
DWIDTH 16 0
BBX 12 20 2 0
BITMAP
0F00
0F00
0F00
0F00
0000
0000
FFF0
FFF0
F030
F030
F000
F000
FF00
FF00
F000
F000
F030
F030
FFF0
FFF0
ENDCHAR
STARTCHAR U+0117
ENCODING 279
SWIDTH 1920 0
DWIDTH 16 0
BBX 12 16 2 0
BITMAP
0F00
0F00
0F00
0F00
0000
0000
3FC0
3FC0
F0F0
F0F0
FFF0
FFF0
F000
F000
3FC0
3FC0
ENDCHAR
STARTCHAR U+0118
ENCODING 280
SWIDTH 1920 0
DWIDTH 16 0
BBX 12 18 2 -4
BITMAP
FFF0
FFF0
F030
F030
F000
F000
FF00
FF00
F000
F000
F030
F030
FFF0
FFF0
03C0
03C0
03F0
03F0
ENDCHAR
STARTCHAR U+0119
ENCODING 281
SWIDTH 1920 0
DWIDTH 16 0
BBX 12 14 2 -4
BITMAP
3FC0
3FC0
F0F0
F0F0
FFF0
FFF0
F000
F000
3FC0
3FC0
03C0
03C0
03F0
03F0
ENDCHAR
STARTCHAR U+011A
ENCODING 282
SWIDTH 1920 0
DWIDTH 16 0
BBX 12 20 2 0
BITMAP
3CF0
3CF0
0FC0
0FC0
0000
0000
FFF0
FFF0
F030
F030
F000
F000
FF00
FF00
F000
F000
F030
F030
FFF0
FFF0
ENDCHAR
STARTCHAR U+011B
ENCODING 283
SWIDTH 1920 0
DWIDTH 16 0
BBX 12 16 2 0
BITMAP
3CF0
3CF0
0FC0
0FC0
0000
0000
3FC0
3FC0
F0F0
F0F0
FFF0
FFF0
F000
F000
3FC0
3FC0
ENDCHAR
STARTCHAR U+011C
ENCODING 284
SWIDTH 1920 0
DWIDTH 16 0
BBX 12 20 2 0
BITMAP
0FC0
0FC0
3CF0
3CF0
0000
0000
3FC0
3FC0
F0F0
F0F0
F000
F000
F3F0
F3F0
F0F0
F0F0
F0F0
F0F0
3CF0
3CF0
ENDCHAR
STARTCHAR U+011D
ENCODING 285
SWIDTH 1920 0
DWIDTH 16 0
BBX 12 20 2 -4
BITMAP
0FC0
0FC0
3CF0
3CF0
0000
0000
3FC0
3FC0
F0F0
F0F0
3FC0
3FC0
F000
F000
3FC0
3FC0
00F0
00F0
0FC0
0FC0
ENDCHAR
STARTCHAR U+011E
ENCODING 286
SWIDTH 1920 0
DWIDTH 16 0
BBX 12 20 2 0
BITMAP
F0F0
F0F0
3FC0
3FC0
0000
0000
3FC0
3FC0
F0F0
F0F0
F000
F000
F3F0
F3F0
F0F0
F0F0
F0F0
F0F0
3CF0
3CF0
ENDCHAR
STARTCHAR U+011F
ENCODING 287
SWIDTH 1920 0
DWIDTH 16 0
BBX 12 20 2 -4
BITMAP
F0F0
F0F0
3FC0
3FC0
0000
0000
3FC0
3FC0
F0F0
F0F0
3FC0
3FC0
F000
F000
3FC0
3FC0
00F0
00F0
0FC0
0FC0
ENDCHAR
STARTCHAR U+0120
ENCODING 288
SWIDTH 1920 0
DWIDTH 16 0
BBX 12 20 2 0
BITMAP
0F00
0F00
0F00
0F00
0000
0000
3FC0
3FC0
F0F0
F0F0
F000
F000
F3F0
F3F0
F0F0
F0F0
F0F0
F0F0
3CF0
3CF0
ENDCHAR
STARTCHAR U+0121
ENCODING 289
SWIDTH 1920 0
DWIDTH 16 0
BBX 12 20 2 -4
BITMAP
0F00
0F00
0F00
0F00
0000
0000
3FC0
3FC0
F0F0
F0F0
3FC0
3FC0
F000
F000
3FC0
3FC0
00F0
00F0
0FC0
0FC0
ENDCHAR
STARTCHAR U+0122
ENCODING 290
SWIDTH 1920 0
DWIDTH 16 0
BBX 12 18 2 -4
BITMAP
3FC0
3FC0
F0F0
F0F0
F000
F000
F3F0
F3F0
F0F0
F0F0
F0F0
F0F0
3FF0
3FF0
03C0
03C0
0FC0
0FC0
ENDCHAR
STARTCHAR U+0123
ENCODING 291
SWIDTH 1920 0
DWIDTH 16 0
BBX 12 22 2 -4
BITMAP
0300
0300
0C00
0C00
0F00
0F00
0000
0000
3FC0
3FC0
F0F0
F0F0
3FC0
3FC0
F000
F000
3FC0
3FC0
00F0
00F0
0FC0
0FC0
ENDCHAR
STARTCHAR U+0124
ENCODING 292
SWIDTH 1920 0
DWIDTH 16 0
BBX 12 20 2 0
BITMAP
0FC0
0FC0
3CF0
3CF0
0000
0000
F0F0
F0F0
F0F0
F0F0
F0F0
F0F0
FFF0
FFF0
F0F0
F0F0
F0F0
F0F0
F0F0
F0F0
ENDCHAR
STARTCHAR U+0125
ENCODING 293
SWIDTH 1920 0
DWIDTH 16 0
BBX 12 20 2 0
BITMAP
3F00
3F00
F3C0
F3C0
0000
0000
F000
F000
F000
F000
F3C0
F3C0
FCF0
FCF0
F0F0
F0F0
F0F0
F0F0
F0F0
F0F0
ENDCHAR
STARTCHAR U+0126
ENCODING 294
SWIDTH 1920 0
DWIDTH 16 0
BBX 16 14 0 0
BITMAP
3C3C
3C3C
FFFF
FFFF
3C3C
3C3C
3FFC
3FFC
3C3C
3C3C
3C3C
3C3C
3C3C
3C3C
ENDCHAR
STARTCHAR U+0127
ENCODING 295
SWIDTH 1920 0
DWIDTH 16 0
BBX 14 16 0 0
BITMAP
3C00
3C00
FFC0
FFC0
3C00
3C00
3CF0
3CF0
3F3C
3F3C
3C3C
3C3C
3C3C
3C3C
3C3C
3C3C
ENDCHAR
STARTCHAR U+0128
ENCODING 296
SWIDTH 1920 0
DWIDTH 16 0
BBX 14 20 2 0
BITMAP
3F3C
3F3C
F3F0
F3F0
0000
0000
FFF0
FFF0
0F00
0F00
0F00
0F00
0F00
0F00
0F00
0F00
0F00
0F00
FFF0
FFF0
ENDCHAR
STARTCHAR U+0129
ENCODING 297
SWIDTH 1920 0
DWIDTH 16 0
BBX 14 16 2 0
BITMAP
3F3C
3F3C
F3F0
F3F0
0000
0000
FF00
FF00
0F00
0F00
0F00
0F00
0F00
0F00
03F0
03F0
ENDCHAR
STARTCHAR U+012A
ENCODING 298
SWIDTH 1920 0
DWIDTH 16 0
BBX 12 18 2 0
BITMAP
3FC0
3FC0
0000
0000
FFF0
FFF0
0F00
0F00
0F00
0F00
0F00
0F00
0F00
0F00
0F00
0F00
FFF0
FFF0
ENDCHAR
STARTCHAR U+012B
ENCODING 299
SWIDTH 1920 0
DWIDTH 16 0
BBX 12 14 2 0
BITMAP
3FC0
3FC0
0000
0000
FF00
FF00
0F00
0F00
0F00
0F00
0F00
0F00
03F0
03F0
ENDCHAR
STARTCHAR U+012C
ENCODING 300
SWIDTH 1920 0
DWIDTH 16 0
BBX 12 20 2 0
BITMAP
F0F0
F0F0
3FC0
3FC0
0000
0000
FFF0
FFF0
0F00
0F00
0F00
0F00
0F00
0F00
0F00
0F00
0F00
0F00
FFF0
FFF0
ENDCHAR
STARTCHAR U+012D
ENCODING 301
SWIDTH 1920 0
DWIDTH 16 0
BBX 12 16 2 0
BITMAP
F0F0
F0F0
3FC0
3FC0
0000
0000
FF00
FF00
0F00
0F00
0F00
0F00
0F00
0F00
03F0
03F0
ENDCHAR
STARTCHAR U+012E
ENCODING 302
SWIDTH 1920 0
DWIDTH 16 0
BBX 12 18 2 -4
BITMAP
FFF0
FFF0
0F00
0F00
0F00
0F00
0F00
0F00
0F00
0F00
0F00
0F00
FFF0
FFF0
0F00
0F00
0FC0
0FC0
ENDCHAR
STARTCHAR U+012F
ENCODING 303
SWIDTH 1920 0
DWIDTH 16 0
BBX 12 18 2 -4
BITMAP
0F00
0F00
0000
0000
FF00
FF00
0F00
0F00
0F00
0F00
0F00
0F00
03F0
03F0
0F00
0F00
0FC0
0FC0
ENDCHAR
STARTCHAR U+0130
ENCODING 304
SWIDTH 1920 0
DWIDTH 16 0
BBX 12 20 2 0
BITMAP
0F00
0F00
0F00
0F00
0000
0000
FFF0
FFF0
0F00
0F00
0F00
0F00
0F00
0F00
0F00
0F00
0F00
0F00
FFF0
FFF0
ENDCHAR
STARTCHAR U+0131
ENCODING 305
SWIDTH 1920 0
DWIDTH 16 0
BBX 12 10 2 0
BITMAP
FF00
FF00
0F00
0F00
0F00
0F00
0F00
0F00
03F0
03F0
ENDCHAR
STARTCHAR U+0132
ENCODING 306
SWIDTH 1920 0
DWIDTH 16 0
BBX 16 18 0 -4
BITMAP
FFFF
FFFF
3C3C
3C3C
3C3C
3C3C
3C3C
3C3C
3C3C
3C3C
3C3C
3C3C
FF3C
FF3C
003C
003C
03F0
03F0
ENDCHAR
STARTCHAR U+0133
ENCODING 307
SWIDTH 1920 0
DWIDTH 16 0
BBX 14 18 0 -4
BITMAP
3C3C
3C3C
0000
0000
FCFC
FCFC
3C3C
3C3C
3C3C
3C3C
3C3C
3C3C
0F3C
0F3C
003C
003C
03F0
03F0
ENDCHAR
STARTCHAR U+0134
ENCODING 308
SWIDTH 1920 0
DWIDTH 16 0
BBX 12 22 2 -2
BITMAP
0FC0
0FC0
3CF0
3CF0
0000
0000
3FF0
3FF0
03C0
03C0
03C0
03C0
03C0
03C0
03C0
03C0
03C0
03C0
F3C0
F3C0
3F00
3F00
ENDCHAR
STARTCHAR U+0135
ENCODING 309
SWIDTH 1920 0
DWIDTH 16 0
BBX 12 20 2 -4
BITMAP
0FC0
0FC0
3CF0
3CF0
0000
0000
3FC0
3FC0
03C0
03C0
03C0
03C0
03C0
03C0
03C0
03C0
F3C0
F3C0
3F00
3F00
ENDCHAR
STARTCHAR U+0136
ENCODING 310
SWIDTH 1920 0
DWIDTH 16 0
BBX 12 18 2 -4
BITMAP
F0F0
F0F0
F0F0
F0F0
F0C0
F0C0
F300
F300
FCC0
FCC0
F0F0
F0F0
F0F0
F0F0
3C00
3C00
FC00
FC00
ENDCHAR
STARTCHAR U+0137
ENCODING 311
SWIDTH 1920 0
DWIDTH 16 0
BBX 12 18 2 -4
BITMAP
F000
F000
F000
F000
F0F0
F0F0
F0F0
F0F0
F3C0
F3C0
FCF0
FCF0
F0F0
F0F0
3C00
3C00
FC00
FC00
ENDCHAR
STARTCHAR U+0138
ENCODING 312
SWIDTH 1920 0
DWIDTH 16 0
BBX 12 10 2 0
BITMAP
F0F0
F0F0
F0F0
F0F0
F3C0
F3C0
FCF0
FCF0
F0F0
F0F0
ENDCHAR
STARTCHAR U+0139
ENCODING 313
SWIDTH 1920 0
DWIDTH 16 0
BBX 12 20 2 0
BITMAP
3C00
3C00
F000
F000
0000
0000
F000
F000
F000
F000
F000
F000
F000
F000
F000
F000
F030
F030
FFF0
FFF0
ENDCHAR
STARTCHAR U+013A
ENCODING 314
SWIDTH 1920 0
DWIDTH 16 0
BBX 12 20 2 0
BITMAP
03C0
03C0
0F00
0F00
0000
0000
FF00
FF00
0F00
0F00
0F00
0F00
0F00
0F00
0F00
0F00
0F00
0F00
03F0
03F0
ENDCHAR
STARTCHAR U+013B
ENCODING 315
SWIDTH 1920 0
DWIDTH 16 0
BBX 12 18 2 -4
BITMAP
F000
F000
F000
F000
F000
F000
F000
F000
F000
F000
F030
F030
FFF0
FFF0
0F00
0F00
3F00
3F00
ENDCHAR
STARTCHAR U+013C
ENCODING 316
SWIDTH 1920 0
DWIDTH 16 0
BBX 12 18 2 -4
BITMAP
FF00
FF00
0F00
0F00
0F00
0F00
0F00
0F00
0F00
0F00
0F00
0F00
03F0
03F0
03C0
03C0
0FC0
0FC0
ENDCHAR
STARTCHAR U+013D
ENCODING 317
SWIDTH 1920 0
DWIDTH 16 0
BBX 12 14 2 0
BITMAP
F3C0
F3C0
F0C0
F0C0
F300
F300
F000
F000
F000
F000
F030
F030
FFF0
FFF0
ENDCHAR
STARTCHAR U+013E
ENCODING 318
SWIDTH 1920 0
DWIDTH 16 0
BBX 12 14 2 0
BITMAP
FCF0
FCF0
3C30
3C30
3CC0
3CC0
3C00
3C00
3C00
3C00
3C00
3C00
0FC0
0FC0
ENDCHAR
STARTCHAR U+013F
ENCODING 319
SWIDTH 1920 0
DWIDTH 16 0
BBX 12 14 2 0
BITMAP
F000
F000
F000
F000
F3C0
F3C0
F3C0
F3C0
F000
F000
F030
F030
FFF0
FFF0
ENDCHAR
STARTCHAR U+0140
ENCODING 320
SWIDTH 1920 0
DWIDTH 16 0
BBX 12 14 2 0
BITMAP
FC00
FC00
3C00
3C00
3CF0
3CF0
3CF0
3CF0
3C00
3C00
3C00
3C00
0FC0
0FC0
ENDCHAR
STARTCHAR U+0141
ENCODING 321
SWIDTH 1920 0
DWIDTH 16 0
BBX 14 14 0 0
BITMAP
0F00
0F00
0F00
0F00
0FF0
0FF0
0F00
0F00
FF00
FF00
0F0C
0F0C
0FFC
0FFC
ENDCHAR
STARTCHAR U+0142
ENCODING 322
SWIDTH 1920 0
DWIDTH 16 0
BBX 12 14 2 0
BITMAP
FF00
FF00
0F00
0F00
0FF0
0FF0
0F00
0F00
FF00
FF00
0F00
0F00
03F0
03F0
ENDCHAR
STARTCHAR U+0143
ENCODING 323
SWIDTH 1920 0
DWIDTH 16 0
BBX 12 20 2 0
BITMAP
03C0
03C0
0F00
0F00
0000
0000
C0F0
C0F0
F0F0
F0F0
FCF0
FCF0
F3F0
F3F0
F0F0
F0F0
F0F0
F0F0
F0F0
F0F0
ENDCHAR
STARTCHAR U+0144
ENCODING 324
SWIDTH 1920 0
DWIDTH 16 0
BBX 12 16 2 0
BITMAP
03C0
03C0
0F00
0F00
0000
0000
F3C0
F3C0
FCF0
FCF0
F0F0
F0F0
F0F0
F0F0
F0F0
F0F0
ENDCHAR
STARTCHAR U+0145
ENCODING 325
SWIDTH 1920 0
DWIDTH 16 0
BBX 12 18 2 -4
BITMAP
C0F0
C0F0
F0F0
F0F0
FCF0
FCF0
F3F0
F3F0
F0F0
F0F0
F0F0
F0F0
F0F0
F0F0
3C00
3C00
FC00
FC00
ENDCHAR
STARTCHAR U+0146
ENCODING 326
SWIDTH 1920 0
DWIDTH 16 0
BBX 12 14 2 -4
BITMAP
F3C0
F3C0
FCF0
FCF0
F0F0
F0F0
F0F0
F0F0
F0F0
F0F0
3C00
3C00
FC00
FC00
ENDCHAR
STARTCHAR U+0147
ENCODING 327
SWIDTH 1920 0
DWIDTH 16 0
BBX 12 20 2 0
BITMAP
3CF0
3CF0
0FC0
0FC0
0000
0000
C0F0
C0F0
F0F0
F0F0
FCF0
FCF0
F3F0
F3F0
F0F0
F0F0
F0F0
F0F0
F0F0
F0F0
ENDCHAR
STARTCHAR U+0148
ENCODING 328
SWIDTH 1920 0
DWIDTH 16 0
BBX 12 16 2 0
BITMAP
3CF0
3CF0
0FC0
0FC0
0000
0000
F3C0
F3C0
FCF0
FCF0
F0F0
F0F0
F0F0
F0F0
F0F0
F0F0
ENDCHAR
STARTCHAR U+0149
ENCODING 329
SWIDTH 1920 0
DWIDTH 16 0
BBX 12 18 2 0
BITMAP
F000
F000
3000
3000
C000
C000
0000
0000
F3C0
F3C0
FCF0
FCF0
F0F0
F0F0
F0F0
F0F0
F0F0
F0F0
ENDCHAR
STARTCHAR U+014A
ENCODING 330
SWIDTH 1920 0
DWIDTH 16 0
BBX 12 18 2 -4
BITMAP
F3C0
F3C0
FCF0
FCF0
F0F0
F0F0
F0F0
F0F0
F0F0
F0F0
F0F0
F0F0
F0F0
F0F0
00F0
00F0
0FC0
0FC0
ENDCHAR
STARTCHAR U+014B
ENCODING 331
SWIDTH 1920 0
DWIDTH 16 0
BBX 12 14 2 -4
BITMAP
F3C0
F3C0
FCF0
FCF0
F0F0
F0F0
F0F0
F0F0
F0F0
F0F0
00F0
00F0
0FC0
0FC0
ENDCHAR
STARTCHAR U+014C
ENCODING 332
SWIDTH 1920 0
DWIDTH 16 0
BBX 12 18 2 0
BITMAP
3FC0
3FC0
0000
0000
3FC0
3FC0
F0F0
F0F0
F0F0
F0F0
F0F0
F0F0
F0F0
F0F0
F0F0
F0F0
3FC0
3FC0
ENDCHAR
STARTCHAR U+014D
ENCODING 333
SWIDTH 1920 0
DWIDTH 16 0
BBX 12 14 2 0
BITMAP
3FC0
3FC0
0000
0000
3FC0
3FC0
F0F0
F0F0
F0F0
F0F0
F0F0
F0F0
3FC0
3FC0
ENDCHAR
STARTCHAR U+014E
ENCODING 334
SWIDTH 1920 0
DWIDTH 16 0
BBX 12 20 2 0
BITMAP
F0F0
F0F0
3FC0
3FC0
0000
0000
3FC0
3FC0
F0F0
F0F0
F0F0
F0F0
F0F0
F0F0
F0F0
F0F0
F0F0
F0F0
3FC0
3FC0
ENDCHAR
STARTCHAR U+014F
ENCODING 335
SWIDTH 1920 0
DWIDTH 16 0
BBX 12 16 2 0
BITMAP
F0F0
F0F0
3FC0
3FC0
0000
0000
3FC0
3FC0
F0F0
F0F0
F0F0
F0F0
F0F0
F0F0
3FC0
3FC0
ENDCHAR
STARTCHAR U+0150
ENCODING 336
SWIDTH 1920 0
DWIDTH 16 0
BBX 14 20 2 0
BITMAP
3C3C
3C3C
F0F0
F0F0
0000
0000
3FC0
3FC0
F0F0
F0F0
F0F0
F0F0
F0F0
F0F0
F0F0
F0F0
F0F0
F0F0
3FC0
3FC0
ENDCHAR
STARTCHAR U+0151
ENCODING 337
SWIDTH 1920 0
DWIDTH 16 0
BBX 14 16 2 0
BITMAP
3C3C
3C3C
F0F0
F0F0
0000
0000
3FC0
3FC0
F0F0
F0F0
F0F0
F0F0
F0F0
F0F0
3FC0
3FC0
ENDCHAR
STARTCHAR U+0152
ENCODING 338
SWIDTH 1920 0
DWIDTH 16 0
BBX 14 14 2 0
BITMAP
3FFC
3FFC
F3C0
F3C0
F3C0
F3C0
F3F0
F3F0
F3C0
F3C0
F3C0
F3C0
3FFC
3FFC
ENDCHAR
STARTCHAR U+0153
ENCODING 339
SWIDTH 1920 0
DWIDTH 16 0
BBX 16 10 0 0
BITMAP
3FFC
3FFC
F3CF
F3CF
F3FF
F3FF
F3C0
F3C0
3FFC
3FFC
ENDCHAR
STARTCHAR U+0154
ENCODING 340
SWIDTH 1920 0
DWIDTH 16 0
BBX 12 20 2 0
BITMAP
03C0
03C0
0F00
0F00
0000
0000
FFC0
FFC0
F0F0
F0F0
F0F0
F0F0
F3C0
F3C0
F0C0
F0C0
F0F0
F0F0
F0F0
F0F0
ENDCHAR
STARTCHAR U+0155
ENCODING 341
SWIDTH 1920 0
DWIDTH 16 0
BBX 12 16 2 0
BITMAP
03C0
03C0
0F00
0F00
0000
0000
FCF0
FCF0
3F00
3F00
3C00
3C00
3C00
3C00
3C00
3C00
ENDCHAR
STARTCHAR U+0156
ENCODING 342
SWIDTH 1920 0
DWIDTH 16 0
BBX 12 18 2 -4
BITMAP
FFC0
FFC0
F0F0
F0F0
F0F0
F0F0
F3C0
F3C0
F0C0
F0C0
F0F0
F0F0
F0F0
F0F0
3C00
3C00
FC00
FC00
ENDCHAR
STARTCHAR U+0157
ENCODING 343
SWIDTH 1920 0
DWIDTH 16 0
BBX 12 14 2 -4
BITMAP
FCF0
FCF0
3F00
3F00
3C00
3C00
3C00
3C00
3C00
3C00
0F00
0F00
3F00
3F00
ENDCHAR
STARTCHAR U+0158
ENCODING 344
SWIDTH 1920 0
DWIDTH 16 0
BBX 12 20 2 0
BITMAP
3CF0
3CF0
0FC0
0FC0
0000
0000
FFC0
FFC0
F0F0
F0F0
F0F0
F0F0
F3C0
F3C0
F0C0
F0C0
F0F0
F0F0
F0F0
F0F0
ENDCHAR
STARTCHAR U+0159
ENCODING 345
SWIDTH 1920 0
DWIDTH 16 0
BBX 12 16 2 0
BITMAP
3CF0
3CF0
0FC0
0FC0
0000
0000
FCF0
FCF0
3F00
3F00
3C00
3C00
3C00
3C00
3C00
3C00
ENDCHAR
STARTCHAR U+015A
ENCODING 346
SWIDTH 1920 0
DWIDTH 16 0
BBX 12 20 2 0
BITMAP
03C0
03C0
0F00
0F00
0000
0000
3FC0
3FC0
F0F0
F0F0
F000
F000
3FC0
3FC0
00F0
00F0
F0F0
F0F0
3FC0
3FC0
ENDCHAR
STARTCHAR U+015B
ENCODING 347
SWIDTH 1920 0
DWIDTH 16 0
BBX 12 16 2 0
BITMAP
03C0
03C0
0F00
0F00
0000
0000
3FC0
3FC0
F000
F000
3FC0
3FC0
00F0
00F0
3FC0
3FC0
ENDCHAR
STARTCHAR U+015C
ENCODING 348
SWIDTH 1920 0
DWIDTH 16 0
BBX 12 20 2 0
BITMAP
0FC0
0FC0
3CF0
3CF0
0000
0000
3FC0
3FC0
F0F0
F0F0
F000
F000
3FC0
3FC0
00F0
00F0
F0F0
F0F0
3FC0
3FC0
ENDCHAR
STARTCHAR U+015D
ENCODING 349
SWIDTH 1920 0
DWIDTH 16 0
BBX 12 16 2 0
BITMAP
0FC0
0FC0
3CF0
3CF0
0000
0000
3FC0
3FC0
F000
F000
3FC0
3FC0
00F0
00F0
3FC0
3FC0
ENDCHAR
STARTCHAR U+015E
ENCODING 350
SWIDTH 1920 0
DWIDTH 16 0
BBX 12 18 2 -4
BITMAP
3FC0
3FC0
F0F0
F0F0
F000
F000
3FC0
3FC0
00F0
00F0
F0F0
F0F0
3FC0
3FC0
0F00
0F00
3F00
3F00
ENDCHAR
STARTCHAR U+015F
ENCODING 351
SWIDTH 1920 0
DWIDTH 16 0
BBX 12 14 2 -4
BITMAP
3FC0
3FC0
F000
F000
3FC0
3FC0
00F0
00F0
3FC0
3FC0
0F00
0F00
3F00
3F00
ENDCHAR
STARTCHAR U+0160
ENCODING 352
SWIDTH 1920 0
DWIDTH 16 0
BBX 12 20 2 0
BITMAP
3CF0
3CF0
0FC0
0FC0
0000
0000
3FC0
3FC0
F0F0
F0F0
F000
F000
3FC0
3FC0
00F0
00F0
F0F0
F0F0
3FC0
3FC0
ENDCHAR
STARTCHAR U+0161
ENCODING 353
SWIDTH 1920 0
DWIDTH 16 0
BBX 12 16 2 0
BITMAP
3CF0
3CF0
0FC0
0FC0
0000
0000
3FC0
3FC0
F000
F000
3FC0
3FC0
00F0
00F0
3FC0
3FC0
ENDCHAR
STARTCHAR U+0162
ENCODING 354
SWIDTH 1920 0
DWIDTH 16 0
BBX 12 18 2 -4
BITMAP
FFF0
FFF0
0F00
0F00
0F00
0F00
0F00
0F00
0F00
0F00
0F00
0F00
0F00
0F00
03C0
03C0
0FC0
0FC0
ENDCHAR
STARTCHAR U+0163
ENCODING 355
SWIDTH 1920 0
DWIDTH 16 0
BBX 12 18 2 -4
BITMAP
0F00
0F00
0F00
0F00
FFF0
FFF0
0F00
0F00
0F00
0F00
0F00
0F00
03F0
03F0
03C0
03C0
0FC0
0FC0
ENDCHAR
STARTCHAR U+0164
ENCODING 356
SWIDTH 1920 0
DWIDTH 16 0
BBX 12 20 2 0
BITMAP
3CF0
3CF0
0FC0
0FC0
0000
0000
FFF0
FFF0
0F00
0F00
0F00
0F00
0F00
0F00
0F00
0F00
0F00
0F00
0F00
0F00
ENDCHAR
STARTCHAR U+0165
ENCODING 357
SWIDTH 1920 0
DWIDTH 16 0
BBX 14 18 2 0
BITMAP
003C
003C
000C
000C
0F30
0F30
0F00
0F00
FFF0
FFF0
0F00
0F00
0F00
0F00
0F00
0F00
03F0
03F0
ENDCHAR
STARTCHAR U+0166
ENCODING 358
SWIDTH 1920 0
DWIDTH 16 0
BBX 12 14 2 0
BITMAP
FFF0
FFF0
0F00
0F00
0F00
0F00
3FC0
3FC0
0F00
0F00
0F00
0F00
0F00
0F00
ENDCHAR
STARTCHAR U+0167
ENCODING 359
SWIDTH 1920 0
DWIDTH 16 0
BBX 12 14 2 0
BITMAP
0F00
0F00
0F00
0F00
FFF0
FFF0
0F00
0F00
FFF0
FFF0
0F00
0F00
03F0
03F0
ENDCHAR
STARTCHAR U+0168
ENCODING 360
SWIDTH 1920 0
DWIDTH 16 0
BBX 14 20 2 0
BITMAP
3F3C
3F3C
F3F0
F3F0
0000
0000
F0F0
F0F0
F0F0
F0F0
F0F0
F0F0
F0F0
F0F0
F0F0
F0F0
F0F0
F0F0
3FC0
3FC0
ENDCHAR
STARTCHAR U+0169
ENCODING 361
SWIDTH 1920 0
DWIDTH 16 0
BBX 14 16 2 0
BITMAP
3F3C
3F3C
F3F0
F3F0
0000
0000
F0F0
F0F0
F0F0
F0F0
F0F0
F0F0
F3F0
F3F0
3CF0
3CF0
ENDCHAR
STARTCHAR U+016A
ENCODING 362
SWIDTH 1920 0
DWIDTH 16 0
BBX 12 18 2 0
BITMAP
3FC0
3FC0
0000
0000
F0F0
F0F0
F0F0
F0F0
F0F0
F0F0
F0F0
F0F0
F0F0
F0F0
F0F0
F0F0
3FC0
3FC0
ENDCHAR
STARTCHAR U+016B
ENCODING 363
SWIDTH 1920 0
DWIDTH 16 0
BBX 12 14 2 0
BITMAP
3FC0
3FC0
0000
0000
F0F0
F0F0
F0F0
F0F0
F0F0
F0F0
F3F0
F3F0
3CF0
3CF0
ENDCHAR
STARTCHAR U+016C
ENCODING 364
SWIDTH 1920 0
DWIDTH 16 0
BBX 12 20 2 0
BITMAP
F0F0
F0F0
3FC0
3FC0
0000
0000
F0F0
F0F0
F0F0
F0F0
F0F0
F0F0
F0F0
F0F0
F0F0
F0F0
F0F0
F0F0
3FC0
3FC0
ENDCHAR
STARTCHAR U+016D
ENCODING 365
SWIDTH 1920 0
DWIDTH 16 0
BBX 12 16 2 0
BITMAP
F0F0
F0F0
3FC0
3FC0
0000
0000
F0F0
F0F0
F0F0
F0F0
F0F0
F0F0
F3F0
F3F0
3CF0
3CF0
ENDCHAR
STARTCHAR U+016E
ENCODING 366
SWIDTH 1920 0
DWIDTH 16 0
BBX 12 20 2 0
BITMAP
0FC0
0FC0
0CC0
0CC0
0FC0
0FC0
0000
0000
F0F0
F0F0
F0F0
F0F0
F0F0
F0F0
F0F0
F0F0
F0F0
F0F0
3FC0
3FC0
ENDCHAR
STARTCHAR U+016F
ENCODING 367
SWIDTH 1920 0
DWIDTH 16 0
BBX 12 18 2 0
BITMAP
0FC0
0FC0
0CC0
0CC0
0FC0
0FC0
0000
0000
F0F0
F0F0
F0F0
F0F0
F0F0
F0F0
F3F0
F3F0
3CF0
3CF0
ENDCHAR
STARTCHAR U+0170
ENCODING 368
SWIDTH 1920 0
DWIDTH 16 0
BBX 14 20 2 0
BITMAP
3C3C
3C3C
F0F0
F0F0
0000
0000
F0F0
F0F0
F0F0
F0F0
F0F0
F0F0
F0F0
F0F0
F0F0
F0F0
F0F0
F0F0
3FC0
3FC0
ENDCHAR
STARTCHAR U+0171
ENCODING 369
SWIDTH 1920 0
DWIDTH 16 0
BBX 14 16 2 0
BITMAP
3C3C
3C3C
F0F0
F0F0
0000
0000
F0F0
F0F0
F0F0
F0F0
F0F0
F0F0
F3F0
F3F0
3CF0
3CF0
ENDCHAR
STARTCHAR U+0172
ENCODING 370
SWIDTH 1920 0
DWIDTH 16 0
BBX 12 18 2 -4
BITMAP
F0F0
F0F0
F0F0
F0F0
F0F0
F0F0
F0F0
F0F0
F0F0
F0F0
F0F0
F0F0
3FC0
3FC0
0F00
0F00
0FC0
0FC0
ENDCHAR
STARTCHAR U+0173
ENCODING 371
SWIDTH 1920 0
DWIDTH 16 0
BBX 12 14 2 -4
BITMAP
F0F0
F0F0
F0F0
F0F0
F0F0
F0F0
F0F0
F0F0
3FF0
3FF0
03C0
03C0
03F0
03F0
ENDCHAR
STARTCHAR U+0174
ENCODING 372
SWIDTH 1920 0
DWIDTH 16 0
BBX 14 20 2 0
BITMAP
0FC0
0FC0
3CF0
3CF0
0000
0000
F03C
F03C
F03C
F03C
F33C
F33C
F33C
F33C
F33C
F33C
F33C
F33C
3CF0
3CF0
ENDCHAR
STARTCHAR U+0175
ENCODING 373
SWIDTH 1920 0
DWIDTH 16 0
BBX 12 16 2 0
BITMAP
0FC0
0FC0
3CF0
3CF0
0000
0000
F330
F330
F330
F330
F330
F330
F330
F330
3CC0
3CC0
ENDCHAR
STARTCHAR U+0176
ENCODING 374
SWIDTH 1920 0
DWIDTH 16 0
BBX 12 20 2 0
BITMAP
0FC0
0FC0
3CF0
3CF0
0000
0000
F0F0
F0F0
F0F0
F0F0
30C0
30C0
0F00
0F00
0F00
0F00
0F00
0F00
0F00
0F00
ENDCHAR
STARTCHAR U+0177
ENCODING 375
SWIDTH 1920 0
DWIDTH 16 0
BBX 12 20 2 -4
BITMAP
0FC0
0FC0
3CF0
3CF0
0000
0000
F0F0
F0F0
F0F0
F0F0
F0F0
F0F0
F3F0
F3F0
3CF0
3CF0
00F0
00F0
3FC0
3FC0
ENDCHAR
STARTCHAR U+0178
ENCODING 376
SWIDTH 1920 0
DWIDTH 16 0
BBX 12 20 2 0
BITMAP
F0F0
F0F0
F0F0
F0F0
0000
0000
F0F0
F0F0
F0F0
F0F0
30C0
30C0
0F00
0F00
0F00
0F00
0F00
0F00
0F00
0F00
ENDCHAR
STARTCHAR U+0179
ENCODING 377
SWIDTH 1920 0
DWIDTH 16 0
BBX 12 20 2 0
BITMAP
03C0
03C0
0F00
0F00
0000
0000
FFF0
FFF0
C0F0
C0F0
03C0
03C0
0F00
0F00
3C00
3C00
F030
F030
FFF0
FFF0
ENDCHAR
STARTCHAR U+017A
ENCODING 378
SWIDTH 1920 0
DWIDTH 16 0
BBX 12 16 2 0
BITMAP
03C0
03C0
0F00
0F00
0000
0000
FFF0
FFF0
C3C0
C3C0
0F00
0F00
3C30
3C30
FFF0
FFF0
ENDCHAR
STARTCHAR U+017B
ENCODING 379
SWIDTH 1920 0
DWIDTH 16 0
BBX 12 20 2 0
BITMAP
0F00
0F00
0F00
0F00
0000
0000
FFF0
FFF0
C0F0
C0F0
03C0
03C0
0F00
0F00
3C00
3C00
F030
F030
FFF0
FFF0
ENDCHAR
STARTCHAR U+017C
ENCODING 380
SWIDTH 1920 0
DWIDTH 16 0
BBX 12 16 2 0
BITMAP
0F00
0F00
0F00
0F00
0000
0000
FFF0
FFF0
C3C0
C3C0
0F00
0F00
3C30
3C30
FFF0
FFF0
ENDCHAR
STARTCHAR U+017D
ENCODING 381
SWIDTH 1920 0
DWIDTH 16 0
BBX 12 20 2 0
BITMAP
3CF0
3CF0
0FC0
0FC0
0000
0000
FFF0
FFF0
C0F0
C0F0
03C0
03C0
0F00
0F00
3C00
3C00
F030
F030
FFF0
FFF0
ENDCHAR
STARTCHAR U+017E
ENCODING 382
SWIDTH 1920 0
DWIDTH 16 0
BBX 12 16 2 0
BITMAP
3CF0
3CF0
0FC0
0FC0
0000
0000
FFF0
FFF0
C3C0
C3C0
0F00
0F00
3C30
3C30
FFF0
FFF0
ENDCHAR
STARTCHAR U+017F
ENCODING 383
SWIDTH 1920 0
DWIDTH 16 0
BBX 12 18 2 -4
BITMAP
03F0
03F0
0F00
0F00
0F00
0F00
0F00
0F00
0F00
0F00
0F00
0F00
0F00
0F00
0F00
0F00
FC00
FC00
ENDCHAR
STARTCHAR U+0180
ENCODING 384
SWIDTH 1920 0
DWIDTH 16 0
BBX 14 16 0 0
BITMAP
3C00
3C00
FFC0
FFC0
3C00
3C00
3CF0
3CF0
3F3C
3F3C
3C3C
3C3C
3C3C
3C3C
3CF0
3CF0
ENDCHAR
STARTCHAR U+0181
ENCODING 385
SWIDTH 1920 0
DWIDTH 16 0
BBX 16 14 0 0
BITMAP
FFFC
FFFC
CF0F
CF0F
0F0F
0F0F
0F3C
0F3C
0F0F
0F0F
0F0F
0F0F
0F3C
0F3C
ENDCHAR
STARTCHAR U+0182
ENCODING 386
SWIDTH 1920 0
DWIDTH 16 0
BBX 12 14 2 0
BITMAP
FFC0
FFC0
F0C0
F0C0
F000
F000
FFC0
FFC0
F0F0
F0F0
F0F0
F0F0
FFC0
FFC0
ENDCHAR
STARTCHAR U+0183
ENCODING 387
SWIDTH 1920 0
DWIDTH 16 0
BBX 12 14 2 0
BITMAP
FFC0
FFC0
F000
F000
F3C0
F3C0
FCF0
FCF0
F0F0
F0F0
F0F0
F0F0
F3C0
F3C0
ENDCHAR
STARTCHAR U+0184
ENCODING 388
SWIDTH 1920 0
DWIDTH 16 0
BBX 14 14 0 0
BITMAP
0C00
0C00
FC00
FC00
3C00
3C00
3FF0
3FF0
3C3C
3C3C
3C3C
3C3C
3FF0
3FF0
ENDCHAR
STARTCHAR U+0185
ENCODING 389
SWIDTH 1920 0
DWIDTH 16 0
BBX 14 10 0 0
BITMAP
0C00
0C00
FC00
FC00
3FF0
3FF0
3C3C
3C3C
3FF0
3FF0
ENDCHAR
STARTCHAR U+0186
ENCODING 390
SWIDTH 1920 0
DWIDTH 16 0
BBX 12 14 2 0
BITMAP
3FC0
3FC0
F0F0
F0F0
00F0
00F0
00F0
00F0
00F0
00F0
F0F0
F0F0
3FC0
3FC0
ENDCHAR
STARTCHAR U+0187
ENCODING 391
SWIDTH 1920 0
DWIDTH 16 0
BBX 14 18 2 0
BITMAP
003C
003C
00F0
00F0
3FF0
3FF0
F0F0
F0F0
F000
F000
F000
F000
F000
F000
F0F0
F0F0
3FC0
3FC0
ENDCHAR
STARTCHAR U+0188
ENCODING 392
SWIDTH 1920 0
DWIDTH 16 0
BBX 12 14 2 0
BITMAP
00F0
00F0
03C0
03C0
3FC0
3FC0
F0C0
F0C0
F000
F000
F0F0
F0F0
3FC0
3FC0
ENDCHAR
STARTCHAR U+0189
ENCODING 393
SWIDTH 1920 0
DWIDTH 16 0
BBX 14 14 0 0
BITMAP
3FC0
3FC0
3C30
3C30
3C3C
3C3C
FF3C
FF3C
3C3C
3C3C
3C30
3C30
3FC0
3FC0
ENDCHAR
STARTCHAR U+018A
ENCODING 394
SWIDTH 1920 0
DWIDTH 16 0
BBX 16 14 0 0
BITMAP
FFF0
FFF0
CF0C
CF0C
0F0F
0F0F
0F0F
0F0F
0F0F
0F0F
0F0C
0F0C
0FF0
0FF0
ENDCHAR
STARTCHAR U+018B
ENCODING 395
SWIDTH 1920 0
DWIDTH 16 0
BBX 12 14 2 0
BITMAP
3FF0
3FF0
30F0
30F0
00F0
00F0
3FF0
3FF0
F0F0
F0F0
F0F0
F0F0
3FF0
3FF0
ENDCHAR
STARTCHAR U+018C
ENCODING 396
SWIDTH 1920 0
DWIDTH 16 0
BBX 12 14 2 0
BITMAP
3FF0
3FF0
00F0
00F0
3CF0
3CF0
F3F0
F3F0
F0F0
F0F0
F0F0
F0F0
3CF0
3CF0
ENDCHAR
STARTCHAR U+018D
ENCODING 397
SWIDTH 1920 0
DWIDTH 16 0
BBX 12 14 2 -4
BITMAP
3FC0
3FC0
F0F0
F0F0
F0F0
F0F0
F0F0
F0F0
3FC0
3FC0
00F0
00F0
3FC0
3FC0
ENDCHAR
STARTCHAR U+018E
ENCODING 398
SWIDTH 1920 0
DWIDTH 16 0
BBX 12 14 2 0
BITMAP
FFF0
FFF0
C0F0
C0F0
00F0
00F0
0FF0
0FF0
00F0
00F0
C0F0
C0F0
FFF0
FFF0
ENDCHAR
STARTCHAR U+018F
ENCODING 399
SWIDTH 1920 0
DWIDTH 16 0
BBX 12 14 2 0
BITMAP
3FC0
3FC0
F0F0
F0F0
00F0
00F0
FFF0
FFF0
F0F0
F0F0
F0F0
F0F0
3FC0
3FC0
ENDCHAR
STARTCHAR U+0190
ENCODING 400
SWIDTH 1920 0
DWIDTH 16 0
BBX 12 14 2 0
BITMAP
3FC0
3FC0
F0C0
F0C0
F000
F000
3F00
3F00
F000
F000
F0F0
F0F0
3FC0
3FC0
ENDCHAR
STARTCHAR U+0191
ENCODING 401
SWIDTH 1920 0
DWIDTH 16 0
BBX 14 18 0 -4
BITMAP
3FFC
3FFC
3C0C
3C0C
3C00
3C00
3FC0
3FC0
3C00
3C00
3C00
3C00
3C00
3C00
3C00
3C00
F000
F000
ENDCHAR
STARTCHAR U+0192
ENCODING 402
SWIDTH 1920 0
DWIDTH 16 0
BBX 12 18 2 -4
BITMAP
03F0
03F0
0F00
0F00
FFF0
FFF0
0F00
0F00
0F00
0F00
0F00
0F00
0F00
0F00
0F00
0F00
3C00
3C00
ENDCHAR
STARTCHAR U+0193
ENCODING 403
SWIDTH 1920 0
DWIDTH 16 0
BBX 14 18 2 0
BITMAP
003C
003C
00F0
00F0
3FF0
3FF0
F0F0
F0F0
F000
F000
F3F0
F3F0
F0F0
F0F0
F0F0
F0F0
3CF0
3CF0
ENDCHAR
STARTCHAR U+0194
ENCODING 404
SWIDTH 1920 0
DWIDTH 16 0
BBX 12 18 2 -4
BITMAP
F0F0
F0F0
F0F0
F0F0
F0F0
F0F0
F0F0
F0F0
F0C0
F0C0
3300
3300
0C00
0C00
3300
3300
3F00
3F00
ENDCHAR
STARTCHAR U+0195
ENCODING 405
SWIDTH 1920 0
DWIDTH 16 0
BBX 14 14 2 0
BITMAP
F000
F000
F000
F000
FF0C
FF0C
F3CC
F3CC
F3CC
F3CC
F3CC
F3CC
F0F0
F0F0
ENDCHAR
STARTCHAR U+0196
ENCODING 406
SWIDTH 1920 0
DWIDTH 16 0
BBX 12 14 2 0
BITMAP
0300
0300
FF00
FF00
0F00
0F00
0F00
0F00
0F00
0F00
0F00
0F00
03F0
03F0
ENDCHAR
STARTCHAR U+0197
ENCODING 407
SWIDTH 1920 0
DWIDTH 16 0
BBX 12 14 2 0
BITMAP
FFF0
FFF0
0F00
0F00
0F00
0F00
FFF0
FFF0
0F00
0F00
0F00
0F00
FFF0
FFF0
ENDCHAR
STARTCHAR U+0198
ENCODING 408
SWIDTH 1920 0
DWIDTH 16 0
BBX 14 16 2 0
BITMAP
003C
003C
F0F0
F0F0
F0F0
F0F0
F0C0
F0C0
F300
F300
FCC0
FCC0
F0F0
F0F0
F0F0
F0F0
ENDCHAR
STARTCHAR U+0199
ENCODING 409
SWIDTH 1920 0
DWIDTH 16 0
BBX 12 16 2 0
BITMAP
3C00
3C00
F000
F000
F000
F000
F0F0
F0F0
F0F0
F0F0
F3C0
F3C0
FCF0
FCF0
F0F0
F0F0
ENDCHAR
STARTCHAR U+019A
ENCODING 410
SWIDTH 1920 0
DWIDTH 16 0
BBX 12 14 2 0
BITMAP
FF00
FF00
0F00
0F00
0F00
0F00
FFF0
FFF0
0F00
0F00
0F00
0F00
03F0
03F0
ENDCHAR
STARTCHAR U+019B
ENCODING 411
SWIDTH 1920 0
DWIDTH 16 0
BBX 14 14 2 0
BITMAP
0F00
0F00
03C0
03C0
3FF0
3FF0
03C0
03C0
3FC0
3FC0
F3C0
F3C0
F0FC
F0FC
ENDCHAR
STARTCHAR U+019C
ENCODING 412
SWIDTH 1920 0
DWIDTH 16 0
BBX 14 14 2 0
BITMAP
F33C
F33C
F33C
F33C
F33C
F33C
F33C
F33C
F33C
F33C
F33C
F33C
3CCC
3CCC
ENDCHAR
STARTCHAR U+019D
ENCODING 413
SWIDTH 1920 0
DWIDTH 16 0
BBX 14 18 2 -4
BITMAP
303C
303C
3C3C
3C3C
3F3C
3F3C
3CFC
3CFC
3C3C
3C3C
3C3C
3C3C
3C3C
3C3C
3C00
3C00
F000
F000
ENDCHAR
STARTCHAR U+019E
ENCODING 414
SWIDTH 1920 0
DWIDTH 16 0
BBX 12 14 2 -4
BITMAP
F3C0
F3C0
FCF0
FCF0
F0F0
F0F0
F0F0
F0F0
F0F0
F0F0
00F0
00F0
00F0
00F0
ENDCHAR
STARTCHAR U+019F
ENCODING 415
SWIDTH 1920 0
DWIDTH 16 0
BBX 12 14 2 0
BITMAP
3FC0
3FC0
F0F0
F0F0
F0F0
F0F0
FFF0
FFF0
F0F0
F0F0
F0F0
F0F0
3FC0
3FC0
ENDCHAR
STARTCHAR U+01A0
ENCODING 416
SWIDTH 1920 0
DWIDTH 16 0
BBX 14 18 2 0
BITMAP
003C
003C
000C
000C
3FFC
3FFC
F0F0
F0F0
F0F0
F0F0
F0F0
F0F0
F0F0
F0F0
F0F0
F0F0
3FC0
3FC0
ENDCHAR
STARTCHAR U+01A1
ENCODING 417
SWIDTH 1920 0
DWIDTH 16 0
BBX 14 14 2 0
BITMAP
003C
003C
000C
000C
3FFC
3FFC
F0F0
F0F0
F0F0
F0F0
F0F0
F0F0
3FC0
3FC0
ENDCHAR
STARTCHAR U+01A2
ENCODING 418
SWIDTH 1920 0
DWIDTH 16 0
BBX 14 18 2 -4
BITMAP
3CFC
3CFC
F33C
F33C
F33C
F33C
F33C
F33C
F33C
F33C
F33C
F33C
3C3C
3C3C
003C
003C
003C
003C
ENDCHAR
STARTCHAR U+01A3
ENCODING 419
SWIDTH 1920 0
DWIDTH 16 0
BBX 14 14 2 -4
BITMAP
3CFC
3CFC
F33C
F33C
F33C
F33C
F33C
F33C
3C3C
3C3C
003C
003C
003C
003C
ENDCHAR
STARTCHAR U+01A4
ENCODING 420
SWIDTH 1920 0
DWIDTH 16 0
BBX 16 14 0 0
BITMAP
FFFC
FFFC
CF0F
CF0F
0F0F
0F0F
0F3C
0F3C
0F00
0F00
0F00
0F00
0F00
0F00
ENDCHAR
STARTCHAR U+01A5
ENCODING 421
SWIDTH 1920 0
DWIDTH 16 0
BBX 12 20 2 -4
BITMAP
3C00
3C00
F000
F000
F000
F000
F3C0
F3C0
FCF0
FCF0
F0F0
F0F0
F0F0
F0F0
F3C0
F3C0
F000
F000
F000
F000
ENDCHAR
STARTCHAR U+01A6
ENCODING 422
SWIDTH 1920 0
DWIDTH 16 0
BBX 12 18 2 -4
BITMAP
F000
F000
F000
F000
FFC0
FFC0
F0F0
F0F0
F3C0
F3C0
F0C0
F0C0
F0F0
F0F0
00F0
00F0
00F0
00F0
ENDCHAR
STARTCHAR U+01A7
ENCODING 423
SWIDTH 1920 0
DWIDTH 16 0
BBX 12 14 2 0
BITMAP
3FC0
3FC0
F0F0
F0F0
00F0
00F0
3FC0
3FC0
F000
F000
F0F0
F0F0
3FC0
3FC0
ENDCHAR
STARTCHAR U+01A8
ENCODING 424
SWIDTH 1920 0
DWIDTH 16 0
BBX 12 10 2 0
BITMAP
3FC0
3FC0
00F0
00F0
3FC0
3FC0
F000
F000
3FC0
3FC0
ENDCHAR
STARTCHAR U+01A9
ENCODING 425
SWIDTH 1920 0
DWIDTH 16 0
BBX 12 14 2 0
BITMAP
FFF0
FFF0
F030
F030
3C00
3C00
0F00
0F00
3C00
3C00
F030
F030
FFF0
FFF0
ENDCHAR
STARTCHAR U+01AA
ENCODING 426
SWIDTH 1920 0
DWIDTH 16 0
BBX 12 18 2 -4
BITMAP
3C00
3C00
CF00
CF00
3F00
3F00
0F00
0F00
0F00
0F00
0F00
0F00
0F00
0F00
0F00
0F00
03F0
03F0
ENDCHAR
STARTCHAR U+01AB
ENCODING 427
SWIDTH 1920 0
DWIDTH 16 0
BBX 12 18 2 -4
BITMAP
0F00
0F00
0F00
0F00
FFF0
FFF0
0F00
0F00
0F00
0F00
0F00
0F00
03F0
03F0
00F0
00F0
03C0
03C0
ENDCHAR
STARTCHAR U+01AC
ENCODING 428
SWIDTH 1920 0
DWIDTH 16 0
BBX 14 14 0 0
BITMAP
FFFC
FFFC
C3C0
C3C0
03C0
03C0
03C0
03C0
03C0
03C0
03C0
03C0
03C0
03C0
ENDCHAR
STARTCHAR U+01AD
ENCODING 429
SWIDTH 1920 0
DWIDTH 16 0
BBX 12 16 2 0
BITMAP
03C0
03C0
0F00
0F00
0F00
0F00
FFF0
FFF0
0F00
0F00
0F00
0F00
0F00
0F00
03F0
03F0
ENDCHAR
STARTCHAR U+01AE
ENCODING 430
SWIDTH 1920 0
DWIDTH 16 0
BBX 12 18 2 -4
BITMAP
FFF0
FFF0
0F00
0F00
0F00
0F00
0F00
0F00
0F00
0F00
0F00
0F00
0F00
0F00
0F00
0F00
03C0
03C0
ENDCHAR
STARTCHAR U+01AF
ENCODING 431
SWIDTH 1920 0
DWIDTH 16 0
BBX 14 18 2 0
BITMAP
003C
003C
000C
000C
F0FC
F0FC
F0F0
F0F0
F0F0
F0F0
F0F0
F0F0
F0F0
F0F0
F0F0
F0F0
3FC0
3FC0
ENDCHAR
STARTCHAR U+01B0
ENCODING 432
SWIDTH 1920 0
DWIDTH 16 0
BBX 14 14 2 0
BITMAP
003C
003C
000C
000C
F0FC
F0FC
F0F0
F0F0
F0F0
F0F0
F3F0
F3F0
3CF0
3CF0
ENDCHAR
STARTCHAR U+01B1
ENCODING 433
SWIDTH 1920 0
DWIDTH 16 0
BBX 14 14 2 0
BITMAP
FCFC
FCFC
3CF0
3CF0
F03C
F03C
F03C
F03C
F03C
F03C
F03C
F03C
3FF0
3FF0
ENDCHAR
STARTCHAR U+01B2
ENCODING 434
SWIDTH 1920 0
DWIDTH 16 0
BBX 14 14 2 0
BITMAP
F0F0
F0F0
F33C
F33C
F03C
F03C
F03C
F03C
F03C
F03C
F030
F030
3FC0
3FC0
ENDCHAR
STARTCHAR U+01B3
ENCODING 435
SWIDTH 1920 0
DWIDTH 16 0
BBX 14 16 2 0
BITMAP
003C
003C
F0F0
F0F0
F0F0
F0F0
30C0
30C0
0F00
0F00
0F00
0F00
0F00
0F00
0F00
0F00
ENDCHAR
STARTCHAR U+01B4
ENCODING 436
SWIDTH 1920 0
DWIDTH 16 0
BBX 14 18 2 -4
BITMAP
003C
003C
00F0
00F0
F0F0
F0F0
F0F0
F0F0
F0F0
F0F0
F3F0
F3F0
3CF0
3CF0
00F0
00F0
3FC0
3FC0
ENDCHAR
STARTCHAR U+01B5
ENCODING 437
SWIDTH 1920 0
DWIDTH 16 0
BBX 12 14 2 0
BITMAP
FFF0
FFF0
00F0
00F0
03C0
03C0
FFF0
FFF0
3C00
3C00
F000
F000
FFF0
FFF0
ENDCHAR
STARTCHAR U+01B6
ENCODING 438
SWIDTH 1920 0
DWIDTH 16 0
BBX 12 10 2 0
BITMAP
FFF0
FFF0
03C0
03C0
FFF0
FFF0
3C00
3C00
FFF0
FFF0
ENDCHAR
STARTCHAR U+01B7
ENCODING 439
SWIDTH 1920 0
DWIDTH 16 0
BBX 12 18 2 -4
BITMAP
FFF0
FFF0
C3C0
C3C0
0F00
0F00
3F00
3F00
03C0
03C0
00F0
00F0
00F0
00F0
F0F0
F0F0
3FC0
3FC0
ENDCHAR
STARTCHAR U+01B8
ENCODING 440
SWIDTH 1920 0
DWIDTH 16 0
BBX 12 18 2 -4
BITMAP
FFF0
FFF0
3C30
3C30
0F00
0F00
0FC0
0FC0
3C00
3C00
F000
F000
F000
F000
F0F0
F0F0
3FC0
3FC0
ENDCHAR
STARTCHAR U+01B9
ENCODING 441
SWIDTH 1920 0
DWIDTH 16 0
BBX 12 14 2 -4
BITMAP
FFF0
FFF0
3C30
3C30
0F00
0F00
3C00
3C00
F000
F000
F0F0
F0F0
3FC0
3FC0
ENDCHAR
STARTCHAR U+01BA
ENCODING 442
SWIDTH 1920 0
DWIDTH 16 0
BBX 12 14 2 -4
BITMAP
FFC0
FFC0
C300
C300
0FC0
0FC0
00F0
00F0
3FC0
3FC0
F000
F000
3FC0
3FC0
ENDCHAR
STARTCHAR U+01BB
ENCODING 443
SWIDTH 1920 0
DWIDTH 16 0
BBX 12 14 2 0
BITMAP
3FC0
3FC0
F0F0
F0F0
00F0
00F0
FFC0
FFC0
0F00
0F00
3C30
3C30
FFF0
FFF0
ENDCHAR
STARTCHAR U+01BC
ENCODING 444
SWIDTH 1920 0
DWIDTH 16 0
BBX 12 14 2 0
BITMAP
FFF0
FFF0
3C00
3C00
3FC0
3FC0
00F0
00F0
00F0
00F0
F0F0
F0F0
3FC0
3FC0
ENDCHAR
STARTCHAR U+01BD
ENCODING 445
SWIDTH 1920 0
DWIDTH 16 0
BBX 12 12 2 -2
BITMAP
FFF0
FFF0
3C00
3C00
3FC0
3FC0
00F0
00F0
F0F0
F0F0
3FC0
3FC0
ENDCHAR
STARTCHAR U+01BE
ENCODING 446
SWIDTH 1920 0
DWIDTH 16 0
BBX 12 16 2 -2
BITMAP
0F00
0F00
0F00
0F00
FFF0
FFF0
0F00
0F00
0FC0
0FC0
00F0
00F0
F0F0
F0F0
3FC0
3FC0
ENDCHAR
STARTCHAR U+01BF
ENCODING 447
SWIDTH 1920 0
DWIDTH 16 0
BBX 12 18 2 -4
BITMAP
F3C0
F3C0
FCF0
FCF0
F0F0
F0F0
F0F0
F0F0
F0F0
F0F0
F0C0
F0C0
F300
F300
F000
F000
F000
F000
ENDCHAR
STARTCHAR U+01C0
ENCODING 448
SWIDTH 1920 0
DWIDTH 16 0
BBX 4 14 6 0
BITMAP
F000
F000
F000
F000
F000
F000
F000
F000
F000
F000
F000
F000
F000
F000
ENDCHAR
STARTCHAR U+01C1
ENCODING 449
SWIDTH 1920 0
DWIDTH 16 0
BBX 10 14 4 0
BITMAP
F3C0
F3C0
F3C0
F3C0
F3C0
F3C0
F3C0
F3C0
F3C0
F3C0
F3C0
F3C0
F3C0
F3C0
ENDCHAR
STARTCHAR U+01C2
ENCODING 450
SWIDTH 1920 0
DWIDTH 16 0
BBX 12 14 2 0
BITMAP
0F00
0F00
0F00
0F00
FFF0
FFF0
0F00
0F00
FFF0
FFF0
0F00
0F00
0F00
0F00
ENDCHAR
STARTCHAR U+01C3
ENCODING 451
SWIDTH 1920 0
DWIDTH 16 0
BBX 8 16 4 0
BITMAP
3C00
3C00
FF00
FF00
FF00
FF00
3C00
3C00
3C00
3C00
0000
0000
3C00
3C00
3C00
3C00
ENDCHAR
STARTCHAR U+01C4
ENCODING 452
SWIDTH 1920 0
DWIDTH 16 0
BBX 16 20 0 0
BITMAP
0033
0033
000C
000C
0000
0000
FC3F
FC3F
F30F
F30F
F30F
F30F
F33C
F33C
F33C
F33C
F33C
F33C
FC3F
FC3F
ENDCHAR
STARTCHAR U+01C5
ENCODING 453
SWIDTH 1920 0
DWIDTH 16 0
BBX 16 16 0 0
BITMAP
0033
0033
FC0C
FC0C
F300
F300
F33F
F33F
F30F
F30F
F30C
F30C
F33C
F33C
FC3F
FC3F
ENDCHAR
STARTCHAR U+01C6
ENCODING 454
SWIDTH 1920 0
DWIDTH 16 0
BBX 16 16 0 0
BITMAP
0033
0033
0F0C
0F0C
0F00
0F00
3F3F
3F3F
CF0F
CF0F
CF0C
CF0C
CF3C
CF3C
3F3F
3F3F
ENDCHAR
STARTCHAR U+01C7
ENCODING 455
SWIDTH 1920 0
DWIDTH 16 0
BBX 16 18 0 -4
BITMAP
F03F
F03F
F00F
F00F
F00F
F00F
F00F
F00F
F00F
F00F
F0CF
F0CF
FFCF
FFCF
000F
000F
00FC
00FC
ENDCHAR
STARTCHAR U+01C8
ENCODING 456
SWIDTH 1920 0
DWIDTH 16 0
BBX 16 20 0 -4
BITMAP
000F
000F
F00F
F00F
F000
F000
F03F
F03F
F00F
F00F
F00F
F00F
F0CF
F0CF
FFCF
FFCF
000F
000F
00FC
00FC
ENDCHAR
STARTCHAR U+01C9
ENCODING 457
SWIDTH 1920 0
DWIDTH 16 0
BBX 16 20 0 -4
BITMAP
000F
000F
FC0F
FC0F
3C00
3C00
3C3F
3C3F
3C0F
3C0F
3C0F
3C0F
3C0F
3C0F
0F0F
0F0F
000F
000F
00FC
00FC
ENDCHAR
STARTCHAR U+01CA
ENCODING 458
SWIDTH 1920 0
DWIDTH 16 0
BBX 16 18 0 -4
BITMAP
FF0F
FF0F
F3CF
F3CF
F3CF
F3CF
F3CF
F3CF
F3CF
F3CF
F3CF
F3CF
F3CF
F3CF
000F
000F
00FC
00FC
ENDCHAR
STARTCHAR U+01CB
ENCODING 459
SWIDTH 1920 0
DWIDTH 16 0
BBX 16 20 0 -4
BITMAP
000F
000F
FF0F
FF0F
F3C0
F3C0
F3CF
F3CF
F3CF
F3CF
F3CF
F3CF
F3CF
F3CF
F3CF
F3CF
000F
000F
00FC
00FC
ENDCHAR
STARTCHAR U+01CC
ENCODING 460
SWIDTH 1920 0
DWIDTH 16 0
BBX 16 20 0 -4
BITMAP
000F
000F
000F
000F
0000
0000
FF0F
FF0F
F3CF
F3CF
F3CF
F3CF
F3CF
F3CF
F3CF
F3CF
000F
000F
00FC
00FC
ENDCHAR
STARTCHAR U+01CD
ENCODING 461
SWIDTH 1920 0
DWIDTH 16 0
BBX 12 20 2 0
BITMAP
3CF0
3CF0
0FC0
0FC0
0000
0000
0300
0300
0CC0
0CC0
30F0
30F0
FFF0
FFF0
F0F0
F0F0
F0F0
F0F0
F0F0
F0F0
ENDCHAR
STARTCHAR U+01CE
ENCODING 462
SWIDTH 1920 0
DWIDTH 16 0
BBX 12 16 2 0
BITMAP
3CF0
3CF0
0FC0
0FC0
0000
0000
3FC0
3FC0
00F0
00F0
3FF0
3FF0
F0F0
F0F0
3CF0
3CF0
ENDCHAR
STARTCHAR U+01CF
ENCODING 463
SWIDTH 1920 0
DWIDTH 16 0
BBX 12 20 2 0
BITMAP
3CF0
3CF0
0FC0
0FC0
0000
0000
FFF0
FFF0
0F00
0F00
0F00
0F00
0F00
0F00
0F00
0F00
0F00
0F00
FFF0
FFF0
ENDCHAR
STARTCHAR U+01D0
ENCODING 464
SWIDTH 1920 0
DWIDTH 16 0
BBX 12 16 2 0
BITMAP
3CF0
3CF0
0FC0
0FC0
0000
0000
FF00
FF00
0F00
0F00
0F00
0F00
0F00
0F00
03F0
03F0
ENDCHAR
STARTCHAR U+01D1
ENCODING 465
SWIDTH 1920 0
DWIDTH 16 0
BBX 12 20 2 0
BITMAP
3CF0
3CF0
0FC0
0FC0
0000
0000
3FC0
3FC0
F0F0
F0F0
F0F0
F0F0
F0F0
F0F0
F0F0
F0F0
F0F0
F0F0
3FC0
3FC0
ENDCHAR
STARTCHAR U+01D2
ENCODING 466
SWIDTH 1920 0
DWIDTH 16 0
BBX 12 16 2 0
BITMAP
3CF0
3CF0
0FC0
0FC0
0000
0000
3FC0
3FC0
F0F0
F0F0
F0F0
F0F0
F0F0
F0F0
3FC0
3FC0
ENDCHAR
STARTCHAR U+01D3
ENCODING 467
SWIDTH 1920 0
DWIDTH 16 0
BBX 12 20 2 0
BITMAP
3CF0
3CF0
0FC0
0FC0
0000
0000
F0F0
F0F0
F0F0
F0F0
F0F0
F0F0
F0F0
F0F0
F0F0
F0F0
F0F0
F0F0
3FC0
3FC0
ENDCHAR
STARTCHAR U+01D4
ENCODING 468
SWIDTH 1920 0
DWIDTH 16 0
BBX 12 16 2 0
BITMAP
3CF0
3CF0
0FC0
0FC0
0000
0000
F0F0
F0F0
F0F0
F0F0
F0F0
F0F0
F3F0
F3F0
3CF0
3CF0
ENDCHAR
STARTCHAR U+01D5
ENCODING 469
SWIDTH 1920 0
DWIDTH 16 0
BBX 12 20 2 0
BITMAP
FFF0
FFF0
0000
0000
F0F0
F0F0
0000
0000
F0F0
F0F0
F0F0
F0F0
F0F0
F0F0
F0F0
F0F0
F0F0
F0F0
3FC0
3FC0
ENDCHAR
STARTCHAR U+01D6
ENCODING 470
SWIDTH 1920 0
DWIDTH 16 0
BBX 12 18 2 0
BITMAP
FFF0
FFF0
0000
0000
F0F0
F0F0
0000
0000
F0F0
F0F0
F0F0
F0F0
F0F0
F0F0
F3F0
F3F0
3CF0
3CF0
ENDCHAR
STARTCHAR U+01D7
ENCODING 471
SWIDTH 1920 0
DWIDTH 16 0
BBX 12 20 2 0
BITMAP
03C0
03C0
0F00
0F00
F0F0
F0F0
0000
0000
F0F0
F0F0
F0F0
F0F0
F0F0
F0F0
F0F0
F0F0
F0F0
F0F0
3FC0
3FC0
ENDCHAR
STARTCHAR U+01D8
ENCODING 472
SWIDTH 1920 0
DWIDTH 16 0
BBX 12 18 2 0
BITMAP
03C0
03C0
0F00
0F00
F0F0
F0F0
0000
0000
F0F0
F0F0
F0F0
F0F0
F0F0
F0F0
F3F0
F3F0
3CF0
3CF0
ENDCHAR
STARTCHAR U+01D9
ENCODING 473
SWIDTH 1920 0
DWIDTH 16 0
BBX 12 20 2 0
BITMAP
3CF0
3CF0
0FC0
0FC0
F0F0
F0F0
0000
0000
F0F0
F0F0
F0F0
F0F0
F0F0
F0F0
F0F0
F0F0
F0F0
F0F0
3FC0
3FC0
ENDCHAR
STARTCHAR U+01DA
ENCODING 474
SWIDTH 1920 0
DWIDTH 16 0
BBX 12 18 2 0
BITMAP
3CF0
3CF0
0FC0
0FC0
F0F0
F0F0
0000
0000
F0F0
F0F0
F0F0
F0F0
F0F0
F0F0
F3F0
F3F0
3CF0
3CF0
ENDCHAR
STARTCHAR U+01DB
ENCODING 475
SWIDTH 1920 0
DWIDTH 16 0
BBX 12 20 2 0
BITMAP
3C00
3C00
0F00
0F00
F0F0
F0F0
0000
0000
F0F0
F0F0
F0F0
F0F0
F0F0
F0F0
F0F0
F0F0
F0F0
F0F0
3FC0
3FC0
ENDCHAR
STARTCHAR U+01DC
ENCODING 476
SWIDTH 1920 0
DWIDTH 16 0
BBX 12 18 2 0
BITMAP
3C00
3C00
0F00
0F00
F0F0
F0F0
0000
0000
F0F0
F0F0
F0F0
F0F0
F0F0
F0F0
F3F0
F3F0
3CF0
3CF0
ENDCHAR
STARTCHAR U+01DD
ENCODING 477
SWIDTH 1920 0
DWIDTH 16 0
BBX 12 10 2 0
BITMAP
3FC0
3FC0
00F0
00F0
FFF0
FFF0
F0F0
F0F0
3FC0
3FC0
ENDCHAR
STARTCHAR U+01DE
ENCODING 478
SWIDTH 1920 0
DWIDTH 16 0
BBX 12 20 2 0
BITMAP
FFF0
FFF0
0000
0000
F0F0
F0F0
0000
0000
0300
0300
0CC0
0CC0
30F0
30F0
FFF0
FFF0
F0F0
F0F0
F0F0
F0F0
ENDCHAR
STARTCHAR U+01DF
ENCODING 479
SWIDTH 1920 0
DWIDTH 16 0
BBX 12 18 2 0
BITMAP
FFF0
FFF0
0000
0000
F0F0
F0F0
0000
0000
3FC0
3FC0
00F0
00F0
3FF0
3FF0
F0F0
F0F0
3CF0
3CF0
ENDCHAR
STARTCHAR U+01E0
ENCODING 480
SWIDTH 1920 0
DWIDTH 16 0
BBX 12 20 2 0
BITMAP
FFF0
FFF0
0000
0000
0F00
0F00
0000
0000
0300
0300
0CC0
0CC0
30F0
30F0
FFF0
FFF0
F0F0
F0F0
F0F0
F0F0
ENDCHAR
STARTCHAR U+01E1
ENCODING 481
SWIDTH 1920 0
DWIDTH 16 0
BBX 12 18 2 0
BITMAP
FFF0
FFF0
0000
0000
0F00
0F00
0000
0000
3FC0
3FC0
00F0
00F0
3FF0
3FF0
F0F0
F0F0
3CF0
3CF0
ENDCHAR
STARTCHAR U+01E2
ENCODING 482
SWIDTH 1920 0
DWIDTH 16 0
BBX 14 18 2 0
BITMAP
3FF0
3FF0
0000
0000
0FFC
0FFC
33C0
33C0
F3C0
F3C0
FFF0
FFF0
F3C0
F3C0
F3C0
F3C0
F3FC
F3FC
ENDCHAR
STARTCHAR U+01E3
ENCODING 483
SWIDTH 1920 0
DWIDTH 16 0
BBX 16 14 0 0
BITMAP
0FF0
0FF0
0000
0000
3FFC
3FFC
03CF
03CF
3FFF
3FFF
F3C0
F3C0
3FFC
3FFC
ENDCHAR
STARTCHAR U+01E4
ENCODING 484
SWIDTH 1920 0
DWIDTH 16 0
BBX 14 14 2 0
BITMAP
3FC0
3FC0
F0F0
F0F0
F000
F000
F0F0
F0F0
F3FC
F3FC
F0F0
F0F0
3FF0
3FF0
ENDCHAR
STARTCHAR U+01E5
ENCODING 485
SWIDTH 1920 0
DWIDTH 16 0
BBX 14 16 2 -4
BITMAP
00F0
00F0
3FC0
3FC0
F0F0
F0F0
3FC0
3FC0
F000
F000
3FC0
3FC0
0FFC
0FFC
3FC0
3FC0
ENDCHAR
STARTCHAR U+01E6
ENCODING 486
SWIDTH 1920 0
DWIDTH 16 0
BBX 12 20 2 0
BITMAP
3CF0
3CF0
0FC0
0FC0
0000
0000
3FC0
3FC0
F0F0
F0F0
F000
F000
F3F0
F3F0
F0F0
F0F0
F0F0
F0F0
3CF0
3CF0
ENDCHAR
STARTCHAR U+01E7
ENCODING 487
SWIDTH 1920 0
DWIDTH 16 0
BBX 12 20 2 -4
BITMAP
3CF0
3CF0
0FC0
0FC0
0000
0000
3FC0
3FC0
F0F0
F0F0
3FC0
3FC0
F000
F000
3FC0
3FC0
00F0
00F0
0FC0
0FC0
ENDCHAR
STARTCHAR U+01E8
ENCODING 488
SWIDTH 1920 0
DWIDTH 16 0
BBX 12 20 2 0
BITMAP
3CF0
3CF0
0FC0
0FC0
0000
0000
F0F0
F0F0
F0F0
F0F0
F0C0
F0C0
F300
F300
FCC0
FCC0
F0F0
F0F0
F0F0
F0F0
ENDCHAR
STARTCHAR U+01E9
ENCODING 489
SWIDTH 1920 0
DWIDTH 16 0
BBX 12 20 2 0
BITMAP
3CF0
3CF0
0FC0
0FC0
0000
0000
F000
F000
F000
F000
F0F0
F0F0
F0F0
F0F0
F3C0
F3C0
FCF0
FCF0
F0F0
F0F0
ENDCHAR
STARTCHAR U+01EA
ENCODING 490
SWIDTH 1920 0
DWIDTH 16 0
BBX 12 18 2 -4
BITMAP
3FC0
3FC0
F0F0
F0F0
F0F0
F0F0
F0F0
F0F0
F0F0
F0F0
F0F0
F0F0
3FC0
3FC0
0F00
0F00
0FC0
0FC0
ENDCHAR
STARTCHAR U+01EB
ENCODING 491
SWIDTH 1920 0
DWIDTH 16 0
BBX 12 14 2 -4
BITMAP
3FC0
3FC0
F0F0
F0F0
F0F0
F0F0
F0F0
F0F0
3FC0
3FC0
0F00
0F00
0FC0
0FC0
ENDCHAR
STARTCHAR U+01EC
ENCODING 492
SWIDTH 1920 0
DWIDTH 16 0
BBX 12 22 2 -4
BITMAP
3FC0
3FC0
0000
0000
3FC0
3FC0
F0F0
F0F0
F0F0
F0F0
F0F0
F0F0
F0F0
F0F0
F0F0
F0F0
3FC0
3FC0
0F00
0F00
0FC0
0FC0
ENDCHAR
STARTCHAR U+01ED
ENCODING 493
SWIDTH 1920 0
DWIDTH 16 0
BBX 12 18 2 -4
BITMAP
3FC0
3FC0
0000
0000
3FC0
3FC0
F0F0
F0F0
F0F0
F0F0
F0F0
F0F0
3FC0
3FC0
0F00
0F00
0FC0
0FC0
ENDCHAR
STARTCHAR U+01EE
ENCODING 494
SWIDTH 1920 0
DWIDTH 16 0
BBX 12 24 2 -4
BITMAP
3CF0
3CF0
0FC0
0FC0
0000
0000
FFF0
FFF0
C3C0
C3C0
0F00
0F00
3F00
3F00
03C0
03C0
00F0
00F0
00F0
00F0
F0F0
F0F0
3FC0
3FC0
ENDCHAR
STARTCHAR U+01EF
ENCODING 495
SWIDTH 1920 0
DWIDTH 16 0
BBX 12 20 2 -4
BITMAP
3CF0
3CF0
0FC0
0FC0
0000
0000
FFF0
FFF0
C3C0
C3C0
0F00
0F00
03C0
03C0
00F0
00F0
F0F0
F0F0
3FC0
3FC0
ENDCHAR
STARTCHAR U+01F0
ENCODING 496
SWIDTH 1920 0
DWIDTH 16 0
BBX 12 20 2 -4
BITMAP
3CF0
3CF0
0FC0
0FC0
0000
0000
3FC0
3FC0
03C0
03C0
03C0
03C0
03C0
03C0
03C0
03C0
F3C0
F3C0
3F00
3F00
ENDCHAR
STARTCHAR U+01F1
ENCODING 497
SWIDTH 1920 0
DWIDTH 16 0
BBX 16 14 0 0
BITMAP
FC3F
FC3F
F30F
F30F
F30F
F30F
F33C
F33C
F33C
F33C
F33C
F33C
FC3F
FC3F
ENDCHAR
STARTCHAR U+01F2
ENCODING 498
SWIDTH 1920 0
DWIDTH 16 0
BBX 16 14 0 0
BITMAP
FC00
FC00
F300
F300
F33F
F33F
F30F
F30F
F30C
F30C
F33C
F33C
FC3F
FC3F
ENDCHAR
STARTCHAR U+01F3
ENCODING 499
SWIDTH 1920 0
DWIDTH 16 0
BBX 16 14 0 0
BITMAP
0F00
0F00
0F00
0F00
3F3F
3F3F
CF0F
CF0F
CF0C
CF0C
CF3C
CF3C
3F3F
3F3F
ENDCHAR
STARTCHAR U+01F4
ENCODING 500
SWIDTH 1920 0
DWIDTH 16 0
BBX 12 20 2 0
BITMAP
03C0
03C0
0F00
0F00
0000
0000
3FC0
3FC0
F0F0
F0F0
F000
F000
F3F0
F3F0
F0F0
F0F0
F0F0
F0F0
3CF0
3CF0
ENDCHAR
STARTCHAR U+01F5
ENCODING 501
SWIDTH 1920 0
DWIDTH 16 0
BBX 12 20 2 -4
BITMAP
03C0
03C0
0F00
0F00
0000
0000
3FC0
3FC0
F0F0
F0F0
3FC0
3FC0
F000
F000
3FC0
3FC0
00F0
00F0
0FC0
0FC0
ENDCHAR
STARTCHAR U+01F6
ENCODING 502
SWIDTH 1920 0
DWIDTH 16 0
BBX 14 14 2 0
BITMAP
F3C0
F3C0
F3C0
F3C0
FFCC
FFCC
F3CC
F3CC
F3CC
F3CC
F3CC
F3CC
F0F0
F0F0
ENDCHAR
STARTCHAR U+01F7
ENCODING 503
SWIDTH 1920 0
DWIDTH 16 0
BBX 12 14 2 -4
BITMAP
F3C0
F3C0
FCF0
FCF0
F0F0
F0F0
F0C0
F0C0
F300
F300
F000
F000
F000
F000
ENDCHAR
STARTCHAR U+01F8
ENCODING 504
SWIDTH 1920 0
DWIDTH 16 0
BBX 12 20 2 0
BITMAP
3C00
3C00
0F00
0F00
0000
0000
C0F0
C0F0
F0F0
F0F0
FCF0
FCF0
F3F0
F3F0
F0F0
F0F0
F0F0
F0F0
F0F0
F0F0
ENDCHAR
STARTCHAR U+01F9
ENCODING 505
SWIDTH 1920 0
DWIDTH 16 0
BBX 12 16 2 0
BITMAP
3C00
3C00
0F00
0F00
0000
0000
F3C0
F3C0
FCF0
FCF0
F0F0
F0F0
F0F0
F0F0
F0F0
F0F0
ENDCHAR
STARTCHAR U+01FA
ENCODING 506
SWIDTH 1920 0
DWIDTH 16 0
BBX 12 20 2 0
BITMAP
00F0
00F0
0FC0
0FC0
0CC0
0CC0
0FC0
0FC0
0300
0300
0CC0
0CC0
30F0
30F0
FFF0
FFF0
F0F0
F0F0
F0F0
F0F0
ENDCHAR
STARTCHAR U+01FB
ENCODING 507
SWIDTH 1920 0
DWIDTH 16 0
BBX 12 20 2 0
BITMAP
00F0
00F0
0FC0
0FC0
0CC0
0CC0
0FC0
0FC0
0000
0000
3FC0
3FC0
00F0
00F0
3FF0
3FF0
F0F0
F0F0
3CF0
3CF0
ENDCHAR
STARTCHAR U+01FC
ENCODING 508
SWIDTH 1920 0
DWIDTH 16 0
BBX 14 20 2 0
BITMAP
00F0
00F0
03C0
03C0
0000
0000
0FFC
0FFC
33C0
33C0
F3C0
F3C0
FFF0
FFF0
F3C0
F3C0
F3C0
F3C0
F3FC
F3FC
ENDCHAR
STARTCHAR U+01FD
ENCODING 509
SWIDTH 1920 0
DWIDTH 16 0
BBX 16 16 0 0
BITMAP
00F0
00F0
03C0
03C0
0000
0000
3FFC
3FFC
03CF
03CF
3FFF
3FFF
F3C0
F3C0
3FFC
3FFC
ENDCHAR
STARTCHAR U+01FE
ENCODING 510
SWIDTH 1920 0
DWIDTH 16 0
BBX 12 22 2 -2
BITMAP
0F00
0F00
3C00
3C00
00F0
00F0
3FC0
3FC0
F0F0
F0F0
F3F0
F3F0
FFF0
FFF0
FCF0
FCF0
F0F0
F0F0
3FC0
3FC0
F000
F000
ENDCHAR
STARTCHAR U+01FF
ENCODING 511
SWIDTH 1920 0
DWIDTH 16 0
BBX 12 18 2 -2
BITMAP
0F00
0F00
3C00
3C00
00F0
00F0
3FC0
3FC0
F3F0
F3F0
FFF0
FFF0
FCF0
FCF0
3FC0
3FC0
F000
F000
ENDCHAR
STARTCHAR U+0200
ENCODING 512
SWIDTH 1920 0
DWIDTH 16 0
BBX 14 20 0 0
BITMAP
F0F0
F0F0
3C3C
3C3C
0000
0000
00C0
00C0
0330
0330
0C3C
0C3C
3FFC
3FFC
3C3C
3C3C
3C3C
3C3C
3C3C
3C3C
ENDCHAR
STARTCHAR U+0201
ENCODING 513
SWIDTH 1920 0
DWIDTH 16 0
BBX 14 16 0 0
BITMAP
F0F0
F0F0
3C3C
3C3C
0000
0000
0FF0
0FF0
003C
003C
0FFC
0FFC
3C3C
3C3C
0F3C
0F3C
ENDCHAR
STARTCHAR U+0202
ENCODING 514
SWIDTH 1920 0
DWIDTH 16 0
BBX 12 20 2 0
BITMAP
3FC0
3FC0
F0F0
F0F0
0000
0000
0300
0300
0CC0
0CC0
30F0
30F0
FFF0
FFF0
F0F0
F0F0
F0F0
F0F0
F0F0
F0F0
ENDCHAR
STARTCHAR U+0203
ENCODING 515
SWIDTH 1920 0
DWIDTH 16 0
BBX 12 16 2 0
BITMAP
3FC0
3FC0
F0F0
F0F0
0000
0000
3FC0
3FC0
00F0
00F0
3FF0
3FF0
F0F0
F0F0
3CF0
3CF0
ENDCHAR
STARTCHAR U+0204
ENCODING 516
SWIDTH 1920 0
DWIDTH 16 0
BBX 14 20 0 0
BITMAP
F0F0
F0F0
3C3C
3C3C
0000
0000
3FFC
3FFC
3C0C
3C0C
3C00
3C00
3FC0
3FC0
3C00
3C00
3C0C
3C0C
3FFC
3FFC
ENDCHAR
STARTCHAR U+0205
ENCODING 517
SWIDTH 1920 0
DWIDTH 16 0
BBX 14 16 0 0
BITMAP
F0F0
F0F0
3C3C
3C3C
0000
0000
0FF0
0FF0
3C3C
3C3C
3FFC
3FFC
3C00
3C00
0FF0
0FF0
ENDCHAR
STARTCHAR U+0206
ENCODING 518
SWIDTH 1920 0
DWIDTH 16 0
BBX 12 20 2 0
BITMAP
3FC0
3FC0
F0F0
F0F0
0000
0000
FFF0
FFF0
F030
F030
F000
F000
FF00
FF00
F000
F000
F030
F030
FFF0
FFF0
ENDCHAR
STARTCHAR U+0207
ENCODING 519
SWIDTH 1920 0
DWIDTH 16 0
BBX 12 16 2 0
BITMAP
3FC0
3FC0
F0F0
F0F0
0000
0000
3FC0
3FC0
F0F0
F0F0
FFF0
FFF0
F000
F000
3FC0
3FC0
ENDCHAR
STARTCHAR U+0208
ENCODING 520
SWIDTH 1920 0
DWIDTH 16 0
BBX 14 20 0 0
BITMAP
F0F0
F0F0
3C3C
3C3C
0000
0000
3FFC
3FFC
03C0
03C0
03C0
03C0
03C0
03C0
03C0
03C0
03C0
03C0
3FFC
3FFC
ENDCHAR
STARTCHAR U+0209
ENCODING 521
SWIDTH 1920 0
DWIDTH 16 0
BBX 14 16 0 0
BITMAP
F0F0
F0F0
3C3C
3C3C
0000
0000
3FC0
3FC0
03C0
03C0
03C0
03C0
03C0
03C0
00FC
00FC
ENDCHAR
STARTCHAR U+020A
ENCODING 522
SWIDTH 1920 0
DWIDTH 16 0
BBX 12 20 2 0
BITMAP
3FC0
3FC0
F0F0
F0F0
0000
0000
FFF0
FFF0
0F00
0F00
0F00
0F00
0F00
0F00
0F00
0F00
0F00
0F00
FFF0
FFF0
ENDCHAR
STARTCHAR U+020B
ENCODING 523
SWIDTH 1920 0
DWIDTH 16 0
BBX 12 16 2 0
BITMAP
3FC0
3FC0
F0F0
F0F0
0000
0000
FF00
FF00
0F00
0F00
0F00
0F00
0F00
0F00
03F0
03F0
ENDCHAR
STARTCHAR U+020C
ENCODING 524
SWIDTH 1920 0
DWIDTH 16 0
BBX 14 20 0 0
BITMAP
F0F0
F0F0
3C3C
3C3C
0000
0000
0FF0
0FF0
3C3C
3C3C
3C3C
3C3C
3C3C
3C3C
3C3C
3C3C
3C3C
3C3C
0FF0
0FF0
ENDCHAR
STARTCHAR U+020D
ENCODING 525
SWIDTH 1920 0
DWIDTH 16 0
BBX 14 16 0 0
BITMAP
F0F0
F0F0
3C3C
3C3C
0000
0000
0FF0
0FF0
3C3C
3C3C
3C3C
3C3C
3C3C
3C3C
0FF0
0FF0
ENDCHAR
STARTCHAR U+020E
ENCODING 526
SWIDTH 1920 0
DWIDTH 16 0
BBX 12 20 2 0
BITMAP
3FC0
3FC0
F0F0
F0F0
0000
0000
3FC0
3FC0
F0F0
F0F0
F0F0
F0F0
F0F0
F0F0
F0F0
F0F0
F0F0
F0F0
3FC0
3FC0
ENDCHAR
STARTCHAR U+020F
ENCODING 527
SWIDTH 1920 0
DWIDTH 16 0
BBX 12 16 2 0
BITMAP
3FC0
3FC0
F0F0
F0F0
0000
0000
3FC0
3FC0
F0F0
F0F0
F0F0
F0F0
F0F0
F0F0
3FC0
3FC0
ENDCHAR
STARTCHAR U+0210
ENCODING 528
SWIDTH 1920 0
DWIDTH 16 0
BBX 14 20 0 0
BITMAP
F0F0
F0F0
3C3C
3C3C
0000
0000
3FF0
3FF0
3C3C
3C3C
3C3C
3C3C
3CF0
3CF0
3C30
3C30
3C3C
3C3C
3C3C
3C3C
ENDCHAR
STARTCHAR U+0211
ENCODING 529
SWIDTH 1920 0
DWIDTH 16 0
BBX 14 16 0 0
BITMAP
F0F0
F0F0
3C3C
3C3C
0000
0000
3F3C
3F3C
0FC0
0FC0
0F00
0F00
0F00
0F00
0F00
0F00
ENDCHAR
STARTCHAR U+0212
ENCODING 530
SWIDTH 1920 0
DWIDTH 16 0
BBX 12 20 2 0
BITMAP
3FC0
3FC0
F0F0
F0F0
0000
0000
FFC0
FFC0
F0F0
F0F0
F0F0
F0F0
F3C0
F3C0
F0C0
F0C0
F0F0
F0F0
F0F0
F0F0
ENDCHAR
STARTCHAR U+0213
ENCODING 531
SWIDTH 1920 0
DWIDTH 16 0
BBX 12 16 2 0
BITMAP
3FC0
3FC0
F0F0
F0F0
0000
0000
FCF0
FCF0
3F00
3F00
3C00
3C00
3C00
3C00
3C00
3C00
ENDCHAR
STARTCHAR U+0214
ENCODING 532
SWIDTH 1920 0
DWIDTH 16 0
BBX 14 20 0 0
BITMAP
F0F0
F0F0
3C3C
3C3C
0000
0000
3C3C
3C3C
3C3C
3C3C
3C3C
3C3C
3C3C
3C3C
3C3C
3C3C
3C3C
3C3C
0FF0
0FF0
ENDCHAR
STARTCHAR U+0215
ENCODING 533
SWIDTH 1920 0
DWIDTH 16 0
BBX 14 16 0 0
BITMAP
F0F0
F0F0
3C3C
3C3C
0000
0000
3C3C
3C3C
3C3C
3C3C
3C3C
3C3C
3CFC
3CFC
0F3C
0F3C
ENDCHAR
STARTCHAR U+0216
ENCODING 534
SWIDTH 1920 0
DWIDTH 16 0
BBX 12 20 2 0
BITMAP
3FC0
3FC0
F0F0
F0F0
0000
0000
F0F0
F0F0
F0F0
F0F0
F0F0
F0F0
F0F0
F0F0
F0F0
F0F0
F0F0
F0F0
3FC0
3FC0
ENDCHAR
STARTCHAR U+0217
ENCODING 535
SWIDTH 1920 0
DWIDTH 16 0
BBX 12 16 2 0
BITMAP
3FC0
3FC0
F0F0
F0F0
0000
0000
F0F0
F0F0
F0F0
F0F0
F0F0
F0F0
F3F0
F3F0
3CF0
3CF0
ENDCHAR
STARTCHAR U+0218
ENCODING 536
SWIDTH 1920 0
DWIDTH 16 0
BBX 12 18 2 -4
BITMAP
3FC0
3FC0
F0F0
F0F0
F000
F000
3FC0
3FC0
00F0
00F0
F0F0
F0F0
3FC0
3FC0
0300
0300
0F00
0F00
ENDCHAR
STARTCHAR U+0219
ENCODING 537
SWIDTH 1920 0
DWIDTH 16 0
BBX 12 14 2 -4
BITMAP
3FC0
3FC0
F000
F000
3FC0
3FC0
00F0
00F0
3FC0
3FC0
0300
0300
0F00
0F00
ENDCHAR
STARTCHAR U+021A
ENCODING 538
SWIDTH 1920 0
DWIDTH 16 0
BBX 12 18 2 -4
BITMAP
FFF0
FFF0
0F00
0F00
0F00
0F00
0F00
0F00
0F00
0F00
0F00
0F00
0F00
0F00
00C0
00C0
03C0
03C0
ENDCHAR
STARTCHAR U+021B
ENCODING 539
SWIDTH 1920 0
DWIDTH 16 0
BBX 12 18 2 -4
BITMAP
0F00
0F00
0F00
0F00
FFF0
FFF0
0F00
0F00
0F00
0F00
0F00
0F00
03F0
03F0
00C0
00C0
03C0
03C0
ENDCHAR
STARTCHAR U+021C
ENCODING 540
SWIDTH 1920 0
DWIDTH 16 0
BBX 12 18 2 -4
BITMAP
3FC0
3FC0
F0F0
F0F0
03C0
03C0
0FC0
0FC0
3CF0
3CF0
00F0
00F0
03C0
03C0
0F00
0F00
3C00
3C00
ENDCHAR
STARTCHAR U+021D
ENCODING 541
SWIDTH 1920 0
DWIDTH 16 0
BBX 12 14 2 -4
BITMAP
3FC0
3FC0
F0F0
F0F0
03C0
03C0
3CF0
3CF0
00F0
00F0
03C0
03C0
3F00
3F00
ENDCHAR
STARTCHAR U+021E
ENCODING 542
SWIDTH 1920 0
DWIDTH 16 0
BBX 12 20 2 0
BITMAP
3CF0
3CF0
0FC0
0FC0
0000
0000
F0F0
F0F0
F0F0
F0F0
F0F0
F0F0
FFF0
FFF0
F0F0
F0F0
F0F0
F0F0
F0F0
F0F0
ENDCHAR
STARTCHAR U+021F
ENCODING 543
SWIDTH 1920 0
DWIDTH 16 0
BBX 12 20 2 0
BITMAP
3CF0
3CF0
0FC0
0FC0
0000
0000
F000
F000
F000
F000
F3C0
F3C0
FCF0
FCF0
F0F0
F0F0
F0F0
F0F0
F0F0
F0F0
ENDCHAR
STARTCHAR U+0220
ENCODING 544
SWIDTH 1920 0
DWIDTH 16 0
BBX 12 18 2 -4
BITMAP
F3C0
F3C0
FCF0
FCF0
F0F0
F0F0
F0F0
F0F0
F0F0
F0F0
F0F0
F0F0
F0F0
F0F0
00F0
00F0
00F0
00F0
ENDCHAR
STARTCHAR U+0221
ENCODING 545
SWIDTH 1920 0
DWIDTH 16 0
BBX 16 18 0 -4
BITMAP
00F0
00F0
00F0
00F0
3CF0
3CF0
F3F0
F3F0
F0F0
F0F0
F0FF
F0FF
3CF3
3CF3
003F
003F
00F0
00F0
ENDCHAR
STARTCHAR U+0222
ENCODING 546
SWIDTH 1920 0
DWIDTH 16 0
BBX 12 14 2 0
BITMAP
00C0
00C0
3CF0
3CF0
F0F0
F0F0
3FC0
3FC0
F0F0
F0F0
F0F0
F0F0
3FC0
3FC0
ENDCHAR
STARTCHAR U+0223
ENCODING 547
SWIDTH 1920 0
DWIDTH 16 0
BBX 12 14 2 0
BITMAP
30C0
30C0
F0F0
F0F0
F0F0
F0F0
3FC0
3FC0
F0F0
F0F0
F0F0
F0F0
3FC0
3FC0
ENDCHAR
STARTCHAR U+0224
ENCODING 548
SWIDTH 1920 0
DWIDTH 16 0
BBX 12 18 2 -4
BITMAP
FFF0
FFF0
C0F0
C0F0
03C0
03C0
0F00
0F00
3C00
3C00
F030
F030
FFF0
FFF0
00F0
00F0
03C0
03C0
ENDCHAR
STARTCHAR U+0225
ENCODING 549
SWIDTH 1920 0
DWIDTH 16 0
BBX 12 14 2 -4
BITMAP
FFF0
FFF0
C3C0
C3C0
0F00
0F00
3C30
3C30
FFF0
FFF0
00F0
00F0
03C0
03C0
ENDCHAR
STARTCHAR U+0226
ENCODING 550
SWIDTH 1920 0
DWIDTH 16 0
BBX 12 20 2 0
BITMAP
0F00
0F00
0F00
0F00
0000
0000
0300
0300
0CC0
0CC0
30F0
30F0
FFF0
FFF0
F0F0
F0F0
F0F0
F0F0
F0F0
F0F0
ENDCHAR
STARTCHAR U+0227
ENCODING 551
SWIDTH 1920 0
DWIDTH 16 0
BBX 12 16 2 0
BITMAP
0F00
0F00
0F00
0F00
0000
0000
3FC0
3FC0
00F0
00F0
3FF0
3FF0
F0F0
F0F0
3CF0
3CF0
ENDCHAR
STARTCHAR U+0228
ENCODING 552
SWIDTH 1920 0
DWIDTH 16 0
BBX 12 18 2 -4
BITMAP
FFF0
FFF0
F030
F030
F000
F000
FF00
FF00
F000
F000
F030
F030
FFF0
FFF0
0F00
0F00
3F00
3F00
ENDCHAR
STARTCHAR U+0229
ENCODING 553
SWIDTH 1920 0
DWIDTH 16 0
BBX 12 14 2 -4
BITMAP
3FC0
3FC0
F0F0
F0F0
FFF0
FFF0
F000
F000
3FC0
3FC0
0F00
0F00
3F00
3F00
ENDCHAR
STARTCHAR U+022A
ENCODING 554
SWIDTH 1920 0
DWIDTH 16 0
BBX 12 20 2 0
BITMAP
FFF0
FFF0
0000
0000
F0F0
F0F0
0000
0000
3FC0
3FC0
F0F0
F0F0
F0F0
F0F0
F0F0
F0F0
F0F0
F0F0
3FC0
3FC0
ENDCHAR
STARTCHAR U+022B
ENCODING 555
SWIDTH 1920 0
DWIDTH 16 0
BBX 12 18 2 0
BITMAP
FFF0
FFF0
0000
0000
F0F0
F0F0
0000
0000
3FC0
3FC0
F0F0
F0F0
F0F0
F0F0
F0F0
F0F0
3FC0
3FC0
ENDCHAR
STARTCHAR U+022C
ENCODING 556
SWIDTH 1920 0
DWIDTH 16 0
BBX 14 20 2 0
BITMAP
FFFC
FFFC
0000
0000
3F3C
3F3C
F3F0
F3F0
0000
0000
3FC0
3FC0
F0F0
F0F0
F0F0
F0F0
F0F0
F0F0
3FC0
3FC0
ENDCHAR
STARTCHAR U+022D
ENCODING 557
SWIDTH 1920 0
DWIDTH 16 0
BBX 14 20 2 0
BITMAP
FFFC
FFFC
0000
0000
3F3C
3F3C
F3F0
F3F0
0000
0000
3FC0
3FC0
F0F0
F0F0
F0F0
F0F0
F0F0
F0F0
3FC0
3FC0
ENDCHAR
STARTCHAR U+022E
ENCODING 558
SWIDTH 1920 0
DWIDTH 16 0
BBX 12 20 2 0
BITMAP
0F00
0F00
0F00
0F00
0000
0000
3FC0
3FC0
F0F0
F0F0
F0F0
F0F0
F0F0
F0F0
F0F0
F0F0
F0F0
F0F0
3FC0
3FC0
ENDCHAR
STARTCHAR U+022F
ENCODING 559
SWIDTH 1920 0
DWIDTH 16 0
BBX 12 16 2 0
BITMAP
0F00
0F00
0F00
0F00
0000
0000
3FC0
3FC0
F0F0
F0F0
F0F0
F0F0
F0F0
F0F0
3FC0
3FC0
ENDCHAR
STARTCHAR U+0230
ENCODING 560
SWIDTH 1920 0
DWIDTH 16 0
BBX 12 20 2 0
BITMAP
FFF0
FFF0
0000
0000
0F00
0F00
0000
0000
3FC0
3FC0
F0F0
F0F0
F0F0
F0F0
F0F0
F0F0
F0F0
F0F0
3FC0
3FC0
ENDCHAR
STARTCHAR U+0231
ENCODING 561
SWIDTH 1920 0
DWIDTH 16 0
BBX 12 18 2 0
BITMAP
FFF0
FFF0
0000
0000
0F00
0F00
0000
0000
3FC0
3FC0
F0F0
F0F0
F0F0
F0F0
F0F0
F0F0
3FC0
3FC0
ENDCHAR
STARTCHAR U+0232
ENCODING 562
SWIDTH 1920 0
DWIDTH 16 0
BBX 12 18 2 0
BITMAP
3FC0
3FC0
0000
0000
F0F0
F0F0
F0F0
F0F0
30C0
30C0
0F00
0F00
0F00
0F00
0F00
0F00
0F00
0F00
ENDCHAR
STARTCHAR U+0233
ENCODING 563
SWIDTH 1920 0
DWIDTH 16 0
BBX 12 18 2 -4
BITMAP
3FC0
3FC0
0000
0000
F0F0
F0F0
F0F0
F0F0
F0F0
F0F0
F3F0
F3F0
3CF0
3CF0
00F0
00F0
3FC0
3FC0
ENDCHAR
STARTCHAR U+0234
ENCODING 564
SWIDTH 1920 0
DWIDTH 16 0
BBX 12 18 2 -4
BITMAP
FF00
FF00
0F00
0F00
0F00
0F00
0F00
0F00
0F00
0F00
0FF0
0FF0
0F30
0F30
03F0
03F0
0F00
0F00
ENDCHAR
STARTCHAR U+0235
ENCODING 565
SWIDTH 1920 0
DWIDTH 16 0
BBX 14 14 2 -4
BITMAP
FF00
FF00
F3C0
F3C0
F3C0
F3C0
F3FC
F3FC
F3CC
F3CC
00FC
00FC
03C0
03C0
ENDCHAR
STARTCHAR U+0236
ENCODING 566
SWIDTH 1920 0
DWIDTH 16 0
BBX 12 18 2 -4
BITMAP
0F00
0F00
0F00
0F00
FFF0
FFF0
0F00
0F00
0F00
0F00
0FF0
0FF0
0330
0330
03F0
03F0
0F00
0F00
ENDCHAR
STARTCHAR U+0237
ENCODING 567
SWIDTH 1920 0
DWIDTH 16 0
BBX 10 14 2 -4
BITMAP
3FC0
3FC0
03C0
03C0
03C0
03C0
03C0
03C0
03C0
03C0
F3C0
F3C0
3F00
3F00
ENDCHAR
STARTCHAR U+0238
ENCODING 568
SWIDTH 1920 0
DWIDTH 16 0
BBX 16 14 0 0
BITMAP
03C0
03C0
03C0
03C0
3FFC
3FFC
F3CF
F3CF
F3CF
F3CF
F3CF
F3CF
3C3C
3C3C
ENDCHAR
STARTCHAR U+0239
ENCODING 569
SWIDTH 1920 0
DWIDTH 16 0
BBX 16 14 0 -4
BITMAP
3C3C
3C3C
F3CF
F3CF
F3CF
F3CF
F3CF
F3CF
3FFC
3FFC
03C0
03C0
03C0
03C0
ENDCHAR
STARTCHAR U+023A
ENCODING 570
SWIDTH 1920 0
DWIDTH 16 0
BBX 16 18 0 -2
BITMAP
0003
0003
00CF
00CF
033C
033C
0CFC
0CFC
3FFC
3FFC
3F3C
3F3C
3C3C
3C3C
FC3C
FC3C
C000
C000
ENDCHAR
STARTCHAR U+023B
ENCODING 571
SWIDTH 1920 0
DWIDTH 16 0
BBX 16 18 0 -2
BITMAP
0003
0003
0FFF
0FFF
3C3C
3C3C
3CF0
3CF0
3FC0
3FC0
3F00
3F00
3C3C
3C3C
FFF0
FFF0
C000
C000
ENDCHAR
STARTCHAR U+023C
ENCODING 572
SWIDTH 1920 0
DWIDTH 16 0
BBX 12 14 2 -2
BITMAP
00F0
00F0
3FC0
3FC0
F0C0
F0C0
F000
F000
F0F0
F0F0
3FC0
3FC0
F000
F000
ENDCHAR
STARTCHAR U+023D
ENCODING 573
SWIDTH 1920 0
DWIDTH 16 0
BBX 14 14 0 0
BITMAP
3C00
3C00
3C00
3C00
3C00
3C00
FFC0
FFC0
3C00
3C00
3C0C
3C0C
3FFC
3FFC
ENDCHAR
STARTCHAR U+023E
ENCODING 574
SWIDTH 1920 0
DWIDTH 16 0
BBX 16 18 0 -2
BITMAP
0003
0003
3FFF
3FFF
03CC
03CC
03F0
03F0
03C0
03C0
0FC0
0FC0
3FC0
3FC0
F3C0
F3C0
C000
C000
ENDCHAR
STARTCHAR U+023F
ENCODING 575
SWIDTH 1920 0
DWIDTH 16 0
BBX 14 14 2 -4
BITMAP
3FC0
3FC0
F000
F000
3FC0
3FC0
00F0
00F0
3FC0
3FC0
0F0C
0F0C
03F0
03F0
ENDCHAR
STARTCHAR U+0240
ENCODING 576
SWIDTH 1920 0
DWIDTH 16 0
BBX 14 14 2 -4
BITMAP
FFF0
FFF0
C3C0
C3C0
0F00
0F00
3C00
3C00
FC00
FC00
0F3C
0F3C
03F0
03F0
ENDCHAR
STARTCHAR U+0241
ENCODING 577
SWIDTH 1920 0
DWIDTH 16 0
BBX 12 14 2 0
BITMAP
3FC0
3FC0
F0F0
F0F0
00F0
00F0
03C0
03C0
0F00
0F00
0F00
0F00
0F00
0F00
ENDCHAR
STARTCHAR U+0242
ENCODING 578
SWIDTH 1920 0
DWIDTH 16 0
BBX 12 10 2 0
BITMAP
3FC0
3FC0
F0F0
F0F0
03C0
03C0
0F00
0F00
0F00
0F00
ENDCHAR
STARTCHAR U+0243
ENCODING 579
SWIDTH 1920 0
DWIDTH 16 0
BBX 14 14 0 0
BITMAP
3FF0
3FF0
3C3C
3C3C
3FF0
3FF0
3C3C
3C3C
FF3C
FF3C
3C3C
3C3C
3FF0
3FF0
ENDCHAR
STARTCHAR U+0244
ENCODING 580
SWIDTH 1920 0
DWIDTH 16 0
BBX 16 14 0 0
BITMAP
3C3C
3C3C
3C3C
3C3C
3C3C
3C3C
FFFF
FFFF
3C3C
3C3C
3C3C
3C3C
0FF0
0FF0
ENDCHAR
STARTCHAR U+0245
ENCODING 581
SWIDTH 1920 0
DWIDTH 16 0
BBX 12 14 2 0
BITMAP
0300
0300
0CC0
0CC0
30F0
30F0
F0F0
F0F0
F0F0
F0F0
F0F0
F0F0
F0F0
F0F0
ENDCHAR
STARTCHAR U+0246
ENCODING 582
SWIDTH 1920 0
DWIDTH 16 0
BBX 16 18 0 -2
BITMAP
0003
0003
3FFF
3FFF
3C3C
3C3C
3CF0
3CF0
3FC0
3FC0
3F00
3F00
3C0C
3C0C
FFFC
FFFC
C000
C000
ENDCHAR
STARTCHAR U+0247
ENCODING 583
SWIDTH 1920 0
DWIDTH 16 0
BBX 12 14 2 -2
BITMAP
00F0
00F0
3FC0
3FC0
F0F0
F0F0
FFF0
FFF0
F000
F000
3FC0
3FC0
F000
F000
ENDCHAR
STARTCHAR U+0248
ENCODING 584
SWIDTH 1920 0
DWIDTH 16 0
BBX 12 16 2 -2
BITMAP
3FF0
3FF0
03C0
03C0
03C0
03C0
3FF0
3FF0
03C0
03C0
03C0
03C0
F3C0
F3C0
3F00
3F00
ENDCHAR
STARTCHAR U+0249
ENCODING 585
SWIDTH 1920 0
DWIDTH 16 0
BBX 12 20 2 -4
BITMAP
03C0
03C0
03C0
03C0
0000
0000
3FC0
3FC0
03C0
03C0
3FF0
3FF0
03C0
03C0
03C0
03C0
F3C0
F3C0
3F00
3F00
ENDCHAR
STARTCHAR U+024A
ENCODING 586
SWIDTH 1920 0
DWIDTH 16 0
BBX 14 18 2 -4
BITMAP
3F30
3F30
F0F0
F0F0
F0F0
F0F0
F0F0
F0F0
F0F0
F0F0
F3F0
F3F0
3CF0
3CF0
00F0
00F0
003C
003C
ENDCHAR
STARTCHAR U+024B
ENCODING 587
SWIDTH 1920 0
DWIDTH 16 0
BBX 14 14 2 -4
BITMAP
3F30
3F30
F0F0
F0F0
F0F0
F0F0
F3F0
F3F0
3CF0
3CF0
00F0
00F0
003C
003C
ENDCHAR
STARTCHAR U+024C
ENCODING 588
SWIDTH 1920 0
DWIDTH 16 0
BBX 14 14 0 0
BITMAP
3FF0
3FF0
3C3C
3C3C
3C3C
3C3C
FFF0
FFF0
3C30
3C30
3C3C
3C3C
3C3C
3C3C
ENDCHAR
STARTCHAR U+024D
ENCODING 589
SWIDTH 1920 0
DWIDTH 16 0
BBX 12 10 2 0
BITMAP
FCF0
FCF0
3F00
3F00
FFC0
FFC0
3C00
3C00
3C00
3C00
ENDCHAR
STARTCHAR U+024E
ENCODING 590
SWIDTH 1920 0
DWIDTH 16 0
BBX 16 14 0 0
BITMAP
3C3C
3C3C
FFFF
FFFF
0C30
0C30
03C0
03C0
03C0
03C0
03C0
03C0
03C0
03C0
ENDCHAR
STARTCHAR U+024F
ENCODING 591
SWIDTH 1920 0
DWIDTH 16 0
BBX 16 14 0 -4
BITMAP
3C3C
3C3C
FFFF
FFFF
3C3C
3C3C
3CFC
3CFC
0F3C
0F3C
003C
003C
0FF0
0FF0
ENDCHAR
STARTCHAR U+0260
ENCODING 608
SWIDTH 1920 0
DWIDTH 16 0
BBX 14 20 2 -4
BITMAP
003C
003C
00F0
00F0
00F0
00F0
3CF0
3CF0
F3F0
F3F0
F0F0
F0F0
F0F0
F0F0
3CF0
3CF0
00F0
00F0
3FC0
3FC0
ENDCHAR
STARTCHAR U+026B
ENCODING 619
SWIDTH 1920 0
DWIDTH 16 0
BBX 16 14 0 0
BITMAP
3FC0
3FC0
03C0
03C0
3FCF
3FCF
F3FC
F3FC
03C0
03C0
03C0
03C0
00FC
00FC
ENDCHAR
STARTCHAR U+027E
ENCODING 638
SWIDTH 1920 0
DWIDTH 16 0
BBX 12 10 2 0
BITMAP
0FC0
0FC0
3CF0
3CF0
3C00
3C00
3C00
3C00
FF00
FF00
ENDCHAR
STARTCHAR U+0280
ENCODING 640
SWIDTH 1920 0
DWIDTH 16 0
BBX 12 10 2 0
BITMAP
FFC0
FFC0
F0F0
F0F0
F3C0
F3C0
F0C0
F0C0
F0F0
F0F0
ENDCHAR
STARTCHAR U+02C6
ENCODING 710
SWIDTH 1920 0
DWIDTH 16 0
BBX 10 4 4 10
BITMAP
3F00
3F00
F3C0
F3C0
ENDCHAR
STARTCHAR U+02C7
ENCODING 711
SWIDTH 1920 0
DWIDTH 16 0
BBX 10 4 4 10
BITMAP
F3C0
F3C0
3F00
3F00
ENDCHAR
STARTCHAR U+02C9
ENCODING 713
SWIDTH 1920 0
DWIDTH 16 0
BBX 8 2 4 12
BITMAP
FF00
FF00
ENDCHAR
STARTCHAR U+02D8
ENCODING 728
SWIDTH 1920 0
DWIDTH 16 0
BBX 12 4 2 10
BITMAP
F0F0
F0F0
3FC0
3FC0
ENDCHAR
STARTCHAR U+02D9
ENCODING 729
SWIDTH 1920 0
DWIDTH 16 0
BBX 4 4 6 10
BITMAP
F000
F000
F000
F000
ENDCHAR
STARTCHAR U+02DA
ENCODING 730
SWIDTH 1920 0
DWIDTH 16 0
BBX 6 6 6 8
BITMAP
FC00
FC00
CC00
CC00
FC00
FC00
ENDCHAR
STARTCHAR U+02DB
ENCODING 731
SWIDTH 1920 0
DWIDTH 16 0
BBX 8 6 4 -4
BITMAP
3C00
3C00
F000
F000
3F00
3F00
ENDCHAR
STARTCHAR U+02DC
ENCODING 732
SWIDTH 1920 0
DWIDTH 16 0
BBX 14 4 2 10
BITMAP
3F3C
3F3C
F3F0
F3F0
ENDCHAR
STARTCHAR U+02DD
ENCODING 733
SWIDTH 1920 0
DWIDTH 16 0
BBX 14 4 2 10
BITMAP
3C3C
3C3C
F0F0
F0F0
ENDCHAR
STARTCHAR U+0384
ENCODING 900
SWIDTH 1920 0
DWIDTH 16 0
BBX 6 6 6 14
BITMAP
3C00
3C00
F000
F000
C000
C000
ENDCHAR
STARTCHAR U+0385
ENCODING 901
SWIDTH 1920 0
DWIDTH 16 0
BBX 12 6 2 14
BITMAP
0F00
0F00
0C00
0C00
F0F0
F0F0
ENDCHAR
STARTCHAR U+0386
ENCODING 902
SWIDTH 1920 0
DWIDTH 16 0
BBX 14 18 2 0
BITMAP
3C00
3C00
F000
F000
0300
0300
0300
0300
0FC0
0FC0
0CC0
0CC0
3FF0
3FF0
3030
3030
F03C
F03C
ENDCHAR
STARTCHAR U+0387
ENCODING 903
SWIDTH 1920 0
DWIDTH 16 0
BBX 4 4 6 4
BITMAP
F000
F000
F000
F000
ENDCHAR
STARTCHAR U+0388
ENCODING 904
SWIDTH 1920 0
DWIDTH 16 0
BBX 14 18 0 0
BITMAP
3C00
3C00
F000
F000
0FFC
0FFC
3C0C
3C0C
3C00
3C00
3FC0
3FC0
3C00
3C00
3C0C
3C0C
3FFC
3FFC
ENDCHAR
STARTCHAR U+0389
ENCODING 905
SWIDTH 1920 0
DWIDTH 16 0
BBX 14 18 0 0
BITMAP
3C00
3C00
F000
F000
0C3C
0C3C
3C3C
3C3C
3C3C
3C3C
3FFC
3FFC
3C3C
3C3C
3C3C
3C3C
3C3C
3C3C
ENDCHAR
STARTCHAR U+038A
ENCODING 906
SWIDTH 1920 0
DWIDTH 16 0
BBX 14 18 0 0
BITMAP
3C00
3C00
F000
F000
0FFC
0FFC
03C0
03C0
03C0
03C0
03C0
03C0
03C0
03C0
03C0
03C0
3FFC
3FFC
ENDCHAR
STARTCHAR U+038C
ENCODING 908
SWIDTH 1920 0
DWIDTH 16 0
BBX 14 18 0 0
BITMAP
3C00
3C00
F000
F000
0FF0
0FF0
3C3C
3C3C
3C3C
3C3C
3C3C
3C3C
3C3C
3C3C
3C3C
3C3C
0FF0
0FF0
ENDCHAR
STARTCHAR U+038E
ENCODING 910
SWIDTH 1920 0
DWIDTH 16 0
BBX 14 18 0 0
BITMAP
3C00
3C00
F000
F000
0C3C
0C3C
3C3C
3C3C
0C30
0C30
03C0
03C0
03C0
03C0
03C0
03C0
03C0
03C0
ENDCHAR
STARTCHAR U+038F
ENCODING 911
SWIDTH 1920 0
DWIDTH 16 0
BBX 16 18 0 0
BITMAP
3C00
3C00
F000
F000
0FFC
0FFC
3C0F
3C0F
3C0F
3C0F
3C0F
3C0F
3C0F
3C0F
0F3C
0F3C
3F3F
3F3F
ENDCHAR
STARTCHAR U+0390
ENCODING 912
SWIDTH 1920 0
DWIDTH 16 0
BBX 12 18 2 0
BITMAP
0F00
0F00
0C00
0C00
F0F0
F0F0
0000
0000
FF00
FF00
0F00
0F00
0F00
0F00
0F00
0F00
03F0
03F0
ENDCHAR
STARTCHAR U+0391
ENCODING 913
SWIDTH 1920 0
DWIDTH 16 0
BBX 14 14 2 0
BITMAP
0300
0300
0300
0300
0FC0
0FC0
0CC0
0CC0
3FF0
3FF0
3030
3030
F03C
F03C
ENDCHAR
STARTCHAR U+0392
ENCODING 914
SWIDTH 1920 0
DWIDTH 16 0
BBX 12 14 2 0
BITMAP
FFC0
FFC0
F0F0
F0F0
F0F0
F0F0
F3C0
F3C0
F0F0
F0F0
F0F0
F0F0
F3C0
F3C0
ENDCHAR
STARTCHAR U+0393
ENCODING 915
SWIDTH 1920 0
DWIDTH 16 0
BBX 12 14 2 0
BITMAP
FFF0
FFF0
F030
F030
F000
F000
F000
F000
F000
F000
F000
F000
F000
F000
ENDCHAR
STARTCHAR U+0394
ENCODING 916
SWIDTH 1920 0
DWIDTH 16 0
BBX 14 14 2 0
BITMAP
0300
0300
0300
0300
0FC0
0FC0
0CC0
0CC0
3CF0
3CF0
3030
3030
FFFC
FFFC
ENDCHAR
STARTCHAR U+0395
ENCODING 917
SWIDTH 1920 0
DWIDTH 16 0
BBX 12 14 2 0
BITMAP
FFF0
FFF0
F030
F030
F000
F000
FF00
FF00
F000
F000
F030
F030
FFF0
FFF0
ENDCHAR
STARTCHAR U+0396
ENCODING 918
SWIDTH 1920 0
DWIDTH 16 0
BBX 12 14 2 0
BITMAP
FFF0
FFF0
C0F0
C0F0
03C0
03C0
0F00
0F00
3C00
3C00
F030
F030
FFF0
FFF0
ENDCHAR
STARTCHAR U+0397
ENCODING 919
SWIDTH 1920 0
DWIDTH 16 0
BBX 12 14 2 0
BITMAP
F0F0
F0F0
F0F0
F0F0
F0F0
F0F0
FFF0
FFF0
F0F0
F0F0
F0F0
F0F0
F0F0
F0F0
ENDCHAR
STARTCHAR U+0398
ENCODING 920
SWIDTH 1920 0
DWIDTH 16 0
BBX 14 14 2 0
BITMAP
3FF0
3FF0
F03C
F03C
F03C
F03C
FFFC
FFFC
F03C
F03C
F03C
F03C
3FF0
3FF0
ENDCHAR
STARTCHAR U+0399
ENCODING 921
SWIDTH 1920 0
DWIDTH 16 0
BBX 12 14 2 0
BITMAP
FFF0
FFF0
0F00
0F00
0F00
0F00
0F00
0F00
0F00
0F00
0F00
0F00
FFF0
FFF0
ENDCHAR
STARTCHAR U+039A
ENCODING 922
SWIDTH 1920 0
DWIDTH 16 0
BBX 12 14 2 0
BITMAP
F0F0
F0F0
F0F0
F0F0
F0C0
F0C0
F300
F300
FCC0
FCC0
F0F0
F0F0
F0F0
F0F0
ENDCHAR
STARTCHAR U+039B
ENCODING 923
SWIDTH 1920 0
DWIDTH 16 0
BBX 14 14 2 0
BITMAP
0300
0300
0300
0300
0FC0
0FC0
0CC0
0CC0
3CF0
3CF0
3030
3030
F03C
F03C
ENDCHAR
STARTCHAR U+039C
ENCODING 924
SWIDTH 1920 0
DWIDTH 16 0
BBX 14 14 2 0
BITMAP
C00C
C00C
F03C
F03C
FCFC
FCFC
F33C
F33C
F03C
F03C
F03C
F03C
F03C
F03C
ENDCHAR
STARTCHAR U+039D
ENCODING 925
SWIDTH 1920 0
DWIDTH 16 0
BBX 12 14 2 0
BITMAP
C0F0
C0F0
F0F0
F0F0
FCF0
FCF0
F3F0
F3F0
F0F0
F0F0
F0F0
F0F0
F0F0
F0F0
ENDCHAR
STARTCHAR U+039E
ENCODING 926
SWIDTH 1920 0
DWIDTH 16 0
BBX 12 14 2 0
BITMAP
FFF0
FFF0
0000
0000
0000
0000
3FC0
3FC0
0000
0000
0000
0000
FFF0
FFF0
ENDCHAR
STARTCHAR U+039F
ENCODING 927
SWIDTH 1920 0
DWIDTH 16 0
BBX 12 14 2 0
BITMAP
3FC0
3FC0
F0F0
F0F0
F0F0
F0F0
F0F0
F0F0
F0F0
F0F0
F0F0
F0F0
3FC0
3FC0
ENDCHAR
STARTCHAR U+03A0
ENCODING 928
SWIDTH 1920 0
DWIDTH 16 0
BBX 14 14 2 0
BITMAP
FFFC
FFFC
3CF0
3CF0
3CF0
3CF0
3CF0
3CF0
3CF0
3CF0
3CF0
3CF0
3CF0
3CF0
ENDCHAR
STARTCHAR U+03A1
ENCODING 929
SWIDTH 1920 0
DWIDTH 16 0
BBX 12 14 2 0
BITMAP
FFC0
FFC0
F0F0
F0F0
F0F0
F0F0
F3C0
F3C0
F000
F000
F000
F000
F000
F000
ENDCHAR
STARTCHAR U+03A3
ENCODING 931
SWIDTH 1920 0
DWIDTH 16 0
BBX 12 14 2 0
BITMAP
FFF0
FFF0
F030
F030
3C00
3C00
0F00
0F00
3C00
3C00
F030
F030
FFF0
FFF0
ENDCHAR
STARTCHAR U+03A4
ENCODING 932
SWIDTH 1920 0
DWIDTH 16 0
BBX 12 14 2 0
BITMAP
FFF0
FFF0
0F00
0F00
0F00
0F00
0F00
0F00
0F00
0F00
0F00
0F00
0F00
0F00
ENDCHAR
STARTCHAR U+03A5
ENCODING 933
SWIDTH 1920 0
DWIDTH 16 0
BBX 12 14 2 0
BITMAP
F0F0
F0F0
F0F0
F0F0
30C0
30C0
0F00
0F00
0F00
0F00
0F00
0F00
0F00
0F00
ENDCHAR
STARTCHAR U+03A6
ENCODING 934
SWIDTH 1920 0
DWIDTH 16 0
BBX 14 14 2 0
BITMAP
0300
0300
3FF0
3FF0
F33C
F33C
F33C
F33C
3FF0
3FF0
0300
0300
0300
0300
ENDCHAR
STARTCHAR U+03A7
ENCODING 935
SWIDTH 1920 0
DWIDTH 16 0
BBX 12 14 2 0
BITMAP
F0F0
F0F0
F0F0
F0F0
30C0
30C0
0F00
0F00
30C0
30C0
F0F0
F0F0
F0F0
F0F0
ENDCHAR
STARTCHAR U+03A8
ENCODING 936
SWIDTH 1920 0
DWIDTH 16 0
BBX 14 14 2 0
BITMAP
F33C
F33C
F33C
F33C
F33C
F33C
F33C
F33C
3FF0
3FF0
0300
0300
0300
0300
ENDCHAR
STARTCHAR U+03A9
ENCODING 937
SWIDTH 1920 0
DWIDTH 16 0
BBX 14 14 2 0
BITMAP
3FF0
3FF0
F03C
F03C
F03C
F03C
F03C
F03C
F03C
F03C
3CF0
3CF0
FCFC
FCFC
ENDCHAR
STARTCHAR U+03AA
ENCODING 938
SWIDTH 1920 0
DWIDTH 16 0
BBX 12 20 2 0
BITMAP
F0F0
F0F0
F0F0
F0F0
0000
0000
FFF0
FFF0
0F00
0F00
0F00
0F00
0F00
0F00
0F00
0F00
0F00
0F00
FFF0
FFF0
ENDCHAR
STARTCHAR U+03AB
ENCODING 939
SWIDTH 1920 0
DWIDTH 16 0
BBX 12 20 2 0
BITMAP
F0F0
F0F0
F0F0
F0F0
0000
0000
F0F0
F0F0
F0F0
F0F0
30C0
30C0
0F00
0F00
0F00
0F00
0F00
0F00
0F00
0F00
ENDCHAR
STARTCHAR U+03AC
ENCODING 940
SWIDTH 1920 0
DWIDTH 16 0
BBX 12 16 2 0
BITMAP
03C0
03C0
0F00
0F00
0000
0000
3CF0
3CF0
F3C0
F3C0
F3C0
F3C0
F3C0
F3C0
3CF0
3CF0
ENDCHAR
STARTCHAR U+03AD
ENCODING 941
SWIDTH 1920 0
DWIDTH 16 0
BBX 12 16 2 0
BITMAP
03C0
03C0
0F00
0F00
0000
0000
3FC0
3FC0
F000
F000
3C00
3C00
F0F0
F0F0
3FC0
3FC0
ENDCHAR
STARTCHAR U+03AE
ENCODING 942
SWIDTH 1920 0
DWIDTH 16 0
BBX 12 20 2 -4
BITMAP
03C0
03C0
0F00
0F00
0000
0000
F3C0
F3C0
FCF0
FCF0
F0F0
F0F0
F0F0
F0F0
F0F0
F0F0
00F0
00F0
00F0
00F0
ENDCHAR
STARTCHAR U+03AF
ENCODING 943
SWIDTH 1920 0
DWIDTH 16 0
BBX 12 16 2 0
BITMAP
03C0
03C0
0F00
0F00
0000
0000
FF00
FF00
0F00
0F00
0F00
0F00
0F00
0F00
03F0
03F0
ENDCHAR
STARTCHAR U+03B0
ENCODING 944
SWIDTH 1920 0
DWIDTH 16 0
BBX 12 18 2 0
BITMAP
0F00
0F00
0C00
0C00
F0F0
F0F0
0000
0000
F3C0
F3C0
F0F0
F0F0
F0F0
F0F0
F0F0
F0F0
3FC0
3FC0
ENDCHAR
STARTCHAR U+03B1
ENCODING 945
SWIDTH 1920 0
DWIDTH 16 0
BBX 12 10 2 0
BITMAP
3CF0
3CF0
F3C0
F3C0
F3C0
F3C0
F3C0
F3C0
3CF0
3CF0
ENDCHAR
STARTCHAR U+03B2
ENCODING 946
SWIDTH 1920 0
DWIDTH 16 0
BBX 12 18 2 -4
BITMAP
3FC0
3FC0
F0F0
F0F0
F0F0
F0F0
F3C0
F3C0
F0F0
F0F0
F0F0
F0F0
F3C0
F3C0
F000
F000
F000
F000
ENDCHAR
STARTCHAR U+03B3
ENCODING 947
SWIDTH 1920 0
DWIDTH 16 0
BBX 12 14 2 -4
BITMAP
F0F0
F0F0
3CF0
3CF0
3CC0
3CC0
0F00
0F00
0F00
0F00
0F00
0F00
0F00
0F00
ENDCHAR
STARTCHAR U+03B4
ENCODING 948
SWIDTH 1920 0
DWIDTH 16 0
BBX 12 14 2 0
BITMAP
3FC0
3FC0
F000
F000
3FC0
3FC0
F0F0
F0F0
F0F0
F0F0
F0F0
F0F0
3FC0
3FC0
ENDCHAR
STARTCHAR U+03B5
ENCODING 949
SWIDTH 1920 0
DWIDTH 16 0
BBX 12 10 2 0
BITMAP
3FC0
3FC0
F000
F000
3C00
3C00
F0F0
F0F0
3FC0
3FC0
ENDCHAR
STARTCHAR U+03B6
ENCODING 950
SWIDTH 1920 0
DWIDTH 16 0
BBX 12 20 2 -4
BITMAP
F000
F000
3FF0
3FF0
03C0
03C0
0F00
0F00
3C00
3C00
F000
F000
F000
F000
3FC0
3FC0
00F0
00F0
03C0
03C0
ENDCHAR
STARTCHAR U+03B7
ENCODING 951
SWIDTH 1920 0
DWIDTH 16 0
BBX 12 14 2 -4
BITMAP
F3C0
F3C0
FCF0
FCF0
F0F0
F0F0
F0F0
F0F0
F0F0
F0F0
00F0
00F0
00F0
00F0
ENDCHAR
STARTCHAR U+03B8
ENCODING 952
SWIDTH 1920 0
DWIDTH 16 0
BBX 12 14 2 0
BITMAP
3FC0
3FC0
F0F0
F0F0
F0F0
F0F0
FFF0
FFF0
F0F0
F0F0
F0F0
F0F0
3FC0
3FC0
ENDCHAR
STARTCHAR U+03B9
ENCODING 953
SWIDTH 1920 0
DWIDTH 16 0
BBX 12 10 2 0
BITMAP
FF00
FF00
0F00
0F00
0F00
0F00
0F00
0F00
03F0
03F0
ENDCHAR
STARTCHAR U+03BA
ENCODING 954
SWIDTH 1920 0
DWIDTH 16 0
BBX 12 10 2 0
BITMAP
F0F0
F0F0
F3C0
F3C0
FF00
FF00
F3C0
F3C0
F0F0
F0F0
ENDCHAR
STARTCHAR U+03BB
ENCODING 955
SWIDTH 1920 0
DWIDTH 16 0
BBX 14 14 2 0
BITMAP
3F00
3F00
03C0
03C0
03C0
03C0
0FC0
0FC0
3FC0
3FC0
F3C0
F3C0
F0FC
F0FC
ENDCHAR
STARTCHAR U+03BC
ENCODING 956
SWIDTH 1920 0
DWIDTH 16 0
BBX 14 14 2 -4
BITMAP
F0F0
F0F0
F0F0
F0F0
F0F0
F0F0
F0F0
F0F0
FF3C
FF3C
F000
F000
F000
F000
ENDCHAR
STARTCHAR U+03BD
ENCODING 957
SWIDTH 1920 0
DWIDTH 16 0
BBX 12 10 2 0
BITMAP
F0F0
F0F0
F0F0
F0F0
F0C0
F0C0
3300
3300
0C00
0C00
ENDCHAR
STARTCHAR U+03BE
ENCODING 958
SWIDTH 1920 0
DWIDTH 16 0
BBX 12 20 2 -4
BITMAP
3C00
3C00
0FC0
0FC0
3C00
3C00
3C00
3C00
3FC0
3FC0
F000
F000
F000
F000
3FC0
3FC0
00F0
00F0
03C0
03C0
ENDCHAR
STARTCHAR U+03BF
ENCODING 959
SWIDTH 1920 0
DWIDTH 16 0
BBX 12 10 2 0
BITMAP
3FC0
3FC0
F0F0
F0F0
F0F0
F0F0
F0F0
F0F0
3FC0
3FC0
ENDCHAR
STARTCHAR U+03C0
ENCODING 960
SWIDTH 1920 0
DWIDTH 16 0
BBX 14 10 2 0
BITMAP
FFFC
FFFC
3CF0
3CF0
3CF0
3CF0
3CF0
3CF0
F0FC
F0FC
ENDCHAR
STARTCHAR U+03C1
ENCODING 961
SWIDTH 1920 0
DWIDTH 16 0
BBX 12 14 2 -4
BITMAP
3FC0
3FC0
F0F0
F0F0
F0F0
F0F0
F0F0
F0F0
F3C0
F3C0
F000
F000
F000
F000
ENDCHAR
STARTCHAR U+03C2
ENCODING 962
SWIDTH 1920 0
DWIDTH 16 0
BBX 12 14 2 -4
BITMAP
3FC0
3FC0
F0F0
F0F0
F000
F000
F000
F000
3FC0
3FC0
00F0
00F0
03C0
03C0
ENDCHAR
STARTCHAR U+03C3
ENCODING 963
SWIDTH 1920 0
DWIDTH 16 0
BBX 14 10 2 0
BITMAP
3FFC
3FFC
F0C0
F0C0
F0F0
F0F0
F0F0
F0F0
3FC0
3FC0
ENDCHAR
STARTCHAR U+03C4
ENCODING 964
SWIDTH 1920 0
DWIDTH 16 0
BBX 12 10 2 0
BITMAP
FFF0
FFF0
0F00
0F00
0F00
0F00
0F00
0F00
03C0
03C0
ENDCHAR
STARTCHAR U+03C5
ENCODING 965
SWIDTH 1920 0
DWIDTH 16 0
BBX 12 10 2 0
BITMAP
F3C0
F3C0
F0F0
F0F0
F0F0
F0F0
F0F0
F0F0
3FC0
3FC0
ENDCHAR
STARTCHAR U+03C6
ENCODING 966
SWIDTH 1920 0
DWIDTH 16 0
BBX 14 14 2 -4
BITMAP
03F0
03F0
CF3C
CF3C
CF3C
CF3C
CF3C
CF3C
3FF0
3FF0
0F00
0F00
0F00
0F00
ENDCHAR
STARTCHAR U+03C7
ENCODING 967
SWIDTH 1920 0
DWIDTH 16 0
BBX 12 14 2 -4
BITMAP
F0F0
F0F0
3CF0
3CF0
0FC0
0FC0
0F00
0F00
3F00
3F00
F3C0
F3C0
F0F0
F0F0
ENDCHAR
STARTCHAR U+03C8
ENCODING 968
SWIDTH 1920 0
DWIDTH 16 0
BBX 14 14 2 -4
BITMAP
F33C
F33C
F33C
F33C
F33C
F33C
F33C
F33C
3FF0
3FF0
0300
0300
0300
0300
ENDCHAR
STARTCHAR U+03C9
ENCODING 969
SWIDTH 1920 0
DWIDTH 16 0
BBX 14 10 2 0
BITMAP
3CF0
3CF0
F03C
F03C
F33C
F33C
F33C
F33C
3CF0
3CF0
ENDCHAR
STARTCHAR U+03CA
ENCODING 970
SWIDTH 1920 0
DWIDTH 16 0
BBX 12 16 2 0
BITMAP
F0F0
F0F0
F0F0
F0F0
0000
0000
FF00
FF00
0F00
0F00
0F00
0F00
0F00
0F00
03F0
03F0
ENDCHAR
STARTCHAR U+03CB
ENCODING 971
SWIDTH 1920 0
DWIDTH 16 0
BBX 12 16 2 0
BITMAP
F0F0
F0F0
F0F0
F0F0
0000
0000
F3C0
F3C0
F0F0
F0F0
F0F0
F0F0
F0F0
F0F0
3FC0
3FC0
ENDCHAR
STARTCHAR U+03CC
ENCODING 972
SWIDTH 1920 0
DWIDTH 16 0
BBX 12 16 2 0
BITMAP
03C0
03C0
0F00
0F00
0000
0000
3FC0
3FC0
F0F0
F0F0
F0F0
F0F0
F0F0
F0F0
3FC0
3FC0
ENDCHAR
STARTCHAR U+03CD
ENCODING 973
SWIDTH 1920 0
DWIDTH 16 0
BBX 12 16 2 0
BITMAP
03C0
03C0
0F00
0F00
0000
0000
F3C0
F3C0
F0F0
F0F0
F0F0
F0F0
F0F0
F0F0
3FC0
3FC0
ENDCHAR
STARTCHAR U+03CE
ENCODING 974
SWIDTH 1920 0
DWIDTH 16 0
BBX 14 16 2 0
BITMAP
03C0
03C0
0F00
0F00
0000
0000
3CF0
3CF0
F03C
F03C
F33C
F33C
F33C
F33C
3CF0
3CF0
ENDCHAR
STARTCHAR U+03FC
ENCODING 1020
SWIDTH 1920 0
DWIDTH 16 0
BBX 14 14 0 -4
BITMAP
0FF0
0FF0
3C3C
3C3C
3C3C
3C3C
3CF0
3CF0
3C00
3C00
FFC0
FFC0
3C00
3C00
ENDCHAR
STARTCHAR U+0400
ENCODING 1024
SWIDTH 1920 0
DWIDTH 16 0
BBX 12 20 2 0
BITMAP
3C00
3C00
0F00
0F00
0000
0000
FFF0
FFF0
F030
F030
F000
F000
FF00
FF00
F000
F000
F030
F030
FFF0
FFF0
ENDCHAR
STARTCHAR U+0401
ENCODING 1025
SWIDTH 1920 0
DWIDTH 16 0
BBX 12 20 2 0
BITMAP
F0F0
F0F0
F0F0
F0F0
0000
0000
FFF0
FFF0
F030
F030
F000
F000
FF00
FF00
F000
F000
F030
F030
FFF0
FFF0
ENDCHAR
STARTCHAR U+0402
ENCODING 1026
SWIDTH 1920 0
DWIDTH 16 0
BBX 14 14 0 0
BITMAP
FFC0
FFC0
3C00
3C00
3CF0
3CF0
3F3C
3F3C
3C3C
3C3C
3C3C
3C3C
3CF0
3CF0
ENDCHAR
STARTCHAR U+0403
ENCODING 1027
SWIDTH 1920 0
DWIDTH 16 0
BBX 12 20 2 0
BITMAP
03C0
03C0
0F00
0F00
0000
0000
FFF0
FFF0
F030
F030
F000
F000
F000
F000
F000
F000
F000
F000
F000
F000
ENDCHAR
STARTCHAR U+0404
ENCODING 1028
SWIDTH 1920 0
DWIDTH 16 0
BBX 12 14 2 0
BITMAP
3FC0
3FC0
F0F0
F0F0
F000
F000
FF00
FF00
F000
F000
F0F0
F0F0
3FC0
3FC0
ENDCHAR
STARTCHAR U+0405
ENCODING 1029
SWIDTH 1920 0
DWIDTH 16 0
BBX 12 14 2 0
BITMAP
3FC0
3FC0
F0F0
F0F0
F000
F000
3FC0
3FC0
00F0
00F0
F0F0
F0F0
3FC0
3FC0
ENDCHAR
STARTCHAR U+0406
ENCODING 1030
SWIDTH 1920 0
DWIDTH 16 0
BBX 12 14 2 0
BITMAP
FFF0
FFF0
0F00
0F00
0F00
0F00
0F00
0F00
0F00
0F00
0F00
0F00
FFF0
FFF0
ENDCHAR
STARTCHAR U+0407
ENCODING 1031
SWIDTH 1920 0
DWIDTH 16 0
BBX 12 20 2 0
BITMAP
F0F0
F0F0
F0F0
F0F0
0000
0000
FFF0
FFF0
0F00
0F00
0F00
0F00
0F00
0F00
0F00
0F00
0F00
0F00
FFF0
FFF0
ENDCHAR
STARTCHAR U+0408
ENCODING 1032
SWIDTH 1920 0
DWIDTH 16 0
BBX 12 14 2 0
BITMAP
3FF0
3FF0
03C0
03C0
03C0
03C0
03C0
03C0
03C0
03C0
F3C0
F3C0
3F00
3F00
ENDCHAR
STARTCHAR U+0409
ENCODING 1033
SWIDTH 1920 0
DWIDTH 16 0
BBX 16 14 0 0
BITMAP
3FF0
3FF0
3CF0
3CF0
3CF0
3CF0
3CFC
3CFC
3CF3
3CF3
3CF3
3CF3
F0FC
F0FC
ENDCHAR
STARTCHAR U+040A
ENCODING 1034
SWIDTH 1920 0
DWIDTH 16 0
BBX 14 14 2 0
BITMAP
F3C0
F3C0
F3C0
F3C0
F3C0
F3C0
FFF0
FFF0
F3CC
F3CC
F3CC
F3CC
F3F0
F3F0
ENDCHAR
STARTCHAR U+040B
ENCODING 1035
SWIDTH 1920 0
DWIDTH 16 0
BBX 14 14 0 0
BITMAP
FFC0
FFC0
3C00
3C00
3CF0
3CF0
3F3C
3F3C
3C3C
3C3C
3C3C
3C3C
3C3C
3C3C
ENDCHAR
STARTCHAR U+040C
ENCODING 1036
SWIDTH 1920 0
DWIDTH 16 0
BBX 12 20 2 0
BITMAP
03C0
03C0
0F00
0F00
0000
0000
F0F0
F0F0
F3C0
F3C0
F3C0
F3C0
FF00
FF00
F3C0
F3C0
F3C0
F3C0
F0F0
F0F0
ENDCHAR
STARTCHAR U+040D
ENCODING 1037
SWIDTH 1920 0
DWIDTH 16 0
BBX 12 20 2 0
BITMAP
3C00
3C00
0F00
0F00
0000
0000
F0F0
F0F0
F0F0
F0F0
F3F0
F3F0
FFF0
FFF0
FCF0
FCF0
F0F0
F0F0
F0F0
F0F0
ENDCHAR
STARTCHAR U+040E
ENCODING 1038
SWIDTH 1920 0
DWIDTH 16 0
BBX 12 20 2 0
BITMAP
F0F0
F0F0
3FC0
3FC0
0000
0000
F0F0
F0F0
F0F0
F0F0
F0F0
F0F0
30F0
30F0
0CC0
0CC0
0300
0300
3C00
3C00
ENDCHAR
STARTCHAR U+040F
ENCODING 1039
SWIDTH 1920 0
DWIDTH 16 0
BBX 14 18 2 -4
BITMAP
F03C
F03C
F03C
F03C
F03C
F03C
F03C
F03C
F03C
F03C
F03C
F03C
FFFC
FFFC
0300
0300
0300
0300
ENDCHAR
STARTCHAR U+0410
ENCODING 1040
SWIDTH 1920 0
DWIDTH 16 0
BBX 12 14 2 0
BITMAP
0300
0300
0CC0
0CC0
30F0
30F0
FFF0
FFF0
F0F0
F0F0
F0F0
F0F0
F0F0
F0F0
ENDCHAR
STARTCHAR U+0411
ENCODING 1041
SWIDTH 1920 0
DWIDTH 16 0
BBX 12 14 2 0
BITMAP
FFC0
FFC0
F0C0
F0C0
F000
F000
FFC0
FFC0
F0F0
F0F0
F0F0
F0F0
FFC0
FFC0
ENDCHAR
STARTCHAR U+0412
ENCODING 1042
SWIDTH 1920 0
DWIDTH 16 0
BBX 12 14 2 0
BITMAP
FFC0
FFC0
F0F0
F0F0
F0F0
F0F0
FFC0
FFC0
F0F0
F0F0
F0F0
F0F0
FFC0
FFC0
ENDCHAR
STARTCHAR U+0413
ENCODING 1043
SWIDTH 1920 0
DWIDTH 16 0
BBX 12 14 2 0
BITMAP
FFF0
FFF0
F030
F030
F000
F000
F000
F000
F000
F000
F000
F000
F000
F000
ENDCHAR
STARTCHAR U+0414
ENCODING 1044
SWIDTH 1920 0
DWIDTH 16 0
BBX 14 18 2 -4
BITMAP
3FF0
3FF0
3CF0
3CF0
3CF0
3CF0
3CF0
3CF0
3CF0
3CF0
F0F0
F0F0
FFFC
FFFC
C00C
C00C
C00C
C00C
ENDCHAR
STARTCHAR U+0415
ENCODING 1045
SWIDTH 1920 0
DWIDTH 16 0
BBX 12 14 2 0
BITMAP
FFF0
FFF0
F030
F030
F000
F000
FF00
FF00
F000
F000
F030
F030
FFF0
FFF0
ENDCHAR
STARTCHAR U+0416
ENCODING 1046
SWIDTH 1920 0
DWIDTH 16 0
BBX 14 14 2 0
BITMAP
F33C
F33C
F33C
F33C
3330
3330
0FC0
0FC0
3330
3330
F33C
F33C
F33C
F33C
ENDCHAR
STARTCHAR U+0417
ENCODING 1047
SWIDTH 1920 0
DWIDTH 16 0
BBX 12 14 2 0
BITMAP
3FC0
3FC0
30F0
30F0
00F0
00F0
0FC0
0FC0
00F0
00F0
F0F0
F0F0
3FC0
3FC0
ENDCHAR
STARTCHAR U+0418
ENCODING 1048
SWIDTH 1920 0
DWIDTH 16 0
BBX 12 14 2 0
BITMAP
F0F0
F0F0
F0F0
F0F0
F3F0
F3F0
FFF0
FFF0
FCF0
FCF0
F0F0
F0F0
F0F0
F0F0
ENDCHAR
STARTCHAR U+0419
ENCODING 1049
SWIDTH 1920 0
DWIDTH 16 0
BBX 12 20 2 0
BITMAP
F0F0
F0F0
3FC0
3FC0
0000
0000
F0F0
F0F0
F0F0
F0F0
F3F0
F3F0
FFF0
FFF0
FCF0
FCF0
F0F0
F0F0
F0F0
F0F0
ENDCHAR
STARTCHAR U+041A
ENCODING 1050
SWIDTH 1920 0
DWIDTH 16 0
BBX 12 14 2 0
BITMAP
F0F0
F0F0
F3C0
F3C0
F3C0
F3C0
FF00
FF00
F3C0
F3C0
F3C0
F3C0
F0F0
F0F0
ENDCHAR
STARTCHAR U+041B
ENCODING 1051
SWIDTH 1920 0
DWIDTH 16 0
BBX 14 14 0 0
BITMAP
3FFC
3FFC
3C3C
3C3C
3C3C
3C3C
3C3C
3C3C
3C3C
3C3C
3C3C
3C3C
F03C
F03C
ENDCHAR
STARTCHAR U+041C
ENCODING 1052
SWIDTH 1920 0
DWIDTH 16 0
BBX 14 14 2 0
BITMAP
C00C
C00C
F03C
F03C
FCFC
FCFC
F33C
F33C
F03C
F03C
F03C
F03C
F03C
F03C
ENDCHAR
STARTCHAR U+041D
ENCODING 1053
SWIDTH 1920 0
DWIDTH 16 0
BBX 12 14 2 0
BITMAP
F0F0
F0F0
F0F0
F0F0
F0F0
F0F0
FFF0
FFF0
F0F0
F0F0
F0F0
F0F0
F0F0
F0F0
ENDCHAR
STARTCHAR U+041E
ENCODING 1054
SWIDTH 1920 0
DWIDTH 16 0
BBX 12 14 2 0
BITMAP
3FC0
3FC0
F0F0
F0F0
F0F0
F0F0
F0F0
F0F0
F0F0
F0F0
F0F0
F0F0
3FC0
3FC0
ENDCHAR
STARTCHAR U+041F
ENCODING 1055
SWIDTH 1920 0
DWIDTH 16 0
BBX 12 14 2 0
BITMAP
FFF0
FFF0
F0F0
F0F0
F0F0
F0F0
F0F0
F0F0
F0F0
F0F0
F0F0
F0F0
F0F0
F0F0
ENDCHAR
STARTCHAR U+0420
ENCODING 1056
SWIDTH 1920 0
DWIDTH 16 0
BBX 12 14 2 0
BITMAP
FFC0
FFC0
F0F0
F0F0
F0F0
F0F0
FFC0
FFC0
F000
F000
F000
F000
F000
F000
ENDCHAR
STARTCHAR U+0421
ENCODING 1057
SWIDTH 1920 0
DWIDTH 16 0
BBX 12 14 2 0
BITMAP
3FC0
3FC0
F0F0
F0F0
F000
F000
F000
F000
F000
F000
F0F0
F0F0
3FC0
3FC0
ENDCHAR
STARTCHAR U+0422
ENCODING 1058
SWIDTH 1920 0
DWIDTH 16 0
BBX 12 14 2 0
BITMAP
FFF0
FFF0
0F00
0F00
0F00
0F00
0F00
0F00
0F00
0F00
0F00
0F00
0F00
0F00
ENDCHAR
STARTCHAR U+0423
ENCODING 1059
SWIDTH 1920 0
DWIDTH 16 0
BBX 12 14 2 0
BITMAP
F0F0
F0F0
F0F0
F0F0
F0F0
F0F0
30F0
30F0
0CC0
0CC0
0300
0300
3C00
3C00
ENDCHAR
STARTCHAR U+0424
ENCODING 1060
SWIDTH 1920 0
DWIDTH 16 0
BBX 14 14 2 0
BITMAP
0300
0300
3FF0
3FF0
F33C
F33C
F33C
F33C
3FF0
3FF0
0300
0300
0300
0300
ENDCHAR
STARTCHAR U+0425
ENCODING 1061
SWIDTH 1920 0
DWIDTH 16 0
BBX 12 14 2 0
BITMAP
F0F0
F0F0
F0F0
F0F0
30C0
30C0
0F00
0F00
30C0
30C0
F0F0
F0F0
F0F0
F0F0
ENDCHAR
STARTCHAR U+0426
ENCODING 1062
SWIDTH 1920 0
DWIDTH 16 0
BBX 14 18 2 -4
BITMAP
F0F0
F0F0
F0F0
F0F0
F0F0
F0F0
F0F0
F0F0
F0F0
F0F0
F0F0
F0F0
FFFC
FFFC
000C
000C
000C
000C
ENDCHAR
STARTCHAR U+0427
ENCODING 1063
SWIDTH 1920 0
DWIDTH 16 0
BBX 12 14 2 0
BITMAP
F0F0
F0F0
F0F0
F0F0
F0F0
F0F0
F3F0
F3F0
3CF0
3CF0
00F0
00F0
00F0
00F0
ENDCHAR
STARTCHAR U+0428
ENCODING 1064
SWIDTH 1920 0
DWIDTH 16 0
BBX 14 14 2 0
BITMAP
F33C
F33C
F33C
F33C
F33C
F33C
F33C
F33C
F33C
F33C
F33C
F33C
FFFC
FFFC
ENDCHAR
STARTCHAR U+0429
ENCODING 1065
SWIDTH 1920 0
DWIDTH 16 0
BBX 14 18 2 -4
BITMAP
F330
F330
F330
F330
F330
F330
F330
F330
F330
F330
F330
F330
FFFC
FFFC
000C
000C
000C
000C
ENDCHAR
STARTCHAR U+042A
ENCODING 1066
SWIDTH 1920 0
DWIDTH 16 0
BBX 14 14 0 0
BITMAP
FF00
FF00
0F00
0F00
0F00
0F00
0FF0
0FF0
0F3C
0F3C
0F3C
0F3C
0FF0
0FF0
ENDCHAR
STARTCHAR U+042B
ENCODING 1067
SWIDTH 1920 0
DWIDTH 16 0
BBX 12 14 2 0
BITMAP
F0F0
F0F0
F0F0
F0F0
F0F0
F0F0
FCF0
FCF0
F3F0
F3F0
F3F0
F3F0
FCF0
FCF0
ENDCHAR
STARTCHAR U+042C
ENCODING 1068
SWIDTH 1920 0
DWIDTH 16 0
BBX 12 14 2 0
BITMAP
F000
F000
F000
F000
F000
F000
FFC0
FFC0
F0F0
F0F0
F0F0
F0F0
FFC0
FFC0
ENDCHAR
STARTCHAR U+042D
ENCODING 1069
SWIDTH 1920 0
DWIDTH 16 0
BBX 12 14 2 0
BITMAP
3FC0
3FC0
F0F0
F0F0
00F0
00F0
0FF0
0FF0
00F0
00F0
F0F0
F0F0
3FC0
3FC0
ENDCHAR
STARTCHAR U+042E
ENCODING 1070
SWIDTH 1920 0
DWIDTH 16 0
BBX 14 14 2 0
BITMAP
F0F0
F0F0
F33C
F33C
F33C
F33C
FF3C
FF3C
F33C
F33C
F33C
F33C
F0F0
F0F0
ENDCHAR
STARTCHAR U+042F
ENCODING 1071
SWIDTH 1920 0
DWIDTH 16 0
BBX 12 14 2 0
BITMAP
3FF0
3FF0
F0F0
F0F0
F0F0
F0F0
3FF0
3FF0
3CF0
3CF0
3CF0
3CF0
F0F0
F0F0
ENDCHAR
STARTCHAR U+0430
ENCODING 1072
SWIDTH 1920 0
DWIDTH 16 0
BBX 12 10 2 0
BITMAP
3FC0
3FC0
00F0
00F0
3FF0
3FF0
F0F0
F0F0
3CF0
3CF0
ENDCHAR
STARTCHAR U+0431
ENCODING 1073
SWIDTH 1920 0
DWIDTH 16 0
BBX 12 16 2 0
BITMAP
00F0
00F0
3FC0
3FC0
F000
F000
F3C0
F3C0
F0F0
F0F0
F0F0
F0F0
F0F0
F0F0
3FC0
3FC0
ENDCHAR
STARTCHAR U+0432
ENCODING 1074
SWIDTH 1920 0
DWIDTH 16 0
BBX 12 10 2 0
BITMAP
FFC0
FFC0
F0F0
F0F0
FFC0
FFC0
F0F0
F0F0
FFC0
FFC0
ENDCHAR
STARTCHAR U+0433
ENCODING 1075
SWIDTH 1920 0
DWIDTH 16 0
BBX 12 10 2 0
BITMAP
FFF0
FFF0
F030
F030
F000
F000
F000
F000
F000
F000
ENDCHAR
STARTCHAR U+0434
ENCODING 1076
SWIDTH 1920 0
DWIDTH 16 0
BBX 14 12 2 -2
BITMAP
3FF0
3FF0
3CF0
3CF0
3CF0
3CF0
F0F0
F0F0
FFFC
FFFC
C00C
C00C
ENDCHAR
STARTCHAR U+0435
ENCODING 1077
SWIDTH 1920 0
DWIDTH 16 0
BBX 12 10 2 0
BITMAP
3FC0
3FC0
F0F0
F0F0
FFF0
FFF0
F000
F000
3FC0
3FC0
ENDCHAR
STARTCHAR U+0436
ENCODING 1078
SWIDTH 1920 0
DWIDTH 16 0
BBX 14 10 2 0
BITMAP
F33C
F33C
F33C
F33C
3FF0
3FF0
F33C
F33C
F33C
F33C
ENDCHAR
STARTCHAR U+0437
ENCODING 1079
SWIDTH 1920 0
DWIDTH 16 0
BBX 12 10 2 0
BITMAP
3FC0
3FC0
30F0
30F0
03C0
03C0
F0F0
F0F0
3FC0
3FC0
ENDCHAR
STARTCHAR U+0438
ENCODING 1080
SWIDTH 1920 0
DWIDTH 16 0
BBX 12 10 2 0
BITMAP
F0F0
F0F0
F3F0
F3F0
FFF0
FFF0
FCF0
FCF0
F0F0
F0F0
ENDCHAR
STARTCHAR U+0439
ENCODING 1081
SWIDTH 1920 0
DWIDTH 16 0
BBX 12 16 2 0
BITMAP
F0F0
F0F0
3FC0
3FC0
0000
0000
F0F0
F0F0
F3F0
F3F0
FFF0
FFF0
FCF0
FCF0
F0F0
F0F0
ENDCHAR
STARTCHAR U+043A
ENCODING 1082
SWIDTH 1920 0
DWIDTH 16 0
BBX 12 10 2 0
BITMAP
F0F0
F0F0
F3C0
F3C0
FF00
FF00
F3C0
F3C0
F0F0
F0F0
ENDCHAR
STARTCHAR U+043B
ENCODING 1083
SWIDTH 1920 0
DWIDTH 16 0
BBX 14 10 0 0
BITMAP
3FFC
3FFC
3C3C
3C3C
3C3C
3C3C
3C3C
3C3C
F03C
F03C
ENDCHAR
STARTCHAR U+043C
ENCODING 1084
SWIDTH 1920 0
DWIDTH 16 0
BBX 12 10 2 0
BITMAP
C030
C030
F0F0
F0F0
FFF0
FFF0
F330
F330
F030
F030
ENDCHAR
STARTCHAR U+043D
ENCODING 1085
SWIDTH 1920 0
DWIDTH 16 0
BBX 12 10 2 0
BITMAP
F0F0
F0F0
F0F0
F0F0
FFF0
FFF0
F0F0
F0F0
F0F0
F0F0
ENDCHAR
STARTCHAR U+043E
ENCODING 1086
SWIDTH 1920 0
DWIDTH 16 0
BBX 12 10 2 0
BITMAP
3FC0
3FC0
F0F0
F0F0
F0F0
F0F0
F0F0
F0F0
3FC0
3FC0
ENDCHAR
STARTCHAR U+043F
ENCODING 1087
SWIDTH 1920 0
DWIDTH 16 0
BBX 12 10 2 0
BITMAP
FFF0
FFF0
F0F0
F0F0
F0F0
F0F0
F0F0
F0F0
F0F0
F0F0
ENDCHAR
STARTCHAR U+0440
ENCODING 1088
SWIDTH 1920 0
DWIDTH 16 0
BBX 12 14 2 -4
BITMAP
F3C0
F3C0
FCF0
FCF0
F0F0
F0F0
F0F0
F0F0
F3C0
F3C0
F000
F000
F000
F000
ENDCHAR
STARTCHAR U+0441
ENCODING 1089
SWIDTH 1920 0
DWIDTH 16 0
BBX 12 10 2 0
BITMAP
3FC0
3FC0
F0C0
F0C0
F000
F000
F0F0
F0F0
3FC0
3FC0
ENDCHAR
STARTCHAR U+0442
ENCODING 1090
SWIDTH 1920 0
DWIDTH 16 0
BBX 12 10 2 0
BITMAP
FFF0
FFF0
0F00
0F00
0F00
0F00
0F00
0F00
0F00
0F00
ENDCHAR
STARTCHAR U+0443
ENCODING 1091
SWIDTH 1920 0
DWIDTH 16 0
BBX 12 14 2 -4
BITMAP
F0F0
F0F0
F0F0
F0F0
F0F0
F0F0
30F0
30F0
0CC0
0CC0
0300
0300
3C00
3C00
ENDCHAR
STARTCHAR U+0444
ENCODING 1092
SWIDTH 1920 0
DWIDTH 16 0
BBX 14 18 2 -4
BITMAP
0300
0300
0300
0300
3FF0
3FF0
F33C
F33C
F33C
F33C
F33C
F33C
3FF0
3FF0
0300
0300
0300
0300
ENDCHAR
STARTCHAR U+0445
ENCODING 1093
SWIDTH 1920 0
DWIDTH 16 0
BBX 12 10 2 0
BITMAP
F0F0
F0F0
F0F0
F0F0
3FC0
3FC0
F0F0
F0F0
F0F0
F0F0
ENDCHAR
STARTCHAR U+0446
ENCODING 1094
SWIDTH 1920 0
DWIDTH 16 0
BBX 14 12 2 -2
BITMAP
F0F0
F0F0
F0F0
F0F0
F0F0
F0F0
F0F0
F0F0
FFFC
FFFC
000C
000C
ENDCHAR
STARTCHAR U+0447
ENCODING 1095
SWIDTH 1920 0
DWIDTH 16 0
BBX 12 10 2 0
BITMAP
F0F0
F0F0
F0F0
F0F0
F3F0
F3F0
3CF0
3CF0
00F0
00F0
ENDCHAR
STARTCHAR U+0448
ENCODING 1096
SWIDTH 1920 0
DWIDTH 16 0
BBX 12 10 2 0
BITMAP
F330
F330
F330
F330
F330
F330
F330
F330
FFF0
FFF0
ENDCHAR
STARTCHAR U+0449
ENCODING 1097
SWIDTH 1920 0
DWIDTH 16 0
BBX 14 12 2 -2
BITMAP
F330
F330
F330
F330
F330
F330
F330
F330
FFFC
FFFC
000C
000C
ENDCHAR
STARTCHAR U+044A
ENCODING 1098
SWIDTH 1920 0
DWIDTH 16 0
BBX 14 10 0 0
BITMAP
FF00
FF00
0F00
0F00
0FF0
0FF0
0F3C
0F3C
0FF0
0FF0
ENDCHAR
STARTCHAR U+044B
ENCODING 1099
SWIDTH 1920 0
DWIDTH 16 0
BBX 12 10 2 0
BITMAP
F0F0
F0F0
F0F0
F0F0
FCF0
FCF0
F3F0
F3F0
FCF0
FCF0
ENDCHAR
STARTCHAR U+044C
ENCODING 1100
SWIDTH 1920 0
DWIDTH 16 0
BBX 12 10 2 0
BITMAP
F000
F000
F000
F000
FFC0
FFC0
F0F0
F0F0
FFC0
FFC0
ENDCHAR
STARTCHAR U+044D
ENCODING 1101
SWIDTH 1920 0
DWIDTH 16 0
BBX 12 10 2 0
BITMAP
3FC0
3FC0
30F0
30F0
03F0
03F0
F0F0
F0F0
3FC0
3FC0
ENDCHAR
STARTCHAR U+044E
ENCODING 1102
SWIDTH 1920 0
DWIDTH 16 0
BBX 14 10 2 0
BITMAP
F0F0
F0F0
F33C
F33C
FF3C
FF3C
F33C
F33C
F0F0
F0F0
ENDCHAR
STARTCHAR U+044F
ENCODING 1103
SWIDTH 1920 0
DWIDTH 16 0
BBX 12 10 2 0
BITMAP
3FF0
3FF0
F0F0
F0F0
3FF0
3FF0
3CF0
3CF0
F0F0
F0F0
ENDCHAR
STARTCHAR U+0450
ENCODING 1104
SWIDTH 1920 0
DWIDTH 16 0
BBX 12 16 2 0
BITMAP
3C00
3C00
0F00
0F00
0000
0000
3FC0
3FC0
F0F0
F0F0
FFF0
FFF0
F000
F000
3FC0
3FC0
ENDCHAR
STARTCHAR U+0451
ENCODING 1105
SWIDTH 1920 0
DWIDTH 16 0
BBX 12 16 2 0
BITMAP
F0F0
F0F0
F0F0
F0F0
0000
0000
3FC0
3FC0
F0F0
F0F0
FFF0
FFF0
F000
F000
3FC0
3FC0
ENDCHAR
STARTCHAR U+0452
ENCODING 1106
SWIDTH 1920 0
DWIDTH 16 0
BBX 14 20 0 -4
BITMAP
3C00
3C00
FFC0
FFC0
3C00
3C00
3CF0
3CF0
3F3C
3F3C
3C3C
3C3C
3C3C
3C3C
3C3C
3C3C
003C
003C
00F0
00F0
ENDCHAR
STARTCHAR U+0453
ENCODING 1107
SWIDTH 1920 0
DWIDTH 16 0
BBX 12 16 2 0
BITMAP
03C0
03C0
0F00
0F00
0000
0000
FFF0
FFF0
F030
F030
F000
F000
F000
F000
F000
F000
ENDCHAR
STARTCHAR U+0454
ENCODING 1108
SWIDTH 1920 0
DWIDTH 16 0
BBX 12 10 2 0
BITMAP
3FC0
3FC0
F0C0
F0C0
FC00
FC00
F0F0
F0F0
3FC0
3FC0
ENDCHAR
STARTCHAR U+0455
ENCODING 1109
SWIDTH 1920 0
DWIDTH 16 0
BBX 12 10 2 0
BITMAP
3FC0
3FC0
F000
F000
3FC0
3FC0
00F0
00F0
3FC0
3FC0
ENDCHAR
STARTCHAR U+0456
ENCODING 1110
SWIDTH 1920 0
DWIDTH 16 0
BBX 12 16 2 0
BITMAP
0F00
0F00
0F00
0F00
0000
0000
FF00
FF00
0F00
0F00
0F00
0F00
0F00
0F00
FFF0
FFF0
ENDCHAR
STARTCHAR U+0457
ENCODING 1111
SWIDTH 1920 0
DWIDTH 16 0
BBX 12 16 2 0
BITMAP
F0F0
F0F0
F0F0
F0F0
0000
0000
FF00
FF00
0F00
0F00
0F00
0F00
0F00
0F00
FFF0
FFF0
ENDCHAR
STARTCHAR U+0458
ENCODING 1112
SWIDTH 1920 0
DWIDTH 16 0
BBX 10 20 2 -4
BITMAP
03C0
03C0
03C0
03C0
0000
0000
3FC0
3FC0
03C0
03C0
03C0
03C0
03C0
03C0
03C0
03C0
F3C0
F3C0
3F00
3F00
ENDCHAR
STARTCHAR U+0459
ENCODING 1113
SWIDTH 1920 0
DWIDTH 16 0
BBX 16 10 0 0
BITMAP
3FF0
3FF0
3CF0
3CF0
3CFC
3CFC
3CF3
3CF3
F0FC
F0FC
ENDCHAR
STARTCHAR U+045A
ENCODING 1114
SWIDTH 1920 0
DWIDTH 16 0
BBX 14 10 2 0
BITMAP
F3C0
F3C0
F3C0
F3C0
FFF0
FFF0
F3CC
F3CC
F3F0
F3F0
ENDCHAR
STARTCHAR U+045B
ENCODING 1115
SWIDTH 1920 0
DWIDTH 16 0
BBX 14 16 0 0
BITMAP
3C00
3C00
FFC0
FFC0
3C00
3C00
3CF0
3CF0
3F3C
3F3C
3C3C
3C3C
3C3C
3C3C
3C3C
3C3C
ENDCHAR
STARTCHAR U+045C
ENCODING 1116
SWIDTH 1920 0
DWIDTH 16 0
BBX 12 16 2 0
BITMAP
03C0
03C0
0F00
0F00
0000
0000
F0F0
F0F0
F3C0
F3C0
FF00
FF00
F3C0
F3C0
F0F0
F0F0
ENDCHAR
STARTCHAR U+045D
ENCODING 1117
SWIDTH 1920 0
DWIDTH 16 0
BBX 12 16 2 0
BITMAP
3C00
3C00
0F00
0F00
0000
0000
F0F0
F0F0
F3F0
F3F0
FFF0
FFF0
FCF0
FCF0
F0F0
F0F0
ENDCHAR
STARTCHAR U+045E
ENCODING 1118
SWIDTH 1920 0
DWIDTH 16 0
BBX 12 20 2 -4
BITMAP
F0F0
F0F0
3FC0
3FC0
0000
0000
F0F0
F0F0
F0F0
F0F0
F0F0
F0F0
30F0
30F0
0CC0
0CC0
0300
0300
3C00
3C00
ENDCHAR
STARTCHAR U+045F
ENCODING 1119
SWIDTH 1920 0
DWIDTH 16 0
BBX 14 14 2 -4
BITMAP
F03C
F03C
F03C
F03C
F03C
F03C
F03C
F03C
FFFC
FFFC
0300
0300
0300
0300
ENDCHAR
STARTCHAR U+0490
ENCODING 1168
SWIDTH 1920 0
DWIDTH 16 0
BBX 12 16 2 0
BITMAP
0030
0030
FFF0
FFF0
F000
F000
F000
F000
F000
F000
F000
F000
F000
F000
F000
F000
ENDCHAR
STARTCHAR U+0491
ENCODING 1169
SWIDTH 1920 0
DWIDTH 16 0
BBX 12 12 2 0
BITMAP
0030
0030
FFF0
FFF0
F000
F000
F000
F000
F000
F000
F000
F000
ENDCHAR
STARTCHAR U+1DB2
ENCODING 7602
SWIDTH 1920 0
DWIDTH 16 0
BBX 10 12 2 6
BITMAP
0C00
0C00
3F00
3F00
CCC0
CCC0
CCC0
CCC0
3F00
3F00
0C00
0C00
ENDCHAR
STARTCHAR U+1DBF
ENCODING 7615
SWIDTH 1920 0
DWIDTH 16 0
BBX 10 10 2 8
BITMAP
3F00
3F00
F3C0
F3C0
FFC0
FFC0
F3C0
F3C0
3F00
3F00
ENDCHAR
STARTCHAR U+1E02
ENCODING 7682
SWIDTH 1920 0
DWIDTH 16 0
BBX 12 20 2 0
BITMAP
0F00
0F00
0F00
0F00
0000
0000
FFC0
FFC0
F0F0
F0F0
F0F0
F0F0
F3C0
F3C0
F0F0
F0F0
F0F0
F0F0
F3C0
F3C0
ENDCHAR
STARTCHAR U+1E03
ENCODING 7683
SWIDTH 1920 0
DWIDTH 16 0
BBX 12 16 2 0
BITMAP
03C0
03C0
F3C0
F3C0
F000
F000
F3C0
F3C0
FCF0
FCF0
F0F0
F0F0
F0F0
F0F0
F3C0
F3C0
ENDCHAR
STARTCHAR U+1E04
ENCODING 7684
SWIDTH 1920 0
DWIDTH 16 0
BBX 12 18 2 -4
BITMAP
FFC0
FFC0
F0F0
F0F0
F0F0
F0F0
F3C0
F3C0
F0F0
F0F0
F0F0
F0F0
F3C0
F3C0
0000
0000
0F00
0F00
ENDCHAR
STARTCHAR U+1E0A
ENCODING 7690
SWIDTH 1920 0
DWIDTH 16 0
BBX 12 20 2 0
BITMAP
0F00
0F00
0F00
0F00
0000
0000
FF00
FF00
F0C0
F0C0
F0F0
F0F0
F0F0
F0F0
F0F0
F0F0
F0C0
F0C0
FF00
FF00
ENDCHAR
STARTCHAR U+1E0B
ENCODING 7691
SWIDTH 1920 0
DWIDTH 16 0
BBX 12 16 2 0
BITMAP
3C00
3C00
3CF0
3CF0
00F0
00F0
3CF0
3CF0
F3F0
F3F0
F0F0
F0F0
F0F0
F0F0
3CF0
3CF0
ENDCHAR
STARTCHAR U+1E0C
ENCODING 7692
SWIDTH 1920 0
DWIDTH 16 0
BBX 12 18 2 -4
BITMAP
FF00
FF00
F0C0
F0C0
F0F0
F0F0
F0F0
F0F0
F0F0
F0F0
F0C0
F0C0
FF00
FF00
0000
0000
0F00
0F00
ENDCHAR
STARTCHAR U+1E1E
ENCODING 7710
SWIDTH 1920 0
DWIDTH 16 0
BBX 12 20 2 0
BITMAP
0F00
0F00
0F00
0F00
0000
0000
FFF0
FFF0
F030
F030
F000
F000
FF00
FF00
F000
F000
F000
F000
F000
F000
ENDCHAR
STARTCHAR U+1E1F
ENCODING 7711
SWIDTH 1920 0
DWIDTH 16 0
BBX 12 20 2 0
BITMAP
0F00
0F00
0F00
0F00
0000
0000
03F0
03F0
0F00
0F00
FFF0
FFF0
0F00
0F00
0F00
0F00
0F00
0F00
0F00
0F00
ENDCHAR
STARTCHAR U+1E22
ENCODING 7714
SWIDTH 1920 0
DWIDTH 16 0
BBX 12 20 2 0
BITMAP
0F00
0F00
0F00
0F00
0000
0000
F0F0
F0F0
F0F0
F0F0
F0F0
F0F0
FFF0
FFF0
F0F0
F0F0
F0F0
F0F0
F0F0
F0F0
ENDCHAR
STARTCHAR U+1E23
ENCODING 7715
SWIDTH 1920 0
DWIDTH 16 0
BBX 12 16 2 0
BITMAP
03C0
03C0
F3C0
F3C0
F000
F000
F3C0
F3C0
FCF0
FCF0
F0F0
F0F0
F0F0
F0F0
F0F0
F0F0
ENDCHAR
STARTCHAR U+1E24
ENCODING 7716
SWIDTH 1920 0
DWIDTH 16 0
BBX 12 18 2 -4
BITMAP
F0F0
F0F0
F0F0
F0F0
F0F0
F0F0
FFF0
FFF0
F0F0
F0F0
F0F0
F0F0
F0F0
F0F0
0000
0000
0F00
0F00
ENDCHAR
STARTCHAR U+1E36
ENCODING 7734
SWIDTH 1920 0
DWIDTH 16 0
BBX 12 18 2 -4
BITMAP
F000
F000
F000
F000
F000
F000
F000
F000
F000
F000
F030
F030
FFF0
FFF0
0000
0000
0F00
0F00
ENDCHAR
STARTCHAR U+1E40
ENCODING 7744
SWIDTH 1920 0
DWIDTH 16 0
BBX 14 20 2 0
BITMAP
0F00
0F00
0F00
0F00
0000
0000
C00C
C00C
F03C
F03C
FCFC
FCFC
F33C
F33C
F03C
F03C
F03C
F03C
F03C
F03C
ENDCHAR
STARTCHAR U+1E41
ENCODING 7745
SWIDTH 1920 0
DWIDTH 16 0
BBX 12 16 2 0
BITMAP
0F00
0F00
0F00
0F00
0000
0000
FCC0
FCC0
F330
F330
F330
F330
F330
F330
F330
F330
ENDCHAR
STARTCHAR U+1E42
ENCODING 7746
SWIDTH 1920 0
DWIDTH 16 0
BBX 14 18 2 -4
BITMAP
C00C
C00C
F03C
F03C
FCFC
FCFC
F33C
F33C
F03C
F03C
F03C
F03C
F03C
F03C
0000
0000
0F00
0F00
ENDCHAR
STARTCHAR U+1E44
ENCODING 7748
SWIDTH 1920 0
DWIDTH 16 0
BBX 12 20 2 0
BITMAP
0F00
0F00
0F00
0F00
0000
0000
C0F0
C0F0
F0F0
F0F0
FCF0
FCF0
F3F0
F3F0
F0F0
F0F0
F0F0
F0F0
F0F0
F0F0
ENDCHAR
STARTCHAR U+1E45
ENCODING 7749
SWIDTH 1920 0
DWIDTH 16 0
BBX 12 16 2 0
BITMAP
0F00
0F00
0F00
0F00
0000
0000
F3C0
F3C0
FCF0
FCF0
F0F0
F0F0
F0F0
F0F0
F0F0
F0F0
ENDCHAR
STARTCHAR U+1E46
ENCODING 7750
SWIDTH 1920 0
DWIDTH 16 0
BBX 12 18 2 -4
BITMAP
C0F0
C0F0
F0F0
F0F0
FCF0
FCF0
F3F0
F3F0
F0F0
F0F0
F0F0
F0F0
F0F0
F0F0
0000
0000
0F00
0F00
ENDCHAR
STARTCHAR U+1E56
ENCODING 7766
SWIDTH 1920 0
DWIDTH 16 0
BBX 12 20 2 0
BITMAP
0F00
0F00
0F00
0F00
0000
0000
FFC0
FFC0
F0F0
F0F0
F0F0
F0F0
F3C0
F3C0
F000
F000
F000
F000
F000
F000
ENDCHAR
STARTCHAR U+1E57
ENCODING 7767
SWIDTH 1920 0
DWIDTH 16 0
BBX 12 20 2 -4
BITMAP
0F00
0F00
0F00
0F00
0000
0000
F3C0
F3C0
FCF0
FCF0
F0F0
F0F0
F0F0
F0F0
F3C0
F3C0
F000
F000
F000
F000
ENDCHAR
STARTCHAR U+1E58
ENCODING 7768
SWIDTH 1920 0
DWIDTH 16 0
BBX 12 20 2 0
BITMAP
0F00
0F00
0F00
0F00
0000
0000
FFC0
FFC0
F0F0
F0F0
F0F0
F0F0
F3C0
F3C0
F0C0
F0C0
F0F0
F0F0
F0F0
F0F0
ENDCHAR
STARTCHAR U+1E59
ENCODING 7769
SWIDTH 1920 0
DWIDTH 16 0
BBX 12 16 2 0
BITMAP
0F00
0F00
0F00
0F00
0000
0000
FCF0
FCF0
3F00
3F00
3C00
3C00
3C00
3C00
3C00
3C00
ENDCHAR
STARTCHAR U+1E5A
ENCODING 7770
SWIDTH 1920 0
DWIDTH 16 0
BBX 12 18 2 -4
BITMAP
FFC0
FFC0
F0F0
F0F0
F0F0
F0F0
F3C0
F3C0
F0C0
F0C0
F0F0
F0F0
F0F0
F0F0
0000
0000
0F00
0F00
ENDCHAR
STARTCHAR U+1E60
ENCODING 7776
SWIDTH 1920 0
DWIDTH 16 0
BBX 12 20 2 0
BITMAP
0F00
0F00
0F00
0F00
0000
0000
3FC0
3FC0
F0F0
F0F0
F000
F000
3FC0
3FC0
00F0
00F0
F0F0
F0F0
3FC0
3FC0
ENDCHAR
STARTCHAR U+1E61
ENCODING 7777
SWIDTH 1920 0
DWIDTH 16 0
BBX 12 16 2 0
BITMAP
0F00
0F00
0F00
0F00
0000
0000
3FC0
3FC0
F000
F000
3FC0
3FC0
00F0
00F0
3FC0
3FC0
ENDCHAR
STARTCHAR U+1E62
ENCODING 7778
SWIDTH 1920 0
DWIDTH 16 0
BBX 12 18 2 -4
BITMAP
3FC0
3FC0
F0F0
F0F0
F000
F000
3FC0
3FC0
00F0
00F0
F0F0
F0F0
3FC0
3FC0
0000
0000
0F00
0F00
ENDCHAR
STARTCHAR U+1E6A
ENCODING 7786
SWIDTH 1920 0
DWIDTH 16 0
BBX 12 20 2 0
BITMAP
0F00
0F00
0F00
0F00
0000
0000
FFF0
FFF0
0F00
0F00
0F00
0F00
0F00
0F00
0F00
0F00
0F00
0F00
0F00
0F00
ENDCHAR
STARTCHAR U+1E6B
ENCODING 7787
SWIDTH 1920 0
DWIDTH 16 0
BBX 12 20 2 0
BITMAP
0F00
0F00
0F00
0F00
0000
0000
0F00
0F00
0F00
0F00
FFF0
FFF0
0F00
0F00
0F00
0F00
0F00
0F00
03F0
03F0
ENDCHAR
STARTCHAR U+1E6C
ENCODING 7788
SWIDTH 1920 0
DWIDTH 16 0
BBX 12 18 2 -4
BITMAP
FFF0
FFF0
0F00
0F00
0F00
0F00
0F00
0F00
0F00
0F00
0F00
0F00
0F00
0F00
0000
0000
0F00
0F00
ENDCHAR
STARTCHAR U+1E80
ENCODING 7808
SWIDTH 1920 0
DWIDTH 16 0
BBX 14 20 2 0
BITMAP
3C00
3C00
0F00
0F00
0000
0000
F03C
F03C
F03C
F03C
F33C
F33C
F33C
F33C
F33C
F33C
F33C
F33C
3CF0
3CF0
ENDCHAR
STARTCHAR U+1E81
ENCODING 7809
SWIDTH 1920 0
DWIDTH 16 0
BBX 12 16 2 0
BITMAP
3C00
3C00
0F00
0F00
0000
0000
F330
F330
F330
F330
F330
F330
F330
F330
3CC0
3CC0
ENDCHAR
STARTCHAR U+1E82
ENCODING 7810
SWIDTH 1920 0
DWIDTH 16 0
BBX 14 20 2 0
BITMAP
03C0
03C0
0F00
0F00
0000
0000
F03C
F03C
F03C
F03C
F33C
F33C
F33C
F33C
F33C
F33C
F33C
F33C
3CF0
3CF0
ENDCHAR
STARTCHAR U+1E83
ENCODING 7811
SWIDTH 1920 0
DWIDTH 16 0
BBX 12 16 2 0
BITMAP
03C0
03C0
0F00
0F00
0000
0000
F330
F330
F330
F330
F330
F330
F330
F330
3CC0
3CC0
ENDCHAR
STARTCHAR U+1E84
ENCODING 7812
SWIDTH 1920 0
DWIDTH 16 0
BBX 14 20 2 0
BITMAP
F03C
F03C
F03C
F03C
0000
0000
F03C
F03C
F03C
F03C
F33C
F33C
F33C
F33C
F33C
F33C
F33C
F33C
3CF0
3CF0
ENDCHAR
STARTCHAR U+1E85
ENCODING 7813
SWIDTH 1920 0
DWIDTH 16 0
BBX 12 16 2 0
BITMAP
F0F0
F0F0
F0F0
F0F0
0000
0000
F330
F330
F330
F330
F330
F330
F330
F330
3CC0
3CC0
ENDCHAR
STARTCHAR U+1E86
ENCODING 7814
SWIDTH 1920 0
DWIDTH 16 0
BBX 14 20 2 0
BITMAP
0F00
0F00
0F00
0F00
0000
0000
F03C
F03C
F03C
F03C
F33C
F33C
F33C
F33C
F33C
F33C
F33C
F33C
3CF0
3CF0
ENDCHAR
STARTCHAR U+1E8A
ENCODING 7818
SWIDTH 1920 0
DWIDTH 16 0
BBX 12 20 2 0
BITMAP
0F00
0F00
0F00
0F00
0000
0000
F0F0
F0F0
F0F0
F0F0
30C0
30C0
0F00
0F00
30C0
30C0
F0F0
F0F0
F0F0
F0F0
ENDCHAR
STARTCHAR U+1E8B
ENCODING 7819
SWIDTH 1920 0
DWIDTH 16 0
BBX 12 16 2 0
BITMAP
0F00
0F00
0F00
0F00
0000
0000
F0F0
F0F0
F0F0
F0F0
3FC0
3FC0
F0F0
F0F0
F0F0
F0F0
ENDCHAR
STARTCHAR U+1EA0
ENCODING 7840
SWIDTH 1920 0
DWIDTH 16 0
BBX 12 18 2 -4
BITMAP
0300
0300
0CC0
0CC0
30F0
30F0
FFF0
FFF0
F0F0
F0F0
F0F0
F0F0
F0F0
F0F0
0000
0000
0F00
0F00
ENDCHAR
STARTCHAR U+1ECA
ENCODING 7882
SWIDTH 1920 0
DWIDTH 16 0
BBX 12 18 2 -4
BITMAP
FFF0
FFF0
0F00
0F00
0F00
0F00
0F00
0F00
0F00
0F00
0F00
0F00
FFF0
FFF0
0000
0000
0F00
0F00
ENDCHAR
STARTCHAR U+1ECC
ENCODING 7884
SWIDTH 1920 0
DWIDTH 16 0
BBX 12 18 2 -4
BITMAP
3FC0
3FC0
F0F0
F0F0
F0F0
F0F0
F0F0
F0F0
F0F0
F0F0
F0F0
F0F0
3FC0
3FC0
0000
0000
0F00
0F00
ENDCHAR
STARTCHAR U+1EF2
ENCODING 7922
SWIDTH 1920 0
DWIDTH 16 0
BBX 12 20 2 0
BITMAP
3C00
3C00
0F00
0F00
0000
0000
F0F0
F0F0
F0F0
F0F0
30C0
30C0
0F00
0F00
0F00
0F00
0F00
0F00
0F00
0F00
ENDCHAR
STARTCHAR U+1EF3
ENCODING 7923
SWIDTH 1920 0
DWIDTH 16 0
BBX 12 20 2 -4
BITMAP
3C00
3C00
0F00
0F00
0000
0000
F0F0
F0F0
F0F0
F0F0
F0F0
F0F0
F3F0
F3F0
3CF0
3CF0
00F0
00F0
3FC0
3FC0
ENDCHAR
STARTCHAR U+2013
ENCODING 8211
SWIDTH 1920 0
DWIDTH 16 0
BBX 12 2 2 6
BITMAP
FFF0
FFF0
ENDCHAR
STARTCHAR U+2014
ENCODING 8212
SWIDTH 1920 0
DWIDTH 16 0
BBX 16 2 0 6
BITMAP
FFFF
FFFF
ENDCHAR
STARTCHAR U+2015
ENCODING 8213
SWIDTH 1920 0
DWIDTH 16 0
BBX 16 2 0 6
BITMAP
FFFF
FFFF
ENDCHAR
STARTCHAR U+2017
ENCODING 8215
SWIDTH 1920 0
DWIDTH 16 0
BBX 12 6 2 -4
BITMAP
FFF0
FFF0
0000
0000
FFF0
FFF0
ENDCHAR
STARTCHAR U+2018
ENCODING 8216
SWIDTH 1920 0
DWIDTH 16 0
BBX 4 8 6 10
BITMAP
3000
3000
C000
C000
F000
F000
F000
F000
ENDCHAR
STARTCHAR U+2019
ENCODING 8217
SWIDTH 1920 0
DWIDTH 16 0
BBX 4 8 6 10
BITMAP
F000
F000
F000
F000
3000
3000
C000
C000
ENDCHAR
STARTCHAR U+201A
ENCODING 8218
SWIDTH 1920 0
DWIDTH 16 0
BBX 4 8 6 -4
BITMAP
F000
F000
F000
F000
3000
3000
C000
C000
ENDCHAR
STARTCHAR U+201B
ENCODING 8219
SWIDTH 1920 0
DWIDTH 16 0
BBX 4 8 6 10
BITMAP
F000
F000
F000
F000
C000
C000
3000
3000
ENDCHAR
STARTCHAR U+201C
ENCODING 8220
SWIDTH 1920 0
DWIDTH 16 0
BBX 10 8 4 10
BITMAP
30C0
30C0
C300
C300
F3C0
F3C0
F3C0
F3C0
ENDCHAR
STARTCHAR U+201D
ENCODING 8221
SWIDTH 1920 0
DWIDTH 16 0
BBX 10 8 2 10
BITMAP
F3C0
F3C0
F3C0
F3C0
30C0
30C0
C300
C300
ENDCHAR
STARTCHAR U+201E
ENCODING 8222
SWIDTH 1920 0
DWIDTH 16 0
BBX 10 8 2 -4
BITMAP
F3C0
F3C0
F3C0
F3C0
30C0
30C0
C300
C300
ENDCHAR
STARTCHAR U+2020
ENCODING 8224
SWIDTH 1920 0
DWIDTH 16 0
BBX 12 16 2 -2
BITMAP
0F00
0F00
0F00
0F00
FFF0
FFF0
0F00
0F00
0F00
0F00
0F00
0F00
0F00
0F00
0F00
0F00
ENDCHAR
STARTCHAR U+2021
ENCODING 8225
SWIDTH 1920 0
DWIDTH 16 0
BBX 12 16 2 -2
BITMAP
0F00
0F00
0F00
0F00
FFF0
FFF0
0F00
0F00
0F00
0F00
FFF0
FFF0
0F00
0F00
0F00
0F00
ENDCHAR
STARTCHAR U+2022
ENCODING 8226
SWIDTH 1920 0
DWIDTH 16 0
BBX 8 8 4 2
BITMAP
3C00
3C00
FF00
FF00
FF00
FF00
3C00
3C00
ENDCHAR
STARTCHAR U+2026
ENCODING 8230
SWIDTH 1920 0
DWIDTH 16 0
BBX 16 4 0 0
BITMAP
F3CF
F3CF
F3CF
F3CF
ENDCHAR
STARTCHAR U+2030
ENCODING 8240
SWIDTH 1920 0
DWIDTH 16 0
BBX 16 14 0 0
BITMAP
F030
F030
F0F0
F0F0
03C0
03C0
0F00
0F00
3C00
3C00
F3CF
F3CF
C3CF
C3CF
ENDCHAR
STARTCHAR U+2032
ENCODING 8242
SWIDTH 1920 0
DWIDTH 16 0
BBX 6 6 4 8
BITMAP
3C00
3C00
F000
F000
C000
C000
ENDCHAR
STARTCHAR U+2033
ENCODING 8243
SWIDTH 1920 0
DWIDTH 16 0
BBX 12 6 2 8
BITMAP
3CF0
3CF0
F3C0
F3C0
C300
C300
ENDCHAR
STARTCHAR U+2039
ENCODING 8249
SWIDTH 1920 0
DWIDTH 16 0
BBX 6 10 6 2
BITMAP
0C00
0C00
3C00
3C00
F000
F000
3C00
3C00
0C00
0C00
ENDCHAR
STARTCHAR U+203A
ENCODING 8250
SWIDTH 1920 0
DWIDTH 16 0
BBX 6 10 4 2
BITMAP
C000
C000
F000
F000
3C00
3C00
F000
F000
C000
C000
ENDCHAR
STARTCHAR U+203C
ENCODING 8252
SWIDTH 1920 0
DWIDTH 16 0
BBX 12 16 2 0
BITMAP
F0F0
F0F0
F0F0
F0F0
F0F0
F0F0
F0F0
F0F0
F0F0
F0F0
0000
0000
F0F0
F0F0
F0F0
F0F0
ENDCHAR
STARTCHAR U+203E
ENCODING 8254
SWIDTH 1920 0
DWIDTH 16 0
BBX 12 2 2 14
BITMAP
FFF0
FFF0
ENDCHAR
STARTCHAR U+203F
ENCODING 8255
SWIDTH 1920 0
DWIDTH 16 0
BBX 16 4 0 -4
BITMAP
F00F
F00F
3FFC
3FFC
ENDCHAR
STARTCHAR U+2044
ENCODING 8260
SWIDTH 1920 0
DWIDTH 16 0
BBX 12 14 2 0
BITMAP
0030
0030
00F0
00F0
03C0
03C0
0F00
0F00
3C00
3C00
F000
F000
C000
C000
ENDCHAR
STARTCHAR U+2045
ENCODING 8261
SWIDTH 1920 0
DWIDTH 16 0
BBX 8 18 4 -2
BITMAP
FF00
FF00
F000
F000
F000
F000
F000
F000
FF00
FF00
F000
F000
F000
F000
F000
F000
FF00
FF00
ENDCHAR
STARTCHAR U+2070
ENCODING 8304
SWIDTH 1920 0
DWIDTH 16 0
BBX 8 10 2 6
BITMAP
3C00
3C00
CF00
CF00
CF00
CF00
CF00
CF00
3C00
3C00
ENDCHAR
STARTCHAR U+207A
ENCODING 8314
SWIDTH 1920 0
DWIDTH 16 0
BBX 12 10 2 6
BITMAP
0F00
0F00
0F00
0F00
FFF0
FFF0
0F00
0F00
0F00
0F00
ENDCHAR
STARTCHAR U+207B
ENCODING 8315
SWIDTH 1920 0
DWIDTH 16 0
BBX 8 2 2 10
BITMAP
FF00
FF00
ENDCHAR
STARTCHAR U+207C
ENCODING 8316
SWIDTH 1920 0
DWIDTH 16 0
BBX 8 6 4 10
BITMAP
FF00
FF00
0000
0000
FF00
FF00
ENDCHAR
STARTCHAR U+207E
ENCODING 8318
SWIDTH 1920 0
DWIDTH 16 0
BBX 6 10 4 6
BITMAP
F000
F000
3C00
3C00
3C00
3C00
3C00
3C00
F000
F000
ENDCHAR
STARTCHAR U+207F
ENCODING 8319
SWIDTH 1920 0
DWIDTH 16 0
BBX 10 8 2 8
BITMAP
FF00
FF00
F3C0
F3C0
F3C0
F3C0
F3C0
F3C0
ENDCHAR
STARTCHAR U+2080
ENCODING 8320
SWIDTH 1920 0
DWIDTH 16 0
BBX 8 10 2 -4
BITMAP
3C00
3C00
F300
F300
F300
F300
F300
F300
3C00
3C00
ENDCHAR
STARTCHAR U+2081
ENCODING 8321
SWIDTH 1920 0
DWIDTH 16 0
BBX 8 10 2 -4
BITMAP
0C00
0C00
FC00
FC00
3C00
3C00
3C00
3C00
FF00
FF00
ENDCHAR
STARTCHAR U+2082
ENCODING 8322
SWIDTH 1920 0
DWIDTH 16 0
BBX 8 10 2 -4
BITMAP
FC00
FC00
CF00
CF00
0F00
0F00
3C00
3C00
FF00
FF00
ENDCHAR
STARTCHAR U+2083
ENCODING 8323
SWIDTH 1920 0
DWIDTH 16 0
BBX 8 10 2 -4
BITMAP
FC00
FC00
0F00
0F00
3C00
3C00
0F00
0F00
FC00
FC00
ENDCHAR
STARTCHAR U+2084
ENCODING 8324
SWIDTH 1920 0
DWIDTH 16 0
BBX 8 10 2 -4
BITMAP
0F00
0F00
3F00
3F00
FF00
FF00
0F00
0F00
0F00
0F00
ENDCHAR
STARTCHAR U+2085
ENCODING 8325
SWIDTH 1920 0
DWIDTH 16 0
BBX 8 10 2 -4
BITMAP
FF00
FF00
F000
F000
FC00
FC00
0F00
0F00
FC00
FC00
ENDCHAR
STARTCHAR U+2086
ENCODING 8326
SWIDTH 1920 0
DWIDTH 16 0
BBX 8 10 2 -4
BITMAP
3C00
3C00
F000
F000
FC00
FC00
F300
F300
3C00
3C00
ENDCHAR
STARTCHAR U+2087
ENCODING 8327
SWIDTH 1920 0
DWIDTH 16 0
BBX 8 10 2 -4
BITMAP
FF00
FF00
CF00
CF00
0F00
0F00
3C00
3C00
3C00
3C00
ENDCHAR
STARTCHAR U+2088
ENCODING 8328
SWIDTH 1920 0
DWIDTH 16 0
BBX 8 10 2 -4
BITMAP
3C00
3C00
F300
F300
3C00
3C00
F300
F300
3C00
3C00
ENDCHAR
STARTCHAR U+2089
ENCODING 8329
SWIDTH 1920 0
DWIDTH 16 0
BBX 8 10 2 -4
BITMAP
3C00
3C00
CF00
CF00
3F00
3F00
0F00
0F00
3C00
3C00
ENDCHAR
STARTCHAR U+208C
ENCODING 8332
SWIDTH 1920 0
DWIDTH 16 0
BBX 8 6 4 -4
BITMAP
FF00
FF00
0000
0000
FF00
FF00
ENDCHAR
STARTCHAR U+2099
ENCODING 8345
SWIDTH 1920 0
DWIDTH 16 0
BBX 10 8 2 -4
BITMAP
FF00
FF00
F3C0
F3C0
F3C0
F3C0
F3C0
F3C0
ENDCHAR
STARTCHAR U+20A3
ENCODING 8355
SWIDTH 1920 0
DWIDTH 16 0
BBX 12 14 2 0
BITMAP
FFF0
FFF0
3C30
3C30
3C00
3C00
3FC0
3FC0
3C00
3C00
FF00
FF00
3C00
3C00
ENDCHAR
STARTCHAR U+20A4
ENCODING 8356
SWIDTH 1920 0
DWIDTH 16 0
BBX 12 14 2 0
BITMAP
0FC0
0FC0
3C30
3C30
FF00
FF00
3C00
3C00
FF00
FF00
3C30
3C30
F3F0
F3F0
ENDCHAR
STARTCHAR U+20A7
ENCODING 8359
SWIDTH 1920 0
DWIDTH 16 0
BBX 14 14 2 0
BITMAP
FF00
FF00
F3C0
F3C0
FF00
FF00
F0F0
F0F0
F3FC
F3FC
F0F0
F0F0
F0FC
F0FC
ENDCHAR
STARTCHAR U+20AC
ENCODING 8364
SWIDTH 1920 0
DWIDTH 16 0
BBX 14 14 2 0
BITMAP
0FF0
0FF0
3C0C
3C0C
FFC0
FFC0
3C00
3C00
FFC0
FFC0
3C0C
3C0C
0FF0
0FF0
ENDCHAR
STARTCHAR U+20B3
ENCODING 8371
SWIDTH 1920 0
DWIDTH 16 0
BBX 16 14 0 0
BITMAP
00C0
00C0
0330
0330
FFFF
FFFF
3C3C
3C3C
FFFF
FFFF
3C3C
3C3C
3C3C
3C3C
ENDCHAR
STARTCHAR U+2102
ENCODING 8450
SWIDTH 1920 0
DWIDTH 16 0
BBX 12 14 2 0
BITMAP
3FC0
3FC0
CCF0
CCF0
CC00
CC00
CC00
CC00
CC00
CC00
CCF0
CCF0
3FC0
3FC0
ENDCHAR
STARTCHAR U+2105
ENCODING 8453
SWIDTH 1920 0
DWIDTH 16 0
BBX 16 18 0 -2
BITMAP
3F00
3F00
F300
F300
F000
F000
3F00
3F00
0000
0000
00FC
00FC
03CF
03CF
03CF
03CF
00FC
00FC
ENDCHAR
STARTCHAR U+2113
ENCODING 8467
SWIDTH 1920 0
DWIDTH 16 0
BBX 12 14 2 0
BITMAP
0F00
0F00
3CC0
3CC0
3CC0
3CC0
3F00
3F00
3C00
3C00
FCF0
FCF0
0FC0
0FC0
ENDCHAR
STARTCHAR U+2116
ENCODING 8470
SWIDTH 1920 0
DWIDTH 16 0
BBX 14 14 2 0
BITMAP
C330
C330
F3CC
F3CC
CFCC
CFCC
C330
C330
C300
C300
C3FC
C3FC
C300
C300
ENDCHAR
STARTCHAR U+2122
ENCODING 8482
SWIDTH 1920 0
DWIDTH 16 0
BBX 16 8 0 6
BITMAP
FF03
FF03
33CF
33CF
3333
3333
3303
3303
ENDCHAR
STARTCHAR U+2126
ENCODING 8486
SWIDTH 1920 0
DWIDTH 16 0
BBX 14 14 2 0
BITMAP
3FF0
3FF0
F03C
F03C
F03C
F03C
F03C
F03C
F03C
F03C
3CF0
3CF0
FCFC
FCFC
ENDCHAR
STARTCHAR U+212E
ENCODING 8494
SWIDTH 1920 0
DWIDTH 16 0
BBX 14 12 2 0
BITMAP
3FF0
3FF0
F03C
F03C
FFFC
FFFC
F000
F000
F03C
F03C
3FF0
3FF0
ENDCHAR
STARTCHAR U+215B
ENCODING 8539
SWIDTH 1920 0
DWIDTH 16 0
BBX 12 22 2 -4
BITMAP
0C00
0C00
FC00
FC00
3C00
3C00
3C00
3C00
FF00
FF00
0000
0000
03C0
03C0
0F30
0F30
03C0
03C0
0F30
0F30
03C0
03C0
ENDCHAR
STARTCHAR U+215C
ENCODING 8540
SWIDTH 1920 0
DWIDTH 16 0
BBX 12 22 2 -4
BITMAP
FC00
FC00
0F00
0F00
3C00
3C00
0F00
0F00
FC00
FC00
0000
0000
03C0
03C0
0F30
0F30
03C0
03C0
0F30
0F30
03C0
03C0
ENDCHAR
STARTCHAR U+215D
ENCODING 8541
SWIDTH 1920 0
DWIDTH 16 0
BBX 12 22 2 -4
BITMAP
FF00
FF00
F000
F000
FC00
FC00
0F00
0F00
FC00
FC00
0000
0000
03C0
03C0
0F30
0F30
03C0
03C0
0F30
0F30
03C0
03C0
ENDCHAR
STARTCHAR U+215E
ENCODING 8542
SWIDTH 1920 0
DWIDTH 16 0
BBX 12 22 2 -4
BITMAP
FF00
FF00
CF00
CF00
0F00
0F00
3C00
3C00
3C00
3C00
0000
0000
03C0
03C0
0F30
0F30
03C0
03C0
0F30
0F30
03C0
03C0
ENDCHAR
STARTCHAR U+2190
ENCODING 8592
SWIDTH 1920 0
DWIDTH 16 0
BBX 16 10 0 2
BITMAP
0F00
0F00
3C00
3C00
FFFF
FFFF
3C00
3C00
0F00
0F00
ENDCHAR
STARTCHAR U+2191
ENCODING 8593
SWIDTH 1920 0
DWIDTH 16 0
BBX 10 18 4 -2
BITMAP
0C00
0C00
3F00
3F00
FFC0
FFC0
CCC0
CCC0
0C00
0C00
0C00
0C00
0C00
0C00
0C00
0C00
0C00
0C00
ENDCHAR
STARTCHAR U+2192
ENCODING 8594
SWIDTH 1920 0
DWIDTH 16 0
BBX 16 10 0 2
BITMAP
00F0
00F0
003C
003C
FFFF
FFFF
003C
003C
00F0
00F0
ENDCHAR
STARTCHAR U+2193
ENCODING 8595
SWIDTH 1920 0
DWIDTH 16 0
BBX 10 18 4 -2
BITMAP
0C00
0C00
0C00
0C00
0C00
0C00
0C00
0C00
0C00
0C00
CCC0
CCC0
FFC0
FFC0
3F00
3F00
0C00
0C00
ENDCHAR
STARTCHAR U+2194
ENCODING 8596
SWIDTH 1920 0
DWIDTH 16 0
BBX 16 10 0 2
BITMAP
0C30
0C30
3C3C
3C3C
FFFF
FFFF
3C3C
3C3C
0C30
0C30
ENDCHAR
STARTCHAR U+2195
ENCODING 8597
SWIDTH 1920 0
DWIDTH 16 0
BBX 10 18 4 -2
BITMAP
0C00
0C00
3F00
3F00
FFC0
FFC0
0C00
0C00
0C00
0C00
0C00
0C00
FFC0
FFC0
3F00
3F00
0C00
0C00
ENDCHAR
STARTCHAR U+2196
ENCODING 8598
SWIDTH 1920 0
DWIDTH 16 0
BBX 14 14 2 0
BITMAP
FF00
FF00
F000
F000
CC00
CC00
C300
C300
00C0
00C0
0030
0030
000C
000C
ENDCHAR
STARTCHAR U+2197
ENCODING 8599
SWIDTH 1920 0
DWIDTH 16 0
BBX 14 14 2 0
BITMAP
03FC
03FC
003C
003C
00CC
00CC
030C
030C
0C00
0C00
3000
3000
C000
C000
ENDCHAR
STARTCHAR U+2198
ENCODING 8600
SWIDTH 1920 0
DWIDTH 16 0
BBX 14 14 2 0
BITMAP
C000
C000
3000
3000
0C00
0C00
030C
030C
00CC
00CC
003C
003C
03FC
03FC
ENDCHAR
STARTCHAR U+2199
ENCODING 8601
SWIDTH 1920 0
DWIDTH 16 0
BBX 14 14 2 0
BITMAP
000C
000C
0030
0030
00C0
00C0
C300
C300
CC00
CC00
F000
F000
FF00
FF00
ENDCHAR
STARTCHAR U+219A
ENCODING 8602
SWIDTH 1920 0
DWIDTH 16 0
BBX 16 18 0 -2
BITMAP
00C0
00C0
00C0
00C0
0CC0
0CC0
3CC0
3CC0
FFFF
FFFF
3CC0
3CC0
0CC0
0CC0
00C0
00C0
00C0
00C0
ENDCHAR
STARTCHAR U+219B
ENCODING 8603
SWIDTH 1920 0
DWIDTH 16 0
BBX 16 18 0 -2
BITMAP
0300
0300
0300
0300
0330
0330
033C
033C
FFFF
FFFF
033C
033C
0330
0330
0300
0300
0300
0300
ENDCHAR
STARTCHAR U+219C
ENCODING 8604
SWIDTH 1920 0
DWIDTH 16 0
BBX 14 6 2 4
BITMAP
FC00
FC00
F0F0
F0F0
CF0C
CF0C
ENDCHAR
STARTCHAR U+219D
ENCODING 8605
SWIDTH 1920 0
DWIDTH 16 0
BBX 14 6 2 4
BITMAP
00FC
00FC
3C3C
3C3C
C3CC
C3CC
ENDCHAR
STARTCHAR U+219E
ENCODING 8606
SWIDTH 1920 0
DWIDTH 16 0
BBX 16 10 0 2
BITMAP
0CC0
0CC0
3300
3300
FFFF
FFFF
3300
3300
0CC0
0CC0
ENDCHAR
STARTCHAR U+219F
ENCODING 8607
SWIDTH 1920 0
DWIDTH 16 0
BBX 10 18 4 -2
BITMAP
0C00
0C00
3300
3300
CCC0
CCC0
3F00
3F00
CCC0
CCC0
0C00
0C00
0C00
0C00
0C00
0C00
0C00
0C00
ENDCHAR
STARTCHAR U+21A0
ENCODING 8608
SWIDTH 1920 0
DWIDTH 16 0
BBX 16 10 0 2
BITMAP
0330
0330
00CC
00CC
FFFF
FFFF
00CC
00CC
0330
0330
ENDCHAR
STARTCHAR U+21A1
ENCODING 8609
SWIDTH 1920 0
DWIDTH 16 0
BBX 10 18 4 -2
BITMAP
0C00
0C00
0C00
0C00
0C00
0C00
0C00
0C00
CCC0
CCC0
3F00
3F00
CCC0
CCC0
3300
3300
0C00
0C00
ENDCHAR
STARTCHAR U+21A2
ENCODING 8610
SWIDTH 1920 0
DWIDTH 16 0
BBX 16 10 0 2
BITMAP
0F0F
0F0F
3C3C
3C3C
FFF0
FFF0
3C3C
3C3C
0F0F
0F0F
ENDCHAR
STARTCHAR U+21A3
ENCODING 8611
SWIDTH 1920 0
DWIDTH 16 0
BBX 16 10 0 2
BITMAP
F0F0
F0F0
3C3C
3C3C
0FFF
0FFF
3C3C
3C3C
F0F0
F0F0
ENDCHAR
STARTCHAR U+21A4
ENCODING 8612
SWIDTH 1920 0
DWIDTH 16 0
BBX 16 10 0 2
BITMAP
0F03
0F03
3C03
3C03
FFFF
FFFF
3C03
3C03
0F03
0F03
ENDCHAR
STARTCHAR U+21A5
ENCODING 8613
SWIDTH 1920 0
DWIDTH 16 0
BBX 10 18 4 -2
BITMAP
0C00
0C00
3F00
3F00
FFC0
FFC0
CCC0
CCC0
0C00
0C00
0C00
0C00
0C00
0C00
0C00
0C00
FFC0
FFC0
ENDCHAR
STARTCHAR U+21A6
ENCODING 8614
SWIDTH 1920 0
DWIDTH 16 0
BBX 16 10 0 2
BITMAP
C0F0
C0F0
C03C
C03C
FFFF
FFFF
C03C
C03C
C0F0
C0F0
ENDCHAR
STARTCHAR U+21A7
ENCODING 8615
SWIDTH 1920 0
DWIDTH 16 0
BBX 10 18 4 -2
BITMAP
FFC0
FFC0
0C00
0C00
0C00
0C00
0C00
0C00
0C00
0C00
CCC0
CCC0
FFC0
FFC0
3F00
3F00
0C00
0C00
ENDCHAR
STARTCHAR U+21A8
ENCODING 8616
SWIDTH 1920 0
DWIDTH 16 0
BBX 10 20 4 -4
BITMAP
0C00
0C00
3F00
3F00
FFC0
FFC0
0C00
0C00
0C00
0C00
0C00
0C00
FFC0
FFC0
3F00
3F00
0C00
0C00
FFC0
FFC0
ENDCHAR
STARTCHAR U+21A9
ENCODING 8617
SWIDTH 1920 0
DWIDTH 16 0
BBX 16 12 0 2
BITMAP
003C
003C
0F0F
0F0F
3C0F
3C0F
FFFC
FFFC
3C00
3C00
0F00
0F00
ENDCHAR
STARTCHAR U+21AA
ENCODING 8618
SWIDTH 1920 0
DWIDTH 16 0
BBX 16 12 0 2
BITMAP
3C00
3C00
F0F0
F0F0
F03C
F03C
3FFF
3FFF
003C
003C
00F0
00F0
ENDCHAR
STARTCHAR U+21AB
ENCODING 8619
SWIDTH 1920 0
DWIDTH 16 0
BBX 16 14 0 0
BITMAP
000C
000C
0C33
0C33
3C33
3C33
FFFC
FFFC
3C30
3C30
0C30
0C30
0030
0030
ENDCHAR
STARTCHAR U+21AC
ENCODING 8620
SWIDTH 1920 0
DWIDTH 16 0
BBX 16 14 0 0
BITMAP
3000
3000
CC30
CC30
CC3C
CC3C
3FFF
3FFF
0C3C
0C3C
0C30
0C30
0C00
0C00
ENDCHAR
STARTCHAR U+21AE
ENCODING 8622
SWIDTH 1920 0
DWIDTH 16 0
BBX 16 18 0 -2
BITMAP
00C0
00C0
00C0
00C0
0CF0
0CF0
3CFC
3CFC
FFFF
FFFF
3CFC
3CFC
0CF0
0CF0
00C0
00C0
00C0
00C0
ENDCHAR
STARTCHAR U+21AF
ENCODING 8623
SWIDTH 1920 0
DWIDTH 16 0
BBX 12 20 2 -2
BITMAP
C000
C000
C000
C000
C300
C300
CF00
CF00
F300
F300
C300
C300
0300
0300
3FF0
3FF0
0FC0
0FC0
0300
0300
ENDCHAR
STARTCHAR U+21B0
ENCODING 8624
SWIDTH 1920 0
DWIDTH 16 0
BBX 10 16 0 -4
BITMAP
0C00
0C00
3C00
3C00
FF00
FF00
3CC0
3CC0
0CC0
0CC0
00C0
00C0
00C0
00C0
00C0
00C0
ENDCHAR
STARTCHAR U+21B1
ENCODING 8625
SWIDTH 1920 0
DWIDTH 16 0
BBX 10 16 6 -4
BITMAP
0C00
0C00
0F00
0F00
3FC0
3FC0
CF00
CF00
CC00
CC00
C000
C000
C000
C000
C000
C000
ENDCHAR
STARTCHAR U+21B2
ENCODING 8626
SWIDTH 1920 0
DWIDTH 16 0
BBX 10 18 0 2
BITMAP
00C0
00C0
00C0
00C0
00C0
00C0
00C0
00C0
0CC0
0CC0
3CC0
3CC0
FF00
FF00
3C00
3C00
0C00
0C00
ENDCHAR
STARTCHAR U+21B3
ENCODING 8627
SWIDTH 1920 0
DWIDTH 16 0
BBX 10 18 6 2
BITMAP
C000
C000
C000
C000
C000
C000
C000
C000
CC00
CC00
CF00
CF00
3FC0
3FC0
0F00
0F00
0C00
0C00
ENDCHAR
STARTCHAR U+21B4
ENCODING 8628
SWIDTH 1920 0
DWIDTH 16 0
BBX 14 10 0 -2
BITMAP
FFC0
FFC0
00C0
00C0
0FFC
0FFC
03F0
03F0
00C0
00C0
ENDCHAR
STARTCHAR U+21B5
ENCODING 8629
SWIDTH 1920 0
DWIDTH 16 0
BBX 10 18 0 2
BITMAP
00C0
00C0
00C0
00C0
00C0
00C0
00C0
00C0
0CC0
0CC0
3CC0
3CC0
FFC0
FFC0
3C00
3C00
0C00
0C00
ENDCHAR
STARTCHAR U+21B6
ENCODING 8630
SWIDTH 1920 0
DWIDTH 16 0
BBX 16 12 0 0
BITMAP
03FC
03FC
0C03
0C03
CCC3
CCC3
FFC0
FFC0
3F00
3F00
0C00
0C00
ENDCHAR
STARTCHAR U+21B7
ENCODING 8631
SWIDTH 1920 0
DWIDTH 16 0
BBX 16 12 0 0
BITMAP
3FC0
3FC0
C030
C030
C333
C333
03FF
03FF
00FC
00FC
0030
0030
ENDCHAR
STARTCHAR U+21B8
ENCODING 8632
SWIDTH 1920 0
DWIDTH 16 0
BBX 14 18 2 0
BITMAP
FFFC
FFFC
0000
0000
FF00
FF00
F000
F000
CC00
CC00
C300
C300
00C0
00C0
0030
0030
000C
000C
ENDCHAR
STARTCHAR U+21B9
ENCODING 8633
SWIDTH 1920 0
DWIDTH 16 0
BBX 16 18 0 -2
BITMAP
03C3
03C3
00F3
00F3
FFFF
FFFF
00F3
00F3
C3C3
C3C3
CF00
CF00
FFFF
FFFF
CF00
CF00
C3C0
C3C0
ENDCHAR
STARTCHAR U+21BA
ENCODING 8634
SWIDTH 1920 0
DWIDTH 16 0
BBX 14 16 2 0
BITMAP
03FC
03FC
03C0
03C0
3330
3330
C30C
C30C
C00C
C00C
C00C
C00C
3030
3030
0FC0
0FC0
ENDCHAR
STARTCHAR U+21BB
ENCODING 8635
SWIDTH 1920 0
DWIDTH 16 0
BBX 14 16 2 0
BITMAP
FF00
FF00
0F00
0F00
3330
3330
C30C
C30C
C00C
C00C
C00C
C00C
3030
3030
0FC0
0FC0
ENDCHAR
STARTCHAR U+21BC
ENCODING 8636
SWIDTH 1920 0
DWIDTH 16 0
BBX 16 6 0 6
BITMAP
0F00
0F00
3C00
3C00
FFFF
FFFF
ENDCHAR
STARTCHAR U+21BD
ENCODING 8637
SWIDTH 1920 0
DWIDTH 16 0
BBX 16 6 0 2
BITMAP
FFFF
FFFF
3C00
3C00
0F00
0F00
ENDCHAR
STARTCHAR U+21BE
ENCODING 8638
SWIDTH 1920 0
DWIDTH 16 0
BBX 6 18 8 -2
BITMAP
C000
C000
F000
F000
FC00
FC00
CC00
CC00
C000
C000
C000
C000
C000
C000
C000
C000
C000
C000
ENDCHAR
STARTCHAR U+21BF
ENCODING 8639
SWIDTH 1920 0
DWIDTH 16 0
BBX 6 18 4 -2
BITMAP
0C00
0C00
3C00
3C00
FC00
FC00
CC00
CC00
0C00
0C00
0C00
0C00
0C00
0C00
0C00
0C00
0C00
0C00
ENDCHAR
STARTCHAR U+21C0
ENCODING 8640
SWIDTH 1920 0
DWIDTH 16 0
BBX 16 6 0 6
BITMAP
00F0
00F0
003C
003C
FFFF
FFFF
ENDCHAR
STARTCHAR U+21C1
ENCODING 8641
SWIDTH 1920 0
DWIDTH 16 0
BBX 16 6 0 2
BITMAP
FFFF
FFFF
003C
003C
00F0
00F0
ENDCHAR
STARTCHAR U+21C2
ENCODING 8642
SWIDTH 1920 0
DWIDTH 16 0
BBX 6 18 8 -2
BITMAP
C000
C000
C000
C000
C000
C000
C000
C000
C000
C000
CC00
CC00
FC00
FC00
F000
F000
C000
C000
ENDCHAR
STARTCHAR U+21C3
ENCODING 8643
SWIDTH 1920 0
DWIDTH 16 0
BBX 6 18 4 -2
BITMAP
0C00
0C00
0C00
0C00
0C00
0C00
0C00
0C00
0C00
0C00
CC00
CC00
FC00
FC00
3C00
3C00
0C00
0C00
ENDCHAR
STARTCHAR U+21C4
ENCODING 8644
SWIDTH 1920 0
DWIDTH 16 0
BBX 16 18 0 -2
BITMAP
0030
0030
003C
003C
FFFF
FFFF
003C
003C
0C30
0C30
3C00
3C00
FFFF
FFFF
3C00
3C00
0C00
0C00
ENDCHAR
STARTCHAR U+21C5
ENCODING 8645
SWIDTH 1920 0
DWIDTH 16 0
BBX 16 18 0 -2
BITMAP
0C30
0C30
3F30
3F30
FFF0
FFF0
0C30
0C30
0C30
0C30
0C30
0C30
0FFF
0FFF
0CFC
0CFC
0C30
0C30
ENDCHAR
STARTCHAR U+21C6
ENCODING 8646
SWIDTH 1920 0
DWIDTH 16 0
BBX 16 18 0 -2
BITMAP
0C00
0C00
3C00
3C00
FFFF
FFFF
3C00
3C00
0C30
0C30
003C
003C
FFFF
FFFF
003C
003C
0030
0030
ENDCHAR
STARTCHAR U+21C7
ENCODING 8647
SWIDTH 1920 0
DWIDTH 16 0
BBX 16 18 0 -2
BITMAP
0F00
0F00
3C00
3C00
FFFF
FFFF
3C00
3C00
0F00
0F00
3C00
3C00
FFFF
FFFF
3C00
3C00
0F00
0F00
ENDCHAR
STARTCHAR U+21C8
ENCODING 8648
SWIDTH 1920 0
DWIDTH 16 0
BBX 16 18 0 -2
BITMAP
0C30
0C30
3FFC
3FFC
FFFF
FFFF
CC33
CC33
0C30
0C30
0C30
0C30
0C30
0C30
0C30
0C30
0C30
0C30
ENDCHAR
STARTCHAR U+21C9
ENCODING 8649
SWIDTH 1920 0
DWIDTH 16 0
BBX 16 18 0 -2
BITMAP
00F0
00F0
003C
003C
FFFF
FFFF
003C
003C
00F0
00F0
003C
003C
FFFF
FFFF
003C
003C
00F0
00F0
ENDCHAR
STARTCHAR U+21CA
ENCODING 8650
SWIDTH 1920 0
DWIDTH 16 0
BBX 16 18 0 -2
BITMAP
0C30
0C30
0C30
0C30
0C30
0C30
0C30
0C30
0C30
0C30
CC33
CC33
FFFF
FFFF
3FFC
3FFC
0C30
0C30
ENDCHAR
STARTCHAR U+21CB
ENCODING 8651
SWIDTH 1920 0
DWIDTH 16 0
BBX 16 14 0 0
BITMAP
0F00
0F00
3C00
3C00
FFFF
FFFF
0000
0000
FFFF
FFFF
003C
003C
00F0
00F0
ENDCHAR
STARTCHAR U+21CC
ENCODING 8652
SWIDTH 1920 0
DWIDTH 16 0
BBX 16 14 0 0
BITMAP
00F0
00F0
003C
003C
FFFF
FFFF
0000
0000
FFFF
FFFF
3C00
3C00
0F00
0F00
ENDCHAR
STARTCHAR U+21CD
ENCODING 8653
SWIDTH 1920 0
DWIDTH 16 0
BBX 16 18 0 -2
BITMAP
00C0
00C0
00C0
00C0
0CC0
0CC0
3FFF
3FFF
F0C0
F0C0
3FFF
3FFF
0CC0
0CC0
00C0
00C0
00C0
00C0
ENDCHAR
STARTCHAR U+21CE
ENCODING 8654
SWIDTH 1920 0
DWIDTH 16 0
BBX 16 18 0 -2
BITMAP
00C0
00C0
00C0
00C0
0CF0
0CF0
3FFC
3FFC
F0CF
F0CF
3FFC
3FFC
0CF0
0CF0
00C0
00C0
00C0
00C0
ENDCHAR
STARTCHAR U+21CF
ENCODING 8655
SWIDTH 1920 0
DWIDTH 16 0
BBX 16 18 0 -2
BITMAP
0300
0300
0300
0300
0330
0330
FFFC
FFFC
030F
030F
FFFC
FFFC
0330
0330
0300
0300
0300
0300
ENDCHAR
STARTCHAR U+21D0
ENCODING 8656
SWIDTH 1920 0
DWIDTH 16 0
BBX 16 10 0 2
BITMAP
0C00
0C00
3FFF
3FFF
F000
F000
3FFF
3FFF
0C00
0C00
ENDCHAR
STARTCHAR U+21D1
ENCODING 8657
SWIDTH 1920 0
DWIDTH 16 0
BBX 10 18 4 -2
BITMAP
0C00
0C00
3F00
3F00
F3C0
F3C0
3300
3300
3300
3300
3300
3300
3300
3300
3300
3300
3300
3300
ENDCHAR
STARTCHAR U+21D2
ENCODING 8658
SWIDTH 1920 0
DWIDTH 16 0
BBX 16 10 0 2
BITMAP
0030
0030
FFFC
FFFC
000F
000F
FFFC
FFFC
0030
0030
ENDCHAR
STARTCHAR U+21D3
ENCODING 8659
SWIDTH 1920 0
DWIDTH 16 0
BBX 10 18 4 -2
BITMAP
3300
3300
3300
3300
3300
3300
3300
3300
3300
3300
3300
3300
F3C0
F3C0
3F00
3F00
0C00
0C00
ENDCHAR
STARTCHAR U+21D4
ENCODING 8660
SWIDTH 1920 0
DWIDTH 16 0
BBX 16 10 0 2
BITMAP
0C30
0C30
3FFC
3FFC
F00F
F00F
3FFC
3FFC
0C30
0C30
ENDCHAR
STARTCHAR U+21D5
ENCODING 8661
SWIDTH 1920 0
DWIDTH 16 0
BBX 10 18 4 -2
BITMAP
0C00
0C00
3F00
3F00
F3C0
F3C0
3300
3300
3300
3300
3300
3300
F3C0
F3C0
3F00
3F00
0C00
0C00
ENDCHAR
STARTCHAR U+21D6
ENCODING 8662
SWIDTH 1920 0
DWIDTH 16 0
BBX 14 14 2 0
BITMAP
FF00
FF00
CC00
CC00
F300
F300
CCC0
CCC0
0330
0330
00CC
00CC
0030
0030
ENDCHAR
STARTCHAR U+21D7
ENCODING 8663
SWIDTH 1920 0
DWIDTH 16 0
BBX 14 14 2 0
BITMAP
03FC
03FC
00CC
00CC
033C
033C
0CCC
0CCC
3300
3300
CC00
CC00
3000
3000
ENDCHAR
STARTCHAR U+21D8
ENCODING 8664
SWIDTH 1920 0
DWIDTH 16 0
BBX 14 14 2 0
BITMAP
3000
3000
CC00
CC00
3300
3300
0CCC
0CCC
033C
033C
00CC
00CC
03FC
03FC
ENDCHAR
STARTCHAR U+21D9
ENCODING 8665
SWIDTH 1920 0
DWIDTH 16 0
BBX 14 14 2 0
BITMAP
0030
0030
00CC
00CC
0330
0330
CCC0
CCC0
F300
F300
CC00
CC00
FF00
FF00
ENDCHAR
STARTCHAR U+21DA
ENCODING 8666
SWIDTH 1920 0
DWIDTH 16 0
BBX 16 14 0 0
BITMAP
00C0
00C0
FFF0
FFF0
003C
003C
FFFF
FFFF
003C
003C
FFF0
FFF0
00C0
00C0
ENDCHAR
STARTCHAR U+21DB
ENCODING 8667
SWIDTH 1920 0
DWIDTH 16 0
BBX 16 14 0 0
BITMAP
0300
0300
0FFF
0FFF
3C00
3C00
FFFF
FFFF
3C00
3C00
0FFF
0FFF
0300
0300
ENDCHAR
STARTCHAR U+21DC
ENCODING 8668
SWIDTH 1920 0
DWIDTH 16 0
BBX 16 10 0 2
BITMAP
0C00
0C00
3C0C
3C0C
FF33
FF33
3CC0
3CC0
0C00
0C00
ENDCHAR
STARTCHAR U+21DD
ENCODING 8669
SWIDTH 1920 0
DWIDTH 16 0
BBX 16 10 0 2
BITMAP
0030
0030
303C
303C
CCFF
CCFF
033C
033C
0030
0030
ENDCHAR
STARTCHAR U+21DE
ENCODING 8670
SWIDTH 1920 0
DWIDTH 16 0
BBX 10 18 4 -2
BITMAP
0C00
0C00
3F00
3F00
FFC0
FFC0
0C00
0C00
FFC0
FFC0
0C00
0C00
FFC0
FFC0
0C00
0C00
0C00
0C00
ENDCHAR
STARTCHAR U+21DF
ENCODING 8671
SWIDTH 1920 0
DWIDTH 16 0
BBX 10 18 4 -2
BITMAP
0C00
0C00
0C00
0C00
FFC0
FFC0
0C00
0C00
FFC0
FFC0
0C00
0C00
FFC0
FFC0
3F00
3F00
0C00
0C00
ENDCHAR
STARTCHAR U+21E0
ENCODING 8672
SWIDTH 1920 0
DWIDTH 16 0
BBX 16 10 0 2
BITMAP
0F00
0F00
3C00
3C00
F3CF
F3CF
3C00
3C00
0F00
0F00
ENDCHAR
STARTCHAR U+21E1
ENCODING 8673
SWIDTH 1920 0
DWIDTH 16 0
BBX 10 18 4 -2
BITMAP
0C00
0C00
3F00
3F00
FFC0
FFC0
CCC0
CCC0
0C00
0C00
0000
0000
0C00
0C00
0000
0000
0C00
0C00
ENDCHAR
STARTCHAR U+21E2
ENCODING 8674
SWIDTH 1920 0
DWIDTH 16 0
BBX 16 10 0 2
BITMAP
00F0
00F0
003C
003C
F3CF
F3CF
003C
003C
00F0
00F0
ENDCHAR
STARTCHAR U+21E3
ENCODING 8675
SWIDTH 1920 0
DWIDTH 16 0
BBX 10 18 4 -2
BITMAP
0C00
0C00
0000
0000
0C00
0C00
0000
0000
0C00
0C00
CCC0
CCC0
FFC0
FFC0
3F00
3F00
0C00
0C00
ENDCHAR
STARTCHAR U+21E4
ENCODING 8676
SWIDTH 1920 0
DWIDTH 16 0
BBX 16 10 0 2
BITMAP
C3C0
C3C0
CF00
CF00
FFFF
FFFF
CF00
CF00
C3C0
C3C0
ENDCHAR
STARTCHAR U+21E5
ENCODING 8677
SWIDTH 1920 0
DWIDTH 16 0
BBX 16 10 0 2
BITMAP
03C3
03C3
00F3
00F3
FFFF
FFFF
00F3
00F3
03C3
03C3
ENDCHAR
STARTCHAR U+21E6
ENCODING 8678
SWIDTH 1920 0
DWIDTH 16 0
BBX 16 14 0 0
BITMAP
0300
0300
0F00
0F00
33FF
33FF
C003
C003
33FF
33FF
0F00
0F00
0300
0300
ENDCHAR
STARTCHAR U+21E7
ENCODING 8679
SWIDTH 1920 0
DWIDTH 16 0
BBX 14 22 2 -4
BITMAP
0300
0300
0CC0
0CC0
3030
3030
FCFC
FCFC
0CC0
0CC0
0CC0
0CC0
0CC0
0CC0
0CC0
0CC0
0CC0
0CC0
0CC0
0CC0
0FC0
0FC0
ENDCHAR
STARTCHAR U+21E8
ENCODING 8680
SWIDTH 1920 0
DWIDTH 16 0
BBX 16 14 0 0
BITMAP
00C0
00C0
00F0
00F0
FFCC
FFCC
C003
C003
FFCC
FFCC
00F0
00F0
00C0
00C0
ENDCHAR
STARTCHAR U+21E9
ENCODING 8681
SWIDTH 1920 0
DWIDTH 16 0
BBX 14 22 2 -4
BITMAP
0FC0
0FC0
0CC0
0CC0
0CC0
0CC0
0CC0
0CC0
0CC0
0CC0
0CC0
0CC0
0CC0
0CC0
FCFC
FCFC
3030
3030
0CC0
0CC0
0300
0300
ENDCHAR
STARTCHAR U+21EA
ENCODING 8682
SWIDTH 1920 0
DWIDTH 16 0
BBX 14 22 2 -4
BITMAP
0300
0300
0CC0
0CC0
3030
3030
FCFC
FCFC
0CC0
0CC0
0CC0
0CC0
0FC0
0FC0
0000
0000
0FC0
0FC0
0CC0
0CC0
0FC0
0FC0
ENDCHAR
STARTCHAR U+21EB
ENCODING 8683
SWIDTH 1920 0
DWIDTH 16 0
BBX 14 22 2 -4
BITMAP
0300
0300
0CC0
0CC0
3030
3030
FCFC
FCFC
0CC0
0CC0
0CC0
0CC0
0CC0
0CC0
0CC0
0CC0
3CF0
3CF0
3030
3030
3FF0
3FF0
ENDCHAR
STARTCHAR U+21EC
ENCODING 8684
SWIDTH 1920 0
DWIDTH 16 0
BBX 14 22 2 -4
BITMAP
0300
0300
0CC0
0CC0
3FF0
3FF0
FCFC
FCFC
0CC0
0CC0
0CC0
0CC0
0CC0
0CC0
0CC0
0CC0
3CF0
3CF0
3030
3030
3FF0
3FF0
ENDCHAR
STARTCHAR U+21ED
ENCODING 8685
SWIDTH 1920 0
DWIDTH 16 0
BBX 14 22 2 -4
BITMAP
0300
0300
0FC0
0FC0
3330
3330
F33C
F33C
3330
3330
3330
3330
3330
3330
3330
3330
F33C
F33C
C30C
C30C
FFFC
FFFC
ENDCHAR
STARTCHAR U+21EE
ENCODING 8686
SWIDTH 1920 0
DWIDTH 16 0
BBX 14 22 2 -4
BITMAP
0300
0300
0CC0
0CC0
3330
3330
CCCC
CCCC
3030
3030
FCFC
FCFC
0CC0
0CC0
0CC0
0CC0
0CC0
0CC0
0CC0
0CC0
0FC0
0FC0
ENDCHAR
STARTCHAR U+21EF
ENCODING 8687
SWIDTH 1920 0
DWIDTH 16 0
BBX 14 22 2 -4
BITMAP
0300
0300
0CC0
0CC0
3330
3330
CCCC
CCCC
3030
3030
FCFC
FCFC
0CC0
0CC0
0CC0
0CC0
3CF0
3CF0
3030
3030
3FF0
3FF0
ENDCHAR
STARTCHAR U+21F0
ENCODING 8688
SWIDTH 1920 0
DWIDTH 16 0
BBX 16 14 0 0
BITMAP
00C0
00C0
FCF0
FCF0
CFCC
CFCC
C003
C003
CFCC
CFCC
FCF0
FCF0
00C0
00C0
ENDCHAR
STARTCHAR U+21F1
ENCODING 8689
SWIDTH 1920 0
DWIDTH 16 0
BBX 16 16 0 0
BITMAP
FFFF
FFFF
C000
C000
CFF0
CFF0
CF00
CF00
CCC0
CCC0
CC30
CC30
C00C
C00C
C003
C003
ENDCHAR
STARTCHAR U+21F2
ENCODING 8690
SWIDTH 1920 0
DWIDTH 16 0
BBX 16 16 0 0
BITMAP
C003
C003
3003
3003
0C33
0C33
0333
0333
00F3
00F3
0FF3
0FF3
0003
0003
FFFF
FFFF
ENDCHAR
STARTCHAR U+21F3
ENCODING 8691
SWIDTH 1920 0
DWIDTH 16 0
BBX 14 22 2 -4
BITMAP
0300
0300
0CC0
0CC0
3030
3030
FCFC
FCFC
0CC0
0CC0
0CC0
0CC0
0CC0
0CC0
FCFC
FCFC
3030
3030
0CC0
0CC0
0300
0300
ENDCHAR
STARTCHAR U+21F5
ENCODING 8693
SWIDTH 1920 0
DWIDTH 16 0
BBX 16 18 0 -2
BITMAP
0C30
0C30
0CFC
0CFC
0FFF
0FFF
0C30
0C30
0C30
0C30
0C30
0C30
FFF0
FFF0
3F30
3F30
0C30
0C30
ENDCHAR
STARTCHAR U+21F6
ENCODING 8694
SWIDTH 1920 0
DWIDTH 16 0
BBX 16 18 0 -2
BITMAP
00F0
00F0
003C
003C
FFFF
FFFF
003C
003C
FFFF
FFFF
003C
003C
FFFF
FFFF
003C
003C
00F0
00F0
ENDCHAR
STARTCHAR U+21F7
ENCODING 8695
SWIDTH 1920 0
DWIDTH 16 0
BBX 16 10 0 2
BITMAP
0C30
0C30
3C30
3C30
FFFF
FFFF
3C30
3C30
0C30
0C30
ENDCHAR
STARTCHAR U+21F8
ENCODING 8696
SWIDTH 1920 0
DWIDTH 16 0
BBX 16 10 0 2
BITMAP
0C30
0C30
0C3C
0C3C
FFFF
FFFF
0C3C
0C3C
0C30
0C30
ENDCHAR
STARTCHAR U+21FD
ENCODING 8701
SWIDTH 1920 0
DWIDTH 16 0
BBX 16 10 0 2
BITMAP
0C00
0C00
3C00
3C00
CFFF
CFFF
3C00
3C00
0C00
0C00
ENDCHAR
STARTCHAR U+21FE
ENCODING 8702
SWIDTH 1920 0
DWIDTH 16 0
BBX 16 10 0 2
BITMAP
0030
0030
003C
003C
FFF3
FFF3
003C
003C
0030
0030
ENDCHAR
STARTCHAR U+21FF
ENCODING 8703
SWIDTH 1920 0
DWIDTH 16 0
BBX 16 10 0 2
BITMAP
0C30
0C30
3C3C
3C3C
CFF3
CFF3
3C3C
3C3C
0C30
0C30
ENDCHAR
STARTCHAR U+2202
ENCODING 8706
SWIDTH 1920 0
DWIDTH 16 0
BBX 12 14 2 0
BITMAP
0FC0
0FC0
3CF0
3CF0
00F0
00F0
3FF0
3FF0
F0F0
F0F0
F0C0
F0C0
3F00
3F00
ENDCHAR
STARTCHAR U+2205
ENCODING 8709
SWIDTH 1920 0
DWIDTH 16 0
BBX 16 14 0 0
BITMAP
0FCF
0FCF
3C3C
3C3C
F0FF
F0FF
F3CF
F3CF
FF0F
FF0F
3C3C
3C3C
F3F0
F3F0
ENDCHAR
STARTCHAR U+2206
ENCODING 8710
SWIDTH 1920 0
DWIDTH 16 0
BBX 16 14 0 0
BITMAP
03C0
03C0
03C0
03C0
0F30
0F30
0F30
0F30
3C0C
3C0C
3C0C
3C0C
FFFF
FFFF
ENDCHAR
STARTCHAR U+2207
ENCODING 8711
SWIDTH 1920 0
DWIDTH 16 0
BBX 16 14 0 0
BITMAP
FFFF
FFFF
3C0C
3C0C
3C0C
3C0C
0F30
0F30
0F30
0F30
03C0
03C0
03C0
03C0
ENDCHAR
STARTCHAR U+2208
ENCODING 8712
SWIDTH 1920 0
DWIDTH 16 0
BBX 12 14 2 0
BITMAP
3FF0
3FF0
F000
F000
F000
F000
FFF0
FFF0
F000
F000
F000
F000
3FF0
3FF0
ENDCHAR
STARTCHAR U+220A
ENCODING 8714
SWIDTH 1920 0
DWIDTH 16 0
BBX 12 10 2 2
BITMAP
3FF0
3FF0
F000
F000
FFF0
FFF0
F000
F000
3FF0
3FF0
ENDCHAR
STARTCHAR U+220B
ENCODING 8715
SWIDTH 1920 0
DWIDTH 16 0
BBX 12 14 2 0
BITMAP
FFC0
FFC0
00F0
00F0
00F0
00F0
FFF0
FFF0
00F0
00F0
00F0
00F0
FFC0
FFC0
ENDCHAR
STARTCHAR U+220D
ENCODING 8717
SWIDTH 1920 0
DWIDTH 16 0
BBX 12 10 2 2
BITMAP
FFC0
FFC0
00F0
00F0
FFF0
FFF0
00F0
00F0
FFC0
FFC0
ENDCHAR
STARTCHAR U+220F
ENCODING 8719
SWIDTH 1920 0
DWIDTH 16 0
BBX 12 20 2 -4
BITMAP
FFF0
FFF0
F0F0
F0F0
F0F0
F0F0
F0F0
F0F0
F0F0
F0F0
F0F0
F0F0
F0F0
F0F0
F0F0
F0F0
F0F0
F0F0
F0F0
F0F0
ENDCHAR
STARTCHAR U+2210
ENCODING 8720
SWIDTH 1920 0
DWIDTH 16 0
BBX 12 20 2 -4
BITMAP
F0F0
F0F0
F0F0
F0F0
F0F0
F0F0
F0F0
F0F0
F0F0
F0F0
F0F0
F0F0
F0F0
F0F0
F0F0
F0F0
F0F0
F0F0
FFF0
FFF0
ENDCHAR
STARTCHAR U+2211
ENCODING 8721
SWIDTH 1920 0
DWIDTH 16 0
BBX 12 20 2 -4
BITMAP
FFF0
FFF0
F030
F030
3C00
3C00
3C00
3C00
0F00
0F00
0F00
0F00
3C00
3C00
3C00
3C00
F030
F030
FFF0
FFF0
ENDCHAR
STARTCHAR U+2212
ENCODING 8722
SWIDTH 1920 0
DWIDTH 16 0
BBX 12 2 2 6
BITMAP
FFF0
FFF0
ENDCHAR
STARTCHAR U+2213
ENCODING 8723
SWIDTH 1920 0
DWIDTH 16 0
BBX 12 14 2 0
BITMAP
FFF0
FFF0
0000
0000
0F00
0F00
0F00
0F00
FFF0
FFF0
0F00
0F00
0F00
0F00
ENDCHAR
STARTCHAR U+2214
ENCODING 8724
SWIDTH 1920 0
DWIDTH 16 0
BBX 12 16 2 0
BITMAP
0F00
0F00
0F00
0F00
0000
0000
0F00
0F00
0F00
0F00
FFF0
FFF0
0F00
0F00
0F00
0F00
ENDCHAR
STARTCHAR U+2215
ENCODING 8725
SWIDTH 1920 0
DWIDTH 16 0
BBX 12 14 2 0
BITMAP
0030
0030
00F0
00F0
03C0
03C0
0F00
0F00
3C00
3C00
F000
F000
C000
C000
ENDCHAR
STARTCHAR U+2216
ENCODING 8726
SWIDTH 1920 0
DWIDTH 16 0
BBX 12 14 2 0
BITMAP
C000
C000
F000
F000
3C00
3C00
0F00
0F00
03C0
03C0
00F0
00F0
0030
0030
ENDCHAR
STARTCHAR U+2217
ENCODING 8727
SWIDTH 1920 0
DWIDTH 16 0
BBX 12 10 2 2
BITMAP
0F00
0F00
CF30
CF30
3FC0
3FC0
CF30
CF30
0F00
0F00
ENDCHAR
STARTCHAR U+2218
ENCODING 8728
SWIDTH 1920 0
DWIDTH 16 0
BBX 12 8 2 2
BITMAP
3FC0
3FC0
F0F0
F0F0
F0F0
F0F0
3FC0
3FC0
ENDCHAR
STARTCHAR U+2219
ENCODING 8729
SWIDTH 1920 0
DWIDTH 16 0
BBX 8 8 4 2
BITMAP
3C00
3C00
FF00
FF00
FF00
FF00
3C00
3C00
ENDCHAR
STARTCHAR U+221A
ENCODING 8730
SWIDTH 1920 0
DWIDTH 16 0
BBX 12 16 2 0
BITMAP
03F0
03F0
03C0
03C0
03C0
03C0
33C0
33C0
FFC0
FFC0
0FC0
0FC0
03C0
03C0
00C0
00C0
ENDCHAR
STARTCHAR U+221B
ENCODING 8731
SWIDTH 1920 0
DWIDTH 16 0
BBX 14 20 0 0
BITMAP
F000
F000
0C00
0C00
30FC
30FC
0CF0
0CF0
F0F0
F0F0
00F0
00F0
3FF0
3FF0
03F0
03F0
00F0
00F0
0030
0030
ENDCHAR
STARTCHAR U+221C
ENCODING 8732
SWIDTH 1920 0
DWIDTH 16 0
BBX 14 20 0 0
BITMAP
C000
C000
CC00
CC00
FCFC
FCFC
0CF0
0CF0
0CF0
0CF0
00F0
00F0
3FF0
3FF0
03F0
03F0
00F0
00F0
0030
0030
ENDCHAR
STARTCHAR U+221D
ENCODING 8733
SWIDTH 1920 0
DWIDTH 16 0
BBX 14 8 0 2
BITMAP
3F3C
3F3C
F3C0
F3C0
F3C0
F3C0
3CFC
3CFC
ENDCHAR
STARTCHAR U+221E
ENCODING 8734
SWIDTH 1920 0
DWIDTH 16 0
BBX 16 8 0 2
BITMAP
3F3C
3F3C
F3CF
F3CF
F3CF
F3CF
3CFC
3CFC
ENDCHAR
STARTCHAR U+221F
ENCODING 8735
SWIDTH 1920 0
DWIDTH 16 0
BBX 12 10 2 0
BITMAP
F000
F000
F000
F000
F000
F000
F000
F000
FFF0
FFF0
ENDCHAR
STARTCHAR U+2220
ENCODING 8736
SWIDTH 1920 0
DWIDTH 16 0
BBX 12 12 2 0
BITMAP
0030
0030
00F0
00F0
03C0
03C0
0F00
0F00
3C00
3C00
FFF0
FFF0
ENDCHAR
STARTCHAR U+2223
ENCODING 8739
SWIDTH 1920 0
DWIDTH 16 0
BBX 4 18 6 -2
BITMAP
F000
F000
F000
F000
F000
F000
F000
F000
F000
F000
F000
F000
F000
F000
F000
F000
F000
F000
ENDCHAR
STARTCHAR U+2225
ENCODING 8741
SWIDTH 1920 0
DWIDTH 16 0
BBX 12 18 2 -2
BITMAP
F0F0
F0F0
F0F0
F0F0
F0F0
F0F0
F0F0
F0F0
F0F0
F0F0
F0F0
F0F0
F0F0
F0F0
F0F0
F0F0
F0F0
F0F0
ENDCHAR
STARTCHAR U+2226
ENCODING 8742
SWIDTH 1920 0
DWIDTH 16 0
BBX 16 18 0 -2
BITMAP
3C3C
3C3C
3C3F
3C3F
3C3C
3C3C
3CFC
3CFC
3FFC
3FFC
3F3C
3F3C
3C3C
3C3C
FC3C
FC3C
3C3C
3C3C
ENDCHAR
STARTCHAR U+2227
ENCODING 8743
SWIDTH 1920 0
DWIDTH 16 0
BBX 12 12 2 0
BITMAP
0F00
0F00
0F00
0F00
3CC0
3CC0
3CC0
3CC0
F030
F030
F030
F030
ENDCHAR
STARTCHAR U+2228
ENCODING 8744
SWIDTH 1920 0
DWIDTH 16 0
BBX 12 12 2 0
BITMAP
F030
F030
F030
F030
3CC0
3CC0
3CC0
3CC0
0F00
0F00
0F00
0F00
ENDCHAR
STARTCHAR U+2229
ENCODING 8745
SWIDTH 1920 0
DWIDTH 16 0
BBX 12 12 2 0
BITMAP
3FC0
3FC0
F0F0
F0F0
F0F0
F0F0
F0F0
F0F0
F0F0
F0F0
F0F0
F0F0
ENDCHAR
STARTCHAR U+222A
ENCODING 8746
SWIDTH 1920 0
DWIDTH 16 0
BBX 12 12 2 0
BITMAP
F0F0
F0F0
F0F0
F0F0
F0F0
F0F0
F0F0
F0F0
F0F0
F0F0
3FC0
3FC0
ENDCHAR
STARTCHAR U+222B
ENCODING 8747
SWIDTH 1920 0
DWIDTH 16 0
BBX 16 22 0 -4
BITMAP
00FC
00FC
03CF
03CF
03C0
03C0
03C0
03C0
03C0
03C0
03C0
03C0
03C0
03C0
03C0
03C0
03C0
03C0
F3C0
F3C0
3F00
3F00
ENDCHAR
STARTCHAR U+222C
ENCODING 8748
SWIDTH 1920 0
DWIDTH 16 0
BBX 14 22 2 -4
BITMAP
0F3C
0F3C
3CF0
3CF0
3CF0
3CF0
3CF0
3CF0
3CF0
3CF0
3CF0
3CF0
3CF0
3CF0
3CF0
3CF0
3CF0
3CF0
3CF0
3CF0
F3C0
F3C0
ENDCHAR
STARTCHAR U+222D
ENCODING 8749
SWIDTH 1920 0
DWIDTH 16 0
BBX 14 22 2 -4
BITMAP
0CCC
0CCC
3330
3330
3330
3330
3330
3330
3330
3330
3330
3330
3330
3330
3330
3330
3330
3330
3330
3330
CCC0
CCC0
ENDCHAR
STARTCHAR U+222E
ENCODING 8750
SWIDTH 1920 0
DWIDTH 16 0
BBX 16 22 0 -4
BITMAP
00FC
00FC
03CF
03CF
03C0
03C0
03C0
03C0
3FFC
3FFC
F3CF
F3CF
3FFC
3FFC
03C0
03C0
03C0
03C0
F3C0
F3C0
3F00
3F00
ENDCHAR
STARTCHAR U+222F
ENCODING 8751
SWIDTH 1920 0
DWIDTH 16 0
BBX 14 22 2 -4
BITMAP
0F3C
0F3C
3CF0
3CF0
3CF0
3CF0
3CF0
3CF0
3FF0
3FF0
FCFC
FCFC
3FF0
3FF0
3CF0
3CF0
3CF0
3CF0
3CF0
3CF0
F3C0
F3C0
ENDCHAR
STARTCHAR U+2230
ENCODING 8752
SWIDTH 1920 0
DWIDTH 16 0
BBX 14 22 2 -4
BITMAP
0CCC
0CCC
3330
3330
3330
3330
3330
3330
3FF0
3FF0
F33C
F33C
3FF0
3FF0
3330
3330
3330
3330
3330
3330
CCC0
CCC0
ENDCHAR
STARTCHAR U+2234
ENCODING 8756
SWIDTH 1920 0
DWIDTH 16 0
BBX 12 12 2 0
BITMAP
0F00
0F00
0F00
0F00
0000
0000
0000
0000
F0F0
F0F0
F0F0
F0F0
ENDCHAR
STARTCHAR U+2235
ENCODING 8757
SWIDTH 1920 0
DWIDTH 16 0
BBX 12 12 2 0
BITMAP
F0F0
F0F0
F0F0
F0F0
0000
0000
0000
0000
0F00
0F00
0F00
0F00
ENDCHAR
STARTCHAR U+223E
ENCODING 8766
SWIDTH 1920 0
DWIDTH 16 0
BBX 16 8 0 2
BITMAP
3C3C
3C3C
F30F
F30F
F0CF
F0CF
3C3C
3C3C
ENDCHAR
STARTCHAR U+2248
ENCODING 8776
SWIDTH 1920 0
DWIDTH 16 0
BBX 12 10 2 2
BITMAP
3CF0
3CF0
F3C0
F3C0
0000
0000
3CF0
3CF0
F3C0
F3C0
ENDCHAR
STARTCHAR U+224D
ENCODING 8781
SWIDTH 1920 0
DWIDTH 16 0
BBX 12 10 2 2
BITMAP
F0F0
F0F0
3FC0
3FC0
0000
0000
3FC0
3FC0
F0F0
F0F0
ENDCHAR
STARTCHAR U+2260
ENCODING 8800
SWIDTH 1920 0
DWIDTH 16 0
BBX 12 12 2 0
BITMAP
03C0
03C0
FFF0
FFF0
0F00
0F00
0F00
0F00
FFF0
FFF0
3C00
3C00
ENDCHAR
STARTCHAR U+2261
ENCODING 8801
SWIDTH 1920 0
DWIDTH 16 0
BBX 12 10 2 2
BITMAP
FFF0
FFF0
0000
0000
FFF0
FFF0
0000
0000
FFF0
FFF0
ENDCHAR
STARTCHAR U+2262
ENCODING 8802
SWIDTH 1920 0
DWIDTH 16 0
BBX 12 14 2 0
BITMAP
00C0
00C0
FFF0
FFF0
0300
0300
FFF0
FFF0
0C00
0C00
FFF0
FFF0
3000
3000
ENDCHAR
STARTCHAR U+2263
ENCODING 8803
SWIDTH 1920 0
DWIDTH 16 0
BBX 12 14 2 0
BITMAP
FFF0
FFF0
0000
0000
FFF0
FFF0
0000
0000
FFF0
FFF0
0000
0000
FFF0
FFF0
ENDCHAR
STARTCHAR U+2264
ENCODING 8804
SWIDTH 1920 0
DWIDTH 16 0
BBX 12 14 2 0
BITMAP
00F0
00F0
0F00
0F00
F000
F000
0F00
0F00
00F0
00F0
0000
0000
FFF0
FFF0
ENDCHAR
STARTCHAR U+2265
ENCODING 8805
SWIDTH 1920 0
DWIDTH 16 0
BBX 12 14 2 0
BITMAP
F000
F000
0F00
0F00
00F0
00F0
0F00
0F00
F000
F000
0000
0000
FFF0
FFF0
ENDCHAR
STARTCHAR U+2282
ENCODING 8834
SWIDTH 1920 0
DWIDTH 16 0
BBX 12 10 2 2
BITMAP
3FF0
3FF0
F000
F000
F000
F000
F000
F000
3FF0
3FF0
ENDCHAR
STARTCHAR U+2283
ENCODING 8835
SWIDTH 1920 0
DWIDTH 16 0
BBX 12 10 2 2
BITMAP
FFC0
FFC0
00F0
00F0
00F0
00F0
00F0
00F0
FFC0
FFC0
ENDCHAR
STARTCHAR U+2286
ENCODING 8838
SWIDTH 1920 0
DWIDTH 16 0
BBX 12 14 2 -2
BITMAP
3FF0
3FF0
F000
F000
F000
F000
F000
F000
3FF0
3FF0
0000
0000
FFF0
FFF0
ENDCHAR
STARTCHAR U+2287
ENCODING 8839
SWIDTH 1920 0
DWIDTH 16 0
BBX 12 14 2 -2
BITMAP
FFC0
FFC0
00F0
00F0
00F0
00F0
00F0
00F0
FFC0
FFC0
0000
0000
FFF0
FFF0
ENDCHAR
STARTCHAR U+228F
ENCODING 8847
SWIDTH 1920 0
DWIDTH 16 0
BBX 12 10 2 2
BITMAP
FFF0
FFF0
F000
F000
F000
F000
F000
F000
FFF0
FFF0
ENDCHAR
STARTCHAR U+2290
ENCODING 8848
SWIDTH 1920 0
DWIDTH 16 0
BBX 12 10 2 2
BITMAP
FFF0
FFF0
00F0
00F0
00F0
00F0
00F0
00F0
FFF0
FFF0
ENDCHAR
STARTCHAR U+2291
ENCODING 8849
SWIDTH 1920 0
DWIDTH 16 0
BBX 12 14 2 -2
BITMAP
FFF0
FFF0
F000
F000
F000
F000
F000
F000
FFF0
FFF0
0000
0000
FFF0
FFF0
ENDCHAR
STARTCHAR U+2292
ENCODING 8850
SWIDTH 1920 0
DWIDTH 16 0
BBX 12 14 2 -2
BITMAP
FFF0
FFF0
00F0
00F0
00F0
00F0
00F0
00F0
FFF0
FFF0
0000
0000
FFF0
FFF0
ENDCHAR
STARTCHAR U+2293
ENCODING 8851
SWIDTH 1920 0
DWIDTH 16 0
BBX 12 12 2 0
BITMAP
FFF0
FFF0
F0F0
F0F0
F0F0
F0F0
F0F0
F0F0
F0F0
F0F0
F0F0
F0F0
ENDCHAR
STARTCHAR U+2294
ENCODING 8852
SWIDTH 1920 0
DWIDTH 16 0
BBX 12 12 2 0
BITMAP
F0F0
F0F0
F0F0
F0F0
F0F0
F0F0
F0F0
F0F0
F0F0
F0F0
FFF0
FFF0
ENDCHAR
STARTCHAR U+2295
ENCODING 8853
SWIDTH 1920 0
DWIDTH 16 0
BBX 16 14 0 0
BITMAP
0FF0
0FF0
3CCC
3CCC
F0C3
F0C3
FFFF
FFFF
F0C3
F0C3
3CCC
3CCC
0FF0
0FF0
ENDCHAR
STARTCHAR U+2296
ENCODING 8854
SWIDTH 1920 0
DWIDTH 16 0
BBX 16 14 0 0
BITMAP
0FF0
0FF0
3C3C
3C3C
F00F
F00F
FFFF
FFFF
F00F
F00F
3C3C
3C3C
0FF0
0FF0
ENDCHAR
STARTCHAR U+2297
ENCODING 8855
SWIDTH 1920 0
DWIDTH 16 0
BBX 16 14 0 0
BITMAP
0FF0
0FF0
3C0C
3C0C
F333
F333
F0C3
F0C3
F333
F333
3C0C
3C0C
0FF0
0FF0
ENDCHAR
STARTCHAR U+2298
ENCODING 8856
SWIDTH 1920 0
DWIDTH 16 0
BBX 16 14 0 0
BITMAP
0FF0
0FF0
3C3C
3C3C
F0FF
F0FF
F3CF
F3CF
FF0F
FF0F
3C3C
3C3C
0FF0
0FF0
ENDCHAR
STARTCHAR U+2299
ENCODING 8857
SWIDTH 1920 0
DWIDTH 16 0
BBX 16 14 0 0
BITMAP
0FF0
0FF0
3C0C
3C0C
F003
F003
F0C3
F0C3
F003
F003
3C0C
3C0C
0FF0
0FF0
ENDCHAR
STARTCHAR U+229A
ENCODING 8858
SWIDTH 1920 0
DWIDTH 16 0
BBX 16 14 0 0
BITMAP
0FF0
0FF0
3C0C
3C0C
F0C3
F0C3
F333
F333
F0C3
F0C3
3C0C
3C0C
0FF0
0FF0
ENDCHAR
STARTCHAR U+229B
ENCODING 8859
SWIDTH 1920 0
DWIDTH 16 0
BBX 16 16 0 0
BITMAP
0FF0
0FF0
3C0C
3C0C
F0C3
F0C3
FFFF
FFFF
F0C3
F0C3
F333
F333
3C0C
3C0C
0FF0
0FF0
ENDCHAR
STARTCHAR U+229C
ENCODING 8860
SWIDTH 1920 0
DWIDTH 16 0
BBX 16 14 0 0
BITMAP
0FF0
0FF0
3C3C
3C3C
F3CF
F3CF
F00F
F00F
F3CF
F3CF
3C3C
3C3C
0FF0
0FF0
ENDCHAR
STARTCHAR U+229D
ENCODING 8861
SWIDTH 1920 0
DWIDTH 16 0
BBX 16 14 0 0
BITMAP
0FF0
0FF0
3C3C
3C3C
F00F
F00F
F3CF
F3CF
F00F
F00F
3C3C
3C3C
0FF0
0FF0
ENDCHAR
STARTCHAR U+229E
ENCODING 8862
SWIDTH 1920 0
DWIDTH 16 0
BBX 14 14 2 0
BITMAP
FFFC
FFFC
C30C
C30C
C30C
C30C
FFFC
FFFC
C30C
C30C
C30C
C30C
FFFC
FFFC
ENDCHAR
STARTCHAR U+229F
ENCODING 8863
SWIDTH 1920 0
DWIDTH 16 0
BBX 16 14 0 0
BITMAP
FFFF
FFFF
F00F
F00F
F00F
F00F
FFFF
FFFF
F00F
F00F
F00F
F00F
FFFF
FFFF
ENDCHAR
STARTCHAR U+22A0
ENCODING 8864
SWIDTH 1920 0
DWIDTH 16 0
BBX 14 14 2 0
BITMAP
FFFC
FFFC
F03C
F03C
CCCC
CCCC
C30C
C30C
CCCC
CCCC
F03C
F03C
FFFC
FFFC
ENDCHAR
STARTCHAR U+22A1
ENCODING 8865
SWIDTH 1920 0
DWIDTH 16 0
BBX 14 14 2 0
BITMAP
FFFC
FFFC
C00C
C00C
C00C
C00C
C30C
C30C
C00C
C00C
C00C
C00C
FFFC
FFFC
ENDCHAR
STARTCHAR U+22A2
ENCODING 8866
SWIDTH 1920 0
DWIDTH 16 0
BBX 12 10 2 2
BITMAP
F000
F000
F000
F000
FFF0
FFF0
F000
F000
F000
F000
ENDCHAR
STARTCHAR U+22A3
ENCODING 8867
SWIDTH 1920 0
DWIDTH 16 0
BBX 12 10 2 2
BITMAP
00F0
00F0
00F0
00F0
FFF0
FFF0
00F0
00F0
00F0
00F0
ENDCHAR
STARTCHAR U+22A4
ENCODING 8868
SWIDTH 1920 0
DWIDTH 16 0
BBX 12 12 2 0
BITMAP
FFF0
FFF0
0F00
0F00
0F00
0F00
0F00
0F00
0F00
0F00
0F00
0F00
ENDCHAR
STARTCHAR U+22A5
ENCODING 8869
SWIDTH 1920 0
DWIDTH 16 0
BBX 12 12 2 0
BITMAP
0F00
0F00
0F00
0F00
0F00
0F00
0F00
0F00
0F00
0F00
FFF0
FFF0
ENDCHAR
STARTCHAR U+22B8
ENCODING 8888
SWIDTH 1920 0
DWIDTH 16 0
BBX 16 8 0 2
BITMAP
00FC
00FC
FFCF
FFCF
03CF
03CF
00FC
00FC
ENDCHAR
STARTCHAR U+22BB
ENCODING 8891
SWIDTH 1920 0
DWIDTH 16 0
BBX 12 12 2 0
BITMAP
F030
F030
F030
F030
3CC0
3CC0
3CC0
3CC0
0F00
0F00
FFF0
FFF0
ENDCHAR
STARTCHAR U+22C4
ENCODING 8900
SWIDTH 1920 0
DWIDTH 16 0
BBX 14 14 2 0
BITMAP
0300
0300
0FC0
0FC0
3CF0
3CF0
F03C
F03C
3CF0
3CF0
0FC0
0FC0
0300
0300
ENDCHAR
STARTCHAR U+22C5
ENCODING 8901
SWIDTH 1920 0
DWIDTH 16 0
BBX 4 4 6 4
BITMAP
F000
F000
F000
F000
ENDCHAR
STARTCHAR U+22C6
ENCODING 8902
SWIDTH 1920 0
DWIDTH 16 0
BBX 12 12 2 2
BITMAP
0F00
0F00
0F00
0F00
FFF0
FFF0
3FC0
3FC0
3FC0
3FC0
30C0
30C0
ENDCHAR
STARTCHAR U+22C8
ENCODING 8904
SWIDTH 1920 0
DWIDTH 16 0
BBX 14 14 2 0
BITMAP
C00C
C00C
F03C
F03C
CCCC
CCCC
C30C
C30C
CCCC
CCCC
F03C
F03C
C00C
C00C
ENDCHAR
STARTCHAR U+22D4
ENCODING 8916
SWIDTH 1920 0
DWIDTH 16 0
BBX 14 18 2 -2
BITMAP
0300
0300
0300
0300
3FF0
3FF0
F33C
F33C
F33C
F33C
F33C
F33C
F33C
F33C
F33C
F33C
0300
0300
ENDCHAR
STARTCHAR U+22D5
ENCODING 8917
SWIDTH 1920 0
DWIDTH 16 0
BBX 16 18 0 -2
BITMAP
3C3C
3C3C
3C3C
3C3C
3C3C
3C3C
FFFF
FFFF
3C3C
3C3C
3C3C
3C3C
FFFF
FFFF
3C3C
3C3C
3C3C
3C3C
ENDCHAR
STARTCHAR U+22EF
ENCODING 8943
SWIDTH 1920 0
DWIDTH 16 0
BBX 16 4 0 4
BITMAP
F3CF
F3CF
F3CF
F3CF
ENDCHAR
STARTCHAR U+2302
ENCODING 8962
SWIDTH 1920 0
DWIDTH 16 0
BBX 14 12 2 0
BITMAP
0300
0300
0FC0
0FC0
3CF0
3CF0
F03C
F03C
F03C
F03C
FFFC
FFFC
ENDCHAR
STARTCHAR U+2305
ENCODING 8965
SWIDTH 1920 0
DWIDTH 16 0
BBX 12 12 2 0
BITMAP
FFF0
FFF0
0F00
0F00
3CC0
3CC0
3CC0
3CC0
F030
F030
F030
F030
ENDCHAR
STARTCHAR U+2308
ENCODING 8968
SWIDTH 1920 0
DWIDTH 16 0
BBX 8 18 4 -2
BITMAP
FF00
FF00
F000
F000
F000
F000
F000
F000
F000
F000
F000
F000
F000
F000
F000
F000
F000
F000
ENDCHAR
STARTCHAR U+2309
ENCODING 8969
SWIDTH 1920 0
DWIDTH 16 0
BBX 8 18 4 -2
BITMAP
FF00
FF00
0F00
0F00
0F00
0F00
0F00
0F00
0F00
0F00
0F00
0F00
0F00
0F00
0F00
0F00
0F00
0F00
ENDCHAR
STARTCHAR U+230A
ENCODING 8970
SWIDTH 1920 0
DWIDTH 16 0
BBX 8 18 4 -2
BITMAP
F000
F000
F000
F000
F000
F000
F000
F000
F000
F000
F000
F000
F000
F000
F000
F000
FF00
FF00
ENDCHAR
STARTCHAR U+230B
ENCODING 8971
SWIDTH 1920 0
DWIDTH 16 0
BBX 8 18 4 -2
BITMAP
0F00
0F00
0F00
0F00
0F00
0F00
0F00
0F00
0F00
0F00
0F00
0F00
0F00
0F00
0F00
0F00
FF00
FF00
ENDCHAR
STARTCHAR U+230C
ENCODING 8972
SWIDTH 1920 0
DWIDTH 16 0
BBX 10 10 6 0
BITMAP
0FC0
0FC0
0FC0
0FC0
F000
F000
F000
F000
F000
F000
ENDCHAR
STARTCHAR U+230D
ENCODING 8973
SWIDTH 1920 0
DWIDTH 16 0
BBX 10 10 0 0
BITMAP
FC00
FC00
FC00
FC00
03C0
03C0
03C0
03C0
03C0
03C0
ENDCHAR
STARTCHAR U+230E
ENCODING 8974
SWIDTH 1920 0
DWIDTH 16 0
BBX 10 10 6 6
BITMAP
F000
F000
F000
F000
F000
F000
0FC0
0FC0
0FC0
0FC0
ENDCHAR
STARTCHAR U+230F
ENCODING 8975
SWIDTH 1920 0
DWIDTH 16 0
BBX 10 10 0 6
BITMAP
03C0
03C0
03C0
03C0
03C0
03C0
FC00
FC00
FC00
FC00
ENDCHAR
STARTCHAR U+2310
ENCODING 8976
SWIDTH 1920 0
DWIDTH 16 0
BBX 12 6 2 2
BITMAP
FFF0
FFF0
F000
F000
F000
F000
ENDCHAR
STARTCHAR U+2311
ENCODING 8977
SWIDTH 1920 0
DWIDTH 16 0
BBX 16 14 0 0
BITMAP
F00F
F00F
3FFC
3FFC
3C3C
3C3C
3C3C
3C3C
3C3C
3C3C
3FFC
3FFC
F00F
F00F
ENDCHAR
STARTCHAR U+2315
ENCODING 8981
SWIDTH 1920 0
DWIDTH 16 0
BBX 14 12 0 -2
BITMAP
0FF0
0FF0
3C3C
3C3C
3C3C
3C3C
0FF0
0FF0
3C00
3C00
F000
F000
ENDCHAR
STARTCHAR U+2317
ENCODING 8983
SWIDTH 1920 0
DWIDTH 16 0
BBX 16 16 0 0
BITMAP
0C30
0C30
0C30
0C30
FFFF
FFFF
0C30
0C30
0C30
0C30
FFFF
FFFF
0C30
0C30
0C30
0C30
ENDCHAR
STARTCHAR U+2318
ENCODING 8984
SWIDTH 1920 0
DWIDTH 16 0
BBX 14 14 2 0
BITMAP
3030
3030
CCCC
CCCC
3FF0
3FF0
0CC0
0CC0
3FF0
3FF0
CCCC
CCCC
3030
3030
ENDCHAR
STARTCHAR U+2319
ENCODING 8985
SWIDTH 1920 0
DWIDTH 16 0
BBX 12 6 2 6
BITMAP
F000
F000
F000
F000
FFF0
FFF0
ENDCHAR
STARTCHAR U+231C
ENCODING 8988
SWIDTH 1920 0
DWIDTH 16 0
BBX 6 6 0 14
BITMAP
FC00
FC00
C000
C000
C000
C000
ENDCHAR
STARTCHAR U+231D
ENCODING 8989
SWIDTH 1920 0
DWIDTH 16 0
BBX 6 6 10 14
BITMAP
FC00
FC00
0C00
0C00
0C00
0C00
ENDCHAR
STARTCHAR U+231E
ENCODING 8990
SWIDTH 1920 0
DWIDTH 16 0
BBX 6 6 0 -4
BITMAP
C000
C000
C000
C000
FC00
FC00
ENDCHAR
STARTCHAR U+231F
ENCODING 8991
SWIDTH 1920 0
DWIDTH 16 0
BBX 6 6 10 -4
BITMAP
0C00
0C00
0C00
0C00
FC00
FC00
ENDCHAR
STARTCHAR U+2320
ENCODING 8992
SWIDTH 1920 0
DWIDTH 16 0
BBX 10 22 6 -4
BITMAP
3F00
3F00
F3C0
F3C0
F000
F000
F000
F000
F000
F000
F000
F000
F000
F000
F000
F000
F000
F000
F000
F000
F000
F000
ENDCHAR
STARTCHAR U+2321
ENCODING 8993
SWIDTH 1920 0
DWIDTH 16 0
BBX 10 24 0 -4
BITMAP
03C0
03C0
03C0
03C0
03C0
03C0
03C0
03C0
03C0
03C0
03C0
03C0
03C0
03C0
03C0
03C0
03C0
03C0
03C0
03C0
F3C0
F3C0
3F00
3F00
ENDCHAR
STARTCHAR U+2335
ENCODING 9013
SWIDTH 1920 0
DWIDTH 16 0
BBX 16 10 0 2
BITMAP
C003
C003
F00F
F00F
3C3C
3C3C
0FF0
0FF0
03C0
03C0
ENDCHAR
STARTCHAR U+2336
ENCODING 9014
SWIDTH 1920 0
DWIDTH 16 0
BBX 12 12 2 0
BITMAP
FFF0
FFF0
0F00
0F00
0F00
0F00
0F00
0F00
0F00
0F00
FFF0
FFF0
ENDCHAR
STARTCHAR U+2337
ENCODING 9015
SWIDTH 1920 0
DWIDTH 16 0
BBX 12 18 2 -2
BITMAP
FFF0
FFF0
F0F0
F0F0
F0F0
F0F0
F0F0
F0F0
F0F0
F0F0
F0F0
F0F0
F0F0
F0F0
F0F0
F0F0
FFF0
FFF0
ENDCHAR
STARTCHAR U+2338
ENCODING 9016
SWIDTH 1920 0
DWIDTH 16 0
BBX 16 22 0 -4
BITMAP
FFFF
FFFF
F00F
F00F
F00F
F00F
F00F
F00F
FFFF
FFFF
F00F
F00F
F00F
F00F
FFFF
FFFF
F00F
F00F
F00F
F00F
FFFF
FFFF
ENDCHAR
STARTCHAR U+2339
ENCODING 9017
SWIDTH 1920 0
DWIDTH 16 0
BBX 16 22 0 -4
BITMAP
FFFF
FFFF
F00F
F00F
F3CF
F3CF
F3CF
F3CF
F00F
F00F
FFFF
FFFF
F00F
F00F
F3CF
F3CF
F3CF
F3CF
F00F
F00F
FFFF
FFFF
ENDCHAR
STARTCHAR U+233A
ENCODING 9018
SWIDTH 1920 0
DWIDTH 16 0
BBX 16 22 0 -4
BITMAP
FFFF
FFFF
F00F
F00F
F0CF
F0CF
F3F3
F3F3
CF3C
CF3C
3C0F
3C0F
CF3C
CF3C
F3F3
F3F3
F0CF
F0CF
F00F
F00F
FFFF
FFFF
ENDCHAR
STARTCHAR U+233B
ENCODING 9019
SWIDTH 1920 0
DWIDTH 16 0
BBX 16 22 0 -4
BITMAP
FFFF
FFFF
F00F
F00F
F00F
F00F
F00F
F00F
CFF3
CFF3
3C3C
3C3C
3C3C
3C3C
CFF3
CFF3
F00F
F00F
F00F
F00F
FFFF
FFFF
ENDCHAR
STARTCHAR U+233C
ENCODING 9020
SWIDTH 1920 0
DWIDTH 16 0
BBX 16 22 0 -4
BITMAP
FFFF
FFFF
F00F
F00F
CFF3
CFF3
3C3C
3C3C
F00F
F00F
F00F
F00F
F00F
F00F
3C3C
3C3C
CFF3
CFF3
F00F
F00F
FFFF
FFFF
ENDCHAR
STARTCHAR U+233D
ENCODING 9021
SWIDTH 1920 0
DWIDTH 16 0
BBX 16 18 0 -2
BITMAP
03C0
03C0
0FF0
0FF0
33CC
33CC
F3CF
F3CF
F3CF
F3CF
F3CF
F3CF
33CC
33CC
0FF0
0FF0
03C0
03C0
ENDCHAR
STARTCHAR U+233E
ENCODING 9022
SWIDTH 1920 0
DWIDTH 16 0
BBX 16 14 0 0
BITMAP
0FF0
0FF0
3C0C
3C0C
F0C3
F0C3
F333
F333
F0C3
F0C3
3C0C
3C0C
0FF0
0FF0
ENDCHAR
STARTCHAR U+233F
ENCODING 9023
SWIDTH 1920 0
DWIDTH 16 0
BBX 16 14 0 0
BITMAP
000C
000C
003C
003C
00F0
00F0
FFFF
FFFF
0F00
0F00
3C00
3C00
3000
3000
ENDCHAR
STARTCHAR U+2340
ENCODING 9024
SWIDTH 1920 0
DWIDTH 16 0
BBX 16 14 0 0
BITMAP
3000
3000
3C00
3C00
0F00
0F00
FFFF
FFFF
00F0
00F0
003C
003C
000C
000C
ENDCHAR
STARTCHAR U+2341
ENCODING 9025
SWIDTH 1920 0
DWIDTH 16 0
BBX 16 22 0 -4
BITMAP
FFFF
FFFF
F00F
F00F
F00F
F00F
F03F
F03F
F0FF
F0FF
F3CF
F3CF
FF0F
FF0F
FC0F
FC0F
F00F
F00F
F00F
F00F
FFFF
FFFF
ENDCHAR
STARTCHAR U+2342
ENCODING 9026
SWIDTH 1920 0
DWIDTH 16 0
BBX 16 22 0 -4
BITMAP
FFFF
FFFF
F00F
F00F
F00F
F00F
FC0F
FC0F
FF0F
FF0F
F3CF
F3CF
F0FF
F0FF
F03F
F03F
F00F
F00F
F00F
F00F
FFFF
FFFF
ENDCHAR
STARTCHAR U+2343
ENCODING 9027
SWIDTH 1920 0
DWIDTH 16 0
BBX 16 22 0 -4
BITMAP
FFFF
FFFF
F00F
F00F
F0F3
F0F3
F3CF
F3CF
CF0F
CF0F
3C0F
3C0F
CF0F
CF0F
F3CF
F3CF
F0F3
F0F3
F00F
F00F
FFFF
FFFF
ENDCHAR
STARTCHAR U+2344
ENCODING 9028
SWIDTH 1920 0
DWIDTH 16 0
BBX 16 22 0 -4
BITMAP
FFFF
FFFF
F00F
F00F
CF0F
CF0F
F3CF
F3CF
F0F3
F0F3
F03C
F03C
F0F3
F0F3
F3CF
F3CF
CF0F
CF0F
F00F
F00F
FFFF
FFFF
ENDCHAR
STARTCHAR U+2345
ENCODING 9029
SWIDTH 1920 0
DWIDTH 16 0
BBX 16 18 0 -2
BITMAP
00C0
00C0
00C0
00C0
0CC0
0CC0
3CC0
3CC0
FFFF
FFFF
3CC0
3CC0
0CC0
0CC0
00C0
00C0
00C0
00C0
ENDCHAR
STARTCHAR U+2346
ENCODING 9030
SWIDTH 1920 0
DWIDTH 16 0
BBX 16 18 0 -2
BITMAP
0300
0300
0300
0300
0330
0330
033C
033C
FFFF
FFFF
033C
033C
0330
0330
0300
0300
0300
0300
ENDCHAR
STARTCHAR U+2347
ENCODING 9031
SWIDTH 1920 0
DWIDTH 16 0
BBX 16 22 0 -4
BITMAP
FFFF
FFFF
F00F
F00F
F00F
F00F
CF0F
CF0F
3C0F
3C0F
FFFF
FFFF
3C0F
3C0F
CF0F
CF0F
F00F
F00F
F00F
F00F
FFFF
FFFF
ENDCHAR
STARTCHAR U+2348
ENCODING 9032
SWIDTH 1920 0
DWIDTH 16 0
BBX 16 22 0 -4
BITMAP
FFFF
FFFF
F00F
F00F
F00F
F00F
F0F3
F0F3
F03C
F03C
FFFF
FFFF
F03C
F03C
F0F3
F0F3
F00F
F00F
F00F
F00F
FFFF
FFFF
ENDCHAR
STARTCHAR U+2349
ENCODING 9033
SWIDTH 1920 0
DWIDTH 16 0
BBX 16 14 0 0
BITMAP
F3F0
F3F0
3C3C
3C3C
FF0F
FF0F
F3CF
F3CF
F0FF
F0FF
3C3C
3C3C
0FCF
0FCF
ENDCHAR
STARTCHAR U+234A
ENCODING 9034
SWIDTH 1920 0
DWIDTH 16 0
BBX 12 16 2 -4
BITMAP
0F00
0F00
0F00
0F00
0F00
0F00
0F00
0F00
0F00
0F00
FFF0
FFF0
0000
0000
FFF0
FFF0
ENDCHAR
STARTCHAR U+234B
ENCODING 9035
SWIDTH 1920 0
DWIDTH 16 0
BBX 16 18 0 -2
BITMAP
03C0
03C0
03C0
03C0
03C0
03C0
0FF0
0FF0
0FF0
0FF0
33CC
33CC
33CC
33CC
FFFF
FFFF
03C0
03C0
ENDCHAR
STARTCHAR U+234C
ENCODING 9036
SWIDTH 1920 0
DWIDTH 16 0
BBX 16 22 0 -4
BITMAP
FFFF
FFFF
F00F
F00F
0000
0000
3C0C
3C0C
3C0C
3C0C
CF33
CF33
CF33
CF33
F3CF
F3CF
F3CF
F3CF
F00F
F00F
FFFF
FFFF
ENDCHAR
STARTCHAR U+234D
ENCODING 9037
SWIDTH 1920 0
DWIDTH 16 0
BBX 16 22 0 -4
BITMAP
FFFF
FFFF
F00F
F00F
F3CF
F3CF
F3CF
F3CF
CF33
CF33
CF33
CF33
3C0C
3C0C
3C0C
3C0C
FFFF
FFFF
0000
0000
FFFF
FFFF
ENDCHAR
STARTCHAR U+234E
ENCODING 9038
SWIDTH 1920 0
DWIDTH 16 0
BBX 16 16 0 -2
BITMAP
03C0
03C0
03C0
03C0
3FFC
3FFC
F3CF
F3CF
F3CF
F3CF
3FFC
3FFC
03C0
03C0
FFFF
FFFF
ENDCHAR
STARTCHAR U+234F
ENCODING 9039
SWIDTH 1920 0
DWIDTH 16 0
BBX 14 18 2 -2
BITMAP
0300
0300
0FC0
0FC0
3FF0
3FF0
0300
0300
FFFC
FFFC
0300
0300
0300
0300
0300
0300
0300
0300
ENDCHAR
STARTCHAR U+2350
ENCODING 9040
SWIDTH 1920 0
DWIDTH 16 0
BBX 16 22 0 -4
BITMAP
FF3F
FF3F
F0CF
F0CF
F3F3
F3F3
CFFC
CFFC
CCCC
CCCC
F0C3
F0C3
F0CF
F0CF
F0CF
F0CF
F0CF
F0CF
F0CF
F0CF
FFFF
FFFF
ENDCHAR
STARTCHAR U+2351
ENCODING 9041
SWIDTH 1920 0
DWIDTH 16 0
BBX 12 16 2 0
BITMAP
FFF0
FFF0
0000
0000
FFF0
FFF0
0F00
0F00
0F00
0F00
0F00
0F00
0F00
0F00
0F00
0F00
ENDCHAR
STARTCHAR U+2352
ENCODING 9042
SWIDTH 1920 0
DWIDTH 16 0
BBX 16 18 0 -2
BITMAP
03C0
03C0
FFFF
FFFF
33CC
33CC
33CC
33CC
0FF0
0FF0
0FF0
0FF0
03C0
03C0
03C0
03C0
03C0
03C0
ENDCHAR
STARTCHAR U+2353
ENCODING 9043
SWIDTH 1920 0
DWIDTH 16 0
BBX 16 22 0 -4
BITMAP
FFFF
FFFF
F00F
F00F
F00F
F00F
F3CF
F3CF
F3CF
F3CF
CF33
CF33
CF33
CF33
3C0C
3C0C
3C0C
3C0C
0000
0000
FFFF
FFFF
ENDCHAR
STARTCHAR U+2354
ENCODING 9044
SWIDTH 1920 0
DWIDTH 16 0
BBX 16 22 0 -4
BITMAP
FFFF
FFFF
0000
0000
FFFF
FFFF
3C0C
3C0C
3C0C
3C0C
CF33
CF33
CF33
CF33
F3CF
F3CF
F3CF
F3CF
F00F
F00F
FFFF
FFFF
ENDCHAR
STARTCHAR U+2355
ENCODING 9045
SWIDTH 1920 0
DWIDTH 16 0
BBX 16 16 0 -2
BITMAP
FFFF
FFFF
03C0
03C0
3FFC
3FFC
F3CF
F3CF
F3CF
F3CF
3FFC
3FFC
03C0
03C0
03C0
03C0
ENDCHAR
STARTCHAR U+2356
ENCODING 9046
SWIDTH 1920 0
DWIDTH 16 0
BBX 14 18 2 -2
BITMAP
0300
0300
0300
0300
0300
0300
0300
0300
FFFC
FFFC
0300
0300
3FF0
3FF0
0FC0
0FC0
0300
0300
ENDCHAR
STARTCHAR U+2357
ENCODING 9047
SWIDTH 1920 0
DWIDTH 16 0
BBX 16 22 0 -4
BITMAP
FFFF
FFFF
F0CF
F0CF
F0CF
F0CF
F0CF
F0CF
F0CF
F0CF
F0C3
F0C3
CCCC
CCCC
CFFC
CFFC
F3F3
F3F3
F0CF
F0CF
FF3F
FF3F
ENDCHAR
STARTCHAR U+2358
ENCODING 9048
SWIDTH 1920 0
DWIDTH 16 0
BBX 8 22 4 -4
BITMAP
3C00
3C00
3C00
3C00
3C00
3C00
0000
0000
0000
0000
0000
0000
0000
0000
0000
0000
0000
0000
0000
0000
FF00
FF00
ENDCHAR
STARTCHAR U+2359
ENCODING 9049
SWIDTH 1920 0
DWIDTH 16 0
BBX 16 18 0 -4
BITMAP
03C0
03C0
03C0
03C0
0F30
0F30
0F30
0F30
3C0C
3C0C
3C0C
3C0C
FFFF
FFFF
0000
0000
FFFF
FFFF
ENDCHAR
STARTCHAR U+235A
ENCODING 9050
SWIDTH 1920 0
DWIDTH 16 0
BBX 14 18 2 -4
BITMAP
0300
0300
0FC0
0FC0
3CF0
3CF0
F03C
F03C
3CF0
3CF0
0FC0
0FC0
0300
0300
0000
0000
FFFC
FFFC
ENDCHAR
STARTCHAR U+235B
ENCODING 9051
SWIDTH 1920 0
DWIDTH 16 0
BBX 12 14 2 -4
BITMAP
3FC0
3FC0
F0F0
F0F0
F0F0
F0F0
3FC0
3FC0
0000
0000
0000
0000
FFF0
FFF0
ENDCHAR
STARTCHAR U+235C
ENCODING 9052
SWIDTH 1920 0
DWIDTH 16 0
BBX 16 18 0 -4
BITMAP
0FF0
0FF0
3C3C
3C3C
F00F
F00F
F00F
F00F
F00F
F00F
3C3C
3C3C
0FF0
0FF0
0000
0000
FFFF
FFFF
ENDCHAR
STARTCHAR U+235D
ENCODING 9053
SWIDTH 1920 0
DWIDTH 16 0
BBX 16 14 0 0
BITMAP
3FFC
3FFC
F00F
F00F
F3CF
F3CF
FC3F
FC3F
FC3F
FC3F
F3CF
F3CF
F00F
F00F
ENDCHAR
STARTCHAR U+235E
ENCODING 9054
SWIDTH 1920 0
DWIDTH 16 0
BBX 16 22 0 -4
BITMAP
FFFF
FFFF
F00F
F00F
F3CF
F3CF
F3CF
F3CF
F3CF
F3CF
F00F
F00F
F00F
F00F
F00F
F00F
F00F
F00F
F00F
F00F
FFFF
FFFF
ENDCHAR
STARTCHAR U+235F
ENCODING 9055
SWIDTH 1920 0
DWIDTH 16 0
BBX 16 16 0 0
BITMAP
0FF0
0FF0
300C
300C
C3C3
C3C3
FFFF
FFFF
CFF3
CFF3
CC33
CC33
300C
300C
0FF0
0FF0
ENDCHAR
STARTCHAR U+2360
ENCODING 9056
SWIDTH 1920 0
DWIDTH 16 0
BBX 16 22 0 -4
BITMAP
FFFF
FFFF
F00F
F00F
F00F
F00F
F3CF
F3CF
F3CF
F3CF
F00F
F00F
F00F
F00F
F3CF
F3CF
F3CF
F3CF
F00F
F00F
FFFF
FFFF
ENDCHAR
STARTCHAR U+2361
ENCODING 9057
SWIDTH 1920 0
DWIDTH 16 0
BBX 12 20 2 0
BITMAP
F0F0
F0F0
F0F0
F0F0
0000
0000
0000
0000
FFF0
FFF0
0F00
0F00
0F00
0F00
0F00
0F00
0F00
0F00
0F00
0F00
ENDCHAR
STARTCHAR U+2362
ENCODING 9058
SWIDTH 1920 0
DWIDTH 16 0
BBX 16 20 0 0
BITMAP
3C3C
3C3C
3C3C
3C3C
0000
0000
FFFF
FFFF
3C0C
3C0C
3C0C
3C0C
0F30
0F30
0F30
0F30
03C0
03C0
03C0
03C0
ENDCHAR
STARTCHAR U+2363
ENCODING 9059
SWIDTH 1920 0
DWIDTH 16 0
BBX 12 18 2 2
BITMAP
F0F0
F0F0
F0F0
F0F0
0000
0000
0F00
0F00
0F00
0F00
FFF0
FFF0
3FC0
3FC0
3FC0
3FC0
30C0
30C0
ENDCHAR
STARTCHAR U+2364
ENCODING 9060
SWIDTH 1920 0
DWIDTH 16 0
BBX 12 18 2 2
BITMAP
F0F0
F0F0
F0F0
F0F0
0000
0000
0000
0000
0000
0000
3FC0
3FC0
F0F0
F0F0
F0F0
F0F0
3FC0
3FC0
ENDCHAR
STARTCHAR U+2365
ENCODING 9061
SWIDTH 1920 0
DWIDTH 16 0
BBX 16 20 0 0
BITMAP
3C3C
3C3C
3C3C
3C3C
0000
0000
0FF0
0FF0
3C3C
3C3C
F00F
F00F
F00F
F00F
F00F
F00F
3C3C
3C3C
0FF0
0FF0
ENDCHAR
STARTCHAR U+2366
ENCODING 9062
SWIDTH 1920 0
DWIDTH 16 0
BBX 14 18 2 -2
BITMAP
0300
0300
0300
0300
F33C
F33C
F33C
F33C
F33C
F33C
F33C
F33C
F33C
F33C
3FF0
3FF0
0300
0300
ENDCHAR
STARTCHAR U+2367
ENCODING 9063
SWIDTH 1920 0
DWIDTH 16 0
BBX 12 18 2 -2
BITMAP
0300
0300
0300
0300
3FF0
3FF0
F300
F300
F300
F300
F300
F300
3FF0
3FF0
0300
0300
0300
0300
ENDCHAR
STARTCHAR U+2368
ENCODING 9064
SWIDTH 1920 0
DWIDTH 16 0
BBX 14 16 2 4
BITMAP
F0F0
F0F0
F0F0
F0F0
0000
0000
0000
0000
0000
0000
3C3C
3C3C
F33C
F33C
F0F0
F0F0
ENDCHAR
STARTCHAR U+2369
ENCODING 9065
SWIDTH 1920 0
DWIDTH 16 0
BBX 12 20 2 0
BITMAP
F0F0
F0F0
F0F0
F0F0
0000
0000
3C00
3C00
0F00
0F00
03C0
03C0
00F0
00F0
03C0
03C0
0F00
0F00
3C00
3C00
ENDCHAR
STARTCHAR U+236A
ENCODING 9066
SWIDTH 1920 0
DWIDTH 16 0
BBX 8 12 4 -4
BITMAP
FF00
FF00
0000
0000
3C00
3C00
3C00
3C00
0C00
0C00
3000
3000
ENDCHAR
STARTCHAR U+236B
ENCODING 9067
SWIDTH 1920 0
DWIDTH 16 0
BBX 16 20 0 0
BITMAP
0FCF
0FCF
3CFC
3CFC
0000
0000
FFFF
FFFF
3C0C
3C0C
3C0C
3C0C
0F30
0F30
0F30
0F30
03C0
03C0
03C0
03C0
ENDCHAR
STARTCHAR U+236C
ENCODING 9068
SWIDTH 1920 0
DWIDTH 16 0
BBX 16 14 0 0
BITMAP
0FF0
0FF0
3C3C
3C3C
3F3F
3F3F
FCFC
FCFC
3C3C
3C3C
3C3C
3C3C
0FF0
0FF0
ENDCHAR
STARTCHAR U+236D
ENCODING 9069
SWIDTH 1920 0
DWIDTH 16 0
BBX 16 18 0 -2
BITMAP
03C0
03C0
03C0
03C0
03C0
03C0
3FCF
3FCF
F3FC
F3FC
03C0
03C0
03C0
03C0
03C0
03C0
03C0
03C0
ENDCHAR
STARTCHAR U+236E
ENCODING 9070
SWIDTH 1920 0
DWIDTH 16 0
BBX 8 16 4 -4
BITMAP
3C00
3C00
3C00
3C00
0000
0000
0000
0000
3C00
3C00
3C00
3C00
0C00
0C00
FF00
FF00
ENDCHAR
STARTCHAR U+236F
ENCODING 9071
SWIDTH 1920 0
DWIDTH 16 0
BBX 16 22 0 -4
BITMAP
FFFF
FFFF
F00F
F00F
F00F
F00F
F0FF
F0FF
FFFF
FFFF
F3CF
F3CF
F3CF
F3CF
FFFF
FFFF
FF0F
FF0F
F00F
F00F
FFFF
FFFF
ENDCHAR
STARTCHAR U+2370
ENCODING 9072
SWIDTH 1920 0
DWIDTH 16 0
BBX 16 22 0 -4
BITMAP
FFFF
FFFF
F00F
F00F
CFF3
CFF3
3C3C
3C3C
C0F3
C0F3
F3CF
F3CF
F00F
F00F
F3CF
F3CF
F3CF
F3CF
F00F
F00F
FFFF
FFFF
ENDCHAR
STARTCHAR U+2371
ENCODING 9073
SWIDTH 1920 0
DWIDTH 16 0
BBX 14 18 2 0
BITMAP
3F3C
3F3C
F3F0
F3F0
0000
0000
F030
F030
F030
F030
3CC0
3CC0
3CC0
3CC0
0F00
0F00
0F00
0F00
ENDCHAR
STARTCHAR U+2372
ENCODING 9074
SWIDTH 1920 0
DWIDTH 16 0
BBX 14 18 2 0
BITMAP
3F3C
3F3C
F3F0
F3F0
0000
0000
0F00
0F00
0F00
0F00
3CC0
3CC0
3CC0
3CC0
F030
F030
F030
F030
ENDCHAR
STARTCHAR U+2373
ENCODING 9075
SWIDTH 1920 0
DWIDTH 16 0
BBX 12 10 2 0
BITMAP
FF00
FF00
0F00
0F00
0F00
0F00
0F00
0F00
03F0
03F0
ENDCHAR
STARTCHAR U+2374
ENCODING 9076
SWIDTH 1920 0
DWIDTH 16 0
BBX 12 14 2 -4
BITMAP
3FC0
3FC0
F0F0
F0F0
F0F0
F0F0
F0F0
F0F0
F3C0
F3C0
F000
F000
F000
F000
ENDCHAR
STARTCHAR U+2375
ENCODING 9077
SWIDTH 1920 0
DWIDTH 16 0
BBX 14 10 2 0
BITMAP
3CF0
3CF0
F03C
F03C
F33C
F33C
F33C
F33C
3CF0
3CF0
ENDCHAR
STARTCHAR U+2376
ENCODING 9078
SWIDTH 1920 0
DWIDTH 16 0
BBX 12 14 2 -4
BITMAP
3CF0
3CF0
F3C0
F3C0
F3C0
F3C0
F3C0
F3C0
3CF0
3CF0
0000
0000
FFF0
FFF0
ENDCHAR
STARTCHAR U+2377
ENCODING 9079
SWIDTH 1920 0
DWIDTH 16 0
BBX 12 14 2 -2
BITMAP
3FF0
3FF0
F000
F000
FFF0
FFF0
F000
F000
3FF0
3FF0
0000
0000
FFF0
FFF0
ENDCHAR
STARTCHAR U+2378
ENCODING 9080
SWIDTH 1920 0
DWIDTH 16 0
BBX 12 14 2 -4
BITMAP
FF00
FF00
0F00
0F00
0F00
0F00
0F00
0F00
03F0
03F0
0000
0000
FFF0
FFF0
ENDCHAR
STARTCHAR U+2379
ENCODING 9081
SWIDTH 1920 0
DWIDTH 16 0
BBX 14 14 2 -4
BITMAP
3CF0
3CF0
F03C
F03C
F33C
F33C
F33C
F33C
3CF0
3CF0
0000
0000
FFFC
FFFC
ENDCHAR
STARTCHAR U+237A
ENCODING 9082
SWIDTH 1920 0
DWIDTH 16 0
BBX 12 10 2 0
BITMAP
3CF0
3CF0
F3C0
F3C0
F3C0
F3C0
F3C0
F3C0
3CF0
3CF0
ENDCHAR
STARTCHAR U+2385
ENCODING 9093
SWIDTH 1920 0
DWIDTH 16 0
BBX 16 18 0 -2
BITMAP
00C0
00C0
FCFF
FCFF
F0CF
F0CF
F0CF
F0CF
F0CF
F0CF
F0CF
F0CF
F0CF
F0CF
FCFF
FCFF
00C0
00C0
ENDCHAR
STARTCHAR U+2389
ENCODING 9097
SWIDTH 1920 0
DWIDTH 16 0
BBX 16 14 0 0
BITMAP
0FF0
0FF0
300C
300C
C003
C003
FC3F
FC3F
C3C3
C3C3
300C
300C
0FF0
0FF0
ENDCHAR
STARTCHAR U+238A
ENCODING 9098
SWIDTH 1920 0
DWIDTH 16 0
BBX 16 16 0 0
BITMAP
0FF0
0FF0
300C
300C
FFFF
FFFF
CC33
CC33
CC33
CC33
C3C3
C3C3
33CC
33CC
0FF0
0FF0
ENDCHAR
STARTCHAR U+2395
ENCODING 9109
SWIDTH 1920 0
DWIDTH 16 0
BBX 16 22 0 -4
BITMAP
FFFF
FFFF
F00F
F00F
F00F
F00F
F00F
F00F
F00F
F00F
F00F
F00F
F00F
F00F
F00F
F00F
F00F
F00F
F00F
F00F
FFFF
FFFF
ENDCHAR
STARTCHAR U+23B8
ENCODING 9144
SWIDTH 1920 0
DWIDTH 16 0
BBX 2 24 0 -4
BITMAP
C000
C000
C000
C000
C000
C000
C000
C000
C000
C000
C000
C000
C000
C000
C000
C000
C000
C000
C000
C000
C000
C000
C000
C000
ENDCHAR
STARTCHAR U+23B9
ENCODING 9145
SWIDTH 1920 0
DWIDTH 16 0
BBX 2 24 14 -4
BITMAP
C000
C000
C000
C000
C000
C000
C000
C000
C000
C000
C000
C000
C000
C000
C000
C000
C000
C000
C000
C000
C000
C000
C000
C000
ENDCHAR
STARTCHAR U+23BA
ENCODING 9146
SWIDTH 1920 0
DWIDTH 16 0
BBX 16 2 0 18
BITMAP
FFFF
FFFF
ENDCHAR
STARTCHAR U+23BB
ENCODING 9147
SWIDTH 1920 0
DWIDTH 16 0
BBX 16 2 0 12
BITMAP
FFFF
FFFF
ENDCHAR
STARTCHAR U+23BC
ENCODING 9148
SWIDTH 1920 0
DWIDTH 16 0
BBX 16 2 0 2
BITMAP
FFFF
FFFF
ENDCHAR
STARTCHAR U+23BD
ENCODING 9149
SWIDTH 1920 0
DWIDTH 16 0
BBX 16 2 0 -4
BITMAP
FFFF
FFFF
ENDCHAR
STARTCHAR U+2426
ENCODING 9254
SWIDTH 1920 0
DWIDTH 16 0
BBX 12 16 2 0
BITMAP
3FC0
3FC0
F0F0
F0F0
F000
F000
3C00
3C00
0F00
0F00
0000
0000
0F00
0F00
0F00
0F00
ENDCHAR
STARTCHAR U+24B6
ENCODING 9398
SWIDTH 1920 0
DWIDTH 16 0
BBX 16 18 0 -4
BITMAP
00C0
00C0
0330
0330
0C3C
0C3C
3FFC
3FFC
3C3C
3C3C
3C3C
3C3C
3C3C
3C3C
0000
0000
FFFF
FFFF
ENDCHAR
STARTCHAR U+24B7
ENCODING 9399
SWIDTH 1920 0
DWIDTH 16 0
BBX 16 18 0 -4
BITMAP
3FF0
3FF0
3C3C
3C3C
3C3C
3C3C
3CF0
3CF0
3C3C
3C3C
3C3C
3C3C
3CF0
3CF0
0000
0000
FFFF
FFFF
ENDCHAR
STARTCHAR U+24B8
ENCODING 9400
SWIDTH 1920 0
DWIDTH 16 0
BBX 16 18 0 -4
BITMAP
0FF0
0FF0
3C3C
3C3C
3C00
3C00
3C00
3C00
3C00
3C00
3C3C
3C3C
0FF0
0FF0
0000
0000
FFFF
FFFF
ENDCHAR
STARTCHAR U+24B9
ENCODING 9401
SWIDTH 1920 0
DWIDTH 16 0
BBX 16 18 0 -4
BITMAP
3FC0
3FC0
3C30
3C30
3C3C
3C3C
3C3C
3C3C
3C3C
3C3C
3C30
3C30
3FC0
3FC0
0000
0000
FFFF
FFFF
ENDCHAR
STARTCHAR U+24BA
ENCODING 9402
SWIDTH 1920 0
DWIDTH 16 0
BBX 16 18 0 -4
BITMAP
3FFC
3FFC
3C0C
3C0C
3C00
3C00
3FC0
3FC0
3C00
3C00
3C0C
3C0C
3FFC
3FFC
0000
0000
FFFF
FFFF
ENDCHAR
STARTCHAR U+24BB
ENCODING 9403
SWIDTH 1920 0
DWIDTH 16 0
BBX 16 18 0 -4
BITMAP
3FFC
3FFC
3C0C
3C0C
3C00
3C00
3FC0
3FC0
3C00
3C00
3C00
3C00
3C00
3C00
0000
0000
FFFF
FFFF
ENDCHAR
STARTCHAR U+24BC
ENCODING 9404
SWIDTH 1920 0
DWIDTH 16 0
BBX 16 18 0 -4
BITMAP
0FF0
0FF0
3C3C
3C3C
3C00
3C00
3CFC
3CFC
3C3C
3C3C
3C3C
3C3C
0F3C
0F3C
0000
0000
FFFF
FFFF
ENDCHAR
STARTCHAR U+24BD
ENCODING 9405
SWIDTH 1920 0
DWIDTH 16 0
BBX 16 18 0 -4
BITMAP
3C3C
3C3C
3C3C
3C3C
3C3C
3C3C
3FFC
3FFC
3C3C
3C3C
3C3C
3C3C
3C3C
3C3C
0000
0000
FFFF
FFFF
ENDCHAR
STARTCHAR U+24BE
ENCODING 9406
SWIDTH 1920 0
DWIDTH 16 0
BBX 16 18 0 -4
BITMAP
3FFC
3FFC
03C0
03C0
03C0
03C0
03C0
03C0
03C0
03C0
03C0
03C0
3FFC
3FFC
0000
0000
FFFF
FFFF
ENDCHAR
STARTCHAR U+24BF
ENCODING 9407
SWIDTH 1920 0
DWIDTH 16 0
BBX 16 18 0 -4
BITMAP
0FFC
0FFC
00F0
00F0
00F0
00F0
00F0
00F0
00F0
00F0
3CF0
3CF0
0FC0
0FC0
0000
0000
FFFF
FFFF
ENDCHAR
STARTCHAR U+24C0
ENCODING 9408
SWIDTH 1920 0
DWIDTH 16 0
BBX 16 18 0 -4
BITMAP
3C3C
3C3C
3C3C
3C3C
3C30
3C30
3CC0
3CC0
3F30
3F30
3C3C
3C3C
3C3C
3C3C
0000
0000
FFFF
FFFF
ENDCHAR
STARTCHAR U+24C1
ENCODING 9409
SWIDTH 1920 0
DWIDTH 16 0
BBX 16 18 0 -4
BITMAP
3C00
3C00
3C00
3C00
3C00
3C00
3C00
3C00
3C00
3C00
3C0C
3C0C
3FFC
3FFC
0000
0000
FFFF
FFFF
ENDCHAR
STARTCHAR U+24C2
ENCODING 9410
SWIDTH 1920 0
DWIDTH 16 0
BBX 16 18 0 -4
BITMAP
3003
3003
3C0F
3C0F
3F3F
3F3F
3CCF
3CCF
3C0F
3C0F
3C0F
3C0F
3C0F
3C0F
0000
0000
FFFF
FFFF
ENDCHAR
STARTCHAR U+24C3
ENCODING 9411
SWIDTH 1920 0
DWIDTH 16 0
BBX 16 18 0 -4
BITMAP
303C
303C
3C3C
3C3C
3F3C
3F3C
3CFC
3CFC
3C3C
3C3C
3C3C
3C3C
3C3C
3C3C
0000
0000
FFFF
FFFF
ENDCHAR
STARTCHAR U+24C4
ENCODING 9412
SWIDTH 1920 0
DWIDTH 16 0
BBX 16 18 0 -4
BITMAP
0FF0
0FF0
3C3C
3C3C
3C3C
3C3C
3C3C
3C3C
3C3C
3C3C
3C3C
3C3C
0FF0
0FF0
0000
0000
FFFF
FFFF
ENDCHAR
STARTCHAR U+24C5
ENCODING 9413
SWIDTH 1920 0
DWIDTH 16 0
BBX 16 18 0 -4
BITMAP
3FF0
3FF0
3C3C
3C3C
3C3C
3C3C
3CF0
3CF0
3C00
3C00
3C00
3C00
3C00
3C00
0000
0000
FFFF
FFFF
ENDCHAR
STARTCHAR U+24C6
ENCODING 9414
SWIDTH 1920 0
DWIDTH 16 0
BBX 16 18 0 -4
BITMAP
0FF0
0FF0
3C3C
3C3C
3C3C
3C3C
3C3C
3C3C
3C30
3C30
3CC0
3CC0
0F3C
0F3C
0000
0000
FFFF
FFFF
ENDCHAR
STARTCHAR U+24C7
ENCODING 9415
SWIDTH 1920 0
DWIDTH 16 0
BBX 16 18 0 -4
BITMAP
3FF0
3FF0
3C3C
3C3C
3C3C
3C3C
3CF0
3CF0
3C30
3C30
3C3C
3C3C
3C3C
3C3C
0000
0000
FFFF
FFFF
ENDCHAR
STARTCHAR U+24C8
ENCODING 9416
SWIDTH 1920 0
DWIDTH 16 0
BBX 16 18 0 -4
BITMAP
0FF0
0FF0
3C3C
3C3C
3C00
3C00
0FF0
0FF0
003C
003C
3C3C
3C3C
0FF0
0FF0
0000
0000
FFFF
FFFF
ENDCHAR
STARTCHAR U+24C9
ENCODING 9417
SWIDTH 1920 0
DWIDTH 16 0
BBX 16 18 0 -4
BITMAP
3FFC
3FFC
03C0
03C0
03C0
03C0
03C0
03C0
03C0
03C0
03C0
03C0
03C0
03C0
0000
0000
FFFF
FFFF
ENDCHAR
STARTCHAR U+24CA
ENCODING 9418
SWIDTH 1920 0
DWIDTH 16 0
BBX 16 18 0 -4
BITMAP
3C3C
3C3C
3C3C
3C3C
3C3C
3C3C
3C3C
3C3C
3C3C
3C3C
3C3C
3C3C
0FF0
0FF0
0000
0000
FFFF
FFFF
ENDCHAR
STARTCHAR U+24CB
ENCODING 9419
SWIDTH 1920 0
DWIDTH 16 0
BBX 16 18 0 -4
BITMAP
3C3C
3C3C
3C3C
3C3C
3C3C
3C3C
3C3C
3C3C
3C30
3C30
0CC0
0CC0
0300
0300
0000
0000
FFFF
FFFF
ENDCHAR
STARTCHAR U+24CC
ENCODING 9420
SWIDTH 1920 0
DWIDTH 16 0
BBX 16 18 0 -4
BITMAP
3C0F
3C0F
3C0F
3C0F
3CCF
3CCF
3CCF
3CCF
3CCF
3CCF
3CCF
3CCF
0F3C
0F3C
0000
0000
FFFF
FFFF
ENDCHAR
STARTCHAR U+24CD
ENCODING 9421
SWIDTH 1920 0
DWIDTH 16 0
BBX 16 18 0 -4
BITMAP
3C3C
3C3C
3C3C
3C3C
0C30
0C30
03C0
03C0
0C30
0C30
3C3C
3C3C
3C3C
3C3C
0000
0000
FFFF
FFFF
ENDCHAR
STARTCHAR U+24CE
ENCODING 9422
SWIDTH 1920 0
DWIDTH 16 0
BBX 16 18 0 -4
BITMAP
3C3C
3C3C
3C3C
3C3C
0C30
0C30
03C0
03C0
03C0
03C0
03C0
03C0
03C0
03C0
0000
0000
FFFF
FFFF
ENDCHAR
STARTCHAR U+24CF
ENCODING 9423
SWIDTH 1920 0
DWIDTH 16 0
BBX 16 18 0 -4
BITMAP
3FFC
3FFC
303C
303C
00F0
00F0
03C0
03C0
0F00
0F00
3C0C
3C0C
3FFC
3FFC
0000
0000
FFFF
FFFF
ENDCHAR
STARTCHAR U+24D0
ENCODING 9424
SWIDTH 1920 0
DWIDTH 16 0
BBX 16 14 0 -4
BITMAP
0FF0
0FF0
003C
003C
0FFC
0FFC
3C3C
3C3C
0F3C
0F3C
0000
0000
FFFF
FFFF
ENDCHAR
STARTCHAR U+24D1
ENCODING 9425
SWIDTH 1920 0
DWIDTH 16 0
BBX 16 18 0 -4
BITMAP
3C00
3C00
3C00
3C00
3CF0
3CF0
3F3C
3F3C
3C3C
3C3C
3C3C
3C3C
3CF0
3CF0
0000
0000
FFFF
FFFF
ENDCHAR
STARTCHAR U+24D2
ENCODING 9426
SWIDTH 1920 0
DWIDTH 16 0
BBX 16 14 0 -4
BITMAP
0FF0
0FF0
3C30
3C30
3C00
3C00
3C3C
3C3C
0FF0
0FF0
0000
0000
FFFF
FFFF
ENDCHAR
STARTCHAR U+24D3
ENCODING 9427
SWIDTH 1920 0
DWIDTH 16 0
BBX 16 18 0 -4
BITMAP
003C
003C
003C
003C
0F3C
0F3C
3CFC
3CFC
3C3C
3C3C
3C3C
3C3C
0F3C
0F3C
0000
0000
FFFF
FFFF
ENDCHAR
STARTCHAR U+24D4
ENCODING 9428
SWIDTH 1920 0
DWIDTH 16 0
BBX 16 14 0 -4
BITMAP
0FF0
0FF0
3C3C
3C3C
3FFC
3FFC
3C00
3C00
0FF0
0FF0
0000
0000
FFFF
FFFF
ENDCHAR
STARTCHAR U+24D5
ENCODING 9429
SWIDTH 1920 0
DWIDTH 16 0
BBX 16 18 0 -4
BITMAP
00FC
00FC
03C0
03C0
3FFC
3FFC
03C0
03C0
03C0
03C0
03C0
03C0
03C0
03C0
0000
0000
FFFF
FFFF
ENDCHAR
STARTCHAR U+24D6
ENCODING 9430
SWIDTH 1920 0
DWIDTH 16 0
BBX 16 16 0 -4
BITMAP
003C
003C
0FF0
0FF0
3C3C
3C3C
0FF0
0FF0
3C00
3C00
0FF0
0FF0
003C
003C
FFFF
FFFF
ENDCHAR
STARTCHAR U+24D7
ENCODING 9431
SWIDTH 1920 0
DWIDTH 16 0
BBX 16 18 0 -4
BITMAP
3C00
3C00
3C00
3C00
3CF0
3CF0
3F3C
3F3C
3C3C
3C3C
3C3C
3C3C
3C3C
3C3C
0000
0000
FFFF
FFFF
ENDCHAR
STARTCHAR U+24D8
ENCODING 9432
SWIDTH 1920 0
DWIDTH 16 0
BBX 16 20 0 -4
BITMAP
03C0
03C0
03C0
03C0
0000
0000
3FC0
3FC0
03C0
03C0
03C0
03C0
03C0
03C0
00FC
00FC
0000
0000
FFFF
FFFF
ENDCHAR
STARTCHAR U+24D9
ENCODING 9433
SWIDTH 1920 0
DWIDTH 16 0
BBX 16 20 0 -4
BITMAP
00F0
00F0
00F0
00F0
0000
0000
0FF0
0FF0
00F0
00F0
00F0
00F0
00F0
00F0
00F0
00F0
3CF0
3CF0
FFFF
FFFF
ENDCHAR
STARTCHAR U+24DA
ENCODING 9434
SWIDTH 1920 0
DWIDTH 16 0
BBX 16 18 0 -4
BITMAP
3C00
3C00
3C00
3C00
3C3C
3C3C
3C3C
3C3C
3CF0
3CF0
3F3C
3F3C
3C3C
3C3C
0000
0000
FFFF
FFFF
ENDCHAR
STARTCHAR U+24DB
ENCODING 9435
SWIDTH 1920 0
DWIDTH 16 0
BBX 16 18 0 -4
BITMAP
3FC0
3FC0
03C0
03C0
03C0
03C0
03C0
03C0
03C0
03C0
03C0
03C0
00FC
00FC
0000
0000
FFFF
FFFF
ENDCHAR
STARTCHAR U+24DC
ENCODING 9436
SWIDTH 1920 0
DWIDTH 16 0
BBX 16 14 0 -4
BITMAP
3F30
3F30
3CCC
3CCC
3CCC
3CCC
3CCC
3CCC
3CCC
3CCC
0000
0000
FFFF
FFFF
ENDCHAR
STARTCHAR U+24DD
ENCODING 9437
SWIDTH 1920 0
DWIDTH 16 0
BBX 16 14 0 -4
BITMAP
3CF0
3CF0
3F3C
3F3C
3C3C
3C3C
3C3C
3C3C
3C3C
3C3C
0000
0000
FFFF
FFFF
ENDCHAR
STARTCHAR U+24DE
ENCODING 9438
SWIDTH 1920 0
DWIDTH 16 0
BBX 16 14 0 -4
BITMAP
0FF0
0FF0
3C3C
3C3C
3C3C
3C3C
3C3C
3C3C
0FF0
0FF0
0000
0000
FFFF
FFFF
ENDCHAR
STARTCHAR U+24DF
ENCODING 9439
SWIDTH 1920 0
DWIDTH 16 0
BBX 16 14 0 -4
BITMAP
3CF0
3CF0
3F3C
3F3C
3C3C
3C3C
3C3C
3C3C
3CF0
3CF0
3C00
3C00
FFFF
FFFF
ENDCHAR
STARTCHAR U+24E0
ENCODING 9440
SWIDTH 1920 0
DWIDTH 16 0
BBX 16 14 0 -4
BITMAP
0F3C
0F3C
3CFC
3CFC
3C3C
3C3C
3C3C
3C3C
0F3C
0F3C
003C
003C
FFFF
FFFF
ENDCHAR
STARTCHAR U+24E1
ENCODING 9441
SWIDTH 1920 0
DWIDTH 16 0
BBX 16 14 0 -4
BITMAP
3F3C
3F3C
0FC0
0FC0
0F00
0F00
0F00
0F00
0F00
0F00
0000
0000
FFFF
FFFF
ENDCHAR
STARTCHAR U+24E2
ENCODING 9442
SWIDTH 1920 0
DWIDTH 16 0
BBX 16 14 0 -4
BITMAP
0FF0
0FF0
3C00
3C00
0FF0
0FF0
003C
003C
0FF0
0FF0
0000
0000
FFFF
FFFF
ENDCHAR
STARTCHAR U+24E3
ENCODING 9443
SWIDTH 1920 0
DWIDTH 16 0
BBX 16 18 0 -4
BITMAP
03C0
03C0
03C0
03C0
3FFC
3FFC
03C0
03C0
03C0
03C0
03C0
03C0
00FC
00FC
0000
0000
FFFF
FFFF
ENDCHAR
STARTCHAR U+24E4
ENCODING 9444
SWIDTH 1920 0
DWIDTH 16 0
BBX 16 14 0 -4
BITMAP
3C3C
3C3C
3C3C
3C3C
3C3C
3C3C
3CFC
3CFC
0F3C
0F3C
0000
0000
FFFF
FFFF
ENDCHAR
STARTCHAR U+24E5
ENCODING 9445
SWIDTH 1920 0
DWIDTH 16 0
BBX 16 14 0 -4
BITMAP
3C3C
3C3C
3C3C
3C3C
3C30
3C30
0CC0
0CC0
0300
0300
0000
0000
FFFF
FFFF
ENDCHAR
STARTCHAR U+24E6
ENCODING 9446
SWIDTH 1920 0
DWIDTH 16 0
BBX 16 14 0 -4
BITMAP
3CCC
3CCC
3CCC
3CCC
3CCC
3CCC
3CCC
3CCC
0F30
0F30
0000
0000
FFFF
FFFF
ENDCHAR
STARTCHAR U+24E7
ENCODING 9447
SWIDTH 1920 0
DWIDTH 16 0
BBX 16 14 0 -4
BITMAP
3C3C
3C3C
3C3C
3C3C
0FF0
0FF0
3C3C
3C3C
3C3C
3C3C
0000
0000
FFFF
FFFF
ENDCHAR
STARTCHAR U+24E8
ENCODING 9448
SWIDTH 1920 0
DWIDTH 16 0
BBX 16 14 0 -4
BITMAP
3C3C
3C3C
3C3C
3C3C
3C3C
3C3C
3CFC
3CFC
0F3C
0F3C
003C
003C
FFFF
FFFF
ENDCHAR
STARTCHAR U+24E9
ENCODING 9449
SWIDTH 1920 0
DWIDTH 16 0
BBX 16 14 0 -4
BITMAP
3FFC
3FFC
30F0
30F0
03C0
03C0
0F0C
0F0C
3FFC
3FFC
0000
0000
FFFF
FFFF
ENDCHAR
STARTCHAR U+2500
ENCODING 9472
SWIDTH 1920 0
DWIDTH 16 0
BBX 16 2 0 6
BITMAP
FFFF
FFFF
ENDCHAR
STARTCHAR U+2501
ENCODING 9473
SWIDTH 1920 0
DWIDTH 16 0
BBX 16 4 0 6
BITMAP
FFFF
FFFF
FFFF
FFFF
ENDCHAR
STARTCHAR U+2502
ENCODING 9474
SWIDTH 1920 0
DWIDTH 16 0
BBX 2 24 8 -4
BITMAP
C000
C000
C000
C000
C000
C000
C000
C000
C000
C000
C000
C000
C000
C000
C000
C000
C000
C000
C000
C000
C000
C000
C000
C000
ENDCHAR
STARTCHAR U+2503
ENCODING 9475
SWIDTH 1920 0
DWIDTH 16 0
BBX 4 24 6 -4
BITMAP
F000
F000
F000
F000
F000
F000
F000
F000
F000
F000
F000
F000
F000
F000
F000
F000
F000
F000
F000
F000
F000
F000
F000
F000
ENDCHAR
STARTCHAR U+2504
ENCODING 9476
SWIDTH 1920 0
DWIDTH 16 0
BBX 16 2 0 6
BITMAP
F3CF
F3CF
ENDCHAR
STARTCHAR U+2505
ENCODING 9477
SWIDTH 1920 0
DWIDTH 16 0
BBX 16 4 0 6
BITMAP
F3CF
F3CF
F3CF
F3CF
ENDCHAR
STARTCHAR U+2506
ENCODING 9478
SWIDTH 1920 0
DWIDTH 16 0
BBX 2 22 8 -4
BITMAP
C000
C000
C000
C000
C000
C000
0000
0000
C000
C000
C000
C000
C000
C000
0000
0000
C000
C000
C000
C000
C000
C000
ENDCHAR
STARTCHAR U+2507
ENCODING 9479
SWIDTH 1920 0
DWIDTH 16 0
BBX 4 22 6 -4
BITMAP
F000
F000
F000
F000
F000
F000
0000
0000
F000
F000
F000
F000
F000
F000
0000
0000
F000
F000
F000
F000
F000
F000
ENDCHAR
STARTCHAR U+2508
ENCODING 9480
SWIDTH 1920 0
DWIDTH 16 0
BBX 14 2 2 6
BITMAP
CCCC
CCCC
ENDCHAR
STARTCHAR U+2509
ENCODING 9481
SWIDTH 1920 0
DWIDTH 16 0
BBX 14 4 2 4
BITMAP
CCCC
CCCC
CCCC
CCCC
ENDCHAR
STARTCHAR U+250A
ENCODING 9482
SWIDTH 1920 0
DWIDTH 16 0
BBX 2 22 8 -4
BITMAP
C000
C000
C000
C000
0000
0000
C000
C000
C000
C000
0000
0000
C000
C000
C000
C000
0000
0000
C000
C000
C000
C000
ENDCHAR
STARTCHAR U+250B
ENCODING 9483
SWIDTH 1920 0
DWIDTH 16 0
BBX 4 22 6 -4
BITMAP
F000
F000
F000
F000
0000
0000
F000
F000
F000
F000
0000
0000
F000
F000
F000
F000
0000
0000
F000
F000
F000
F000
ENDCHAR
STARTCHAR U+250C
ENCODING 9484
SWIDTH 1920 0
DWIDTH 16 0
BBX 8 12 8 -4
BITMAP
FF00
FF00
C000
C000
C000
C000
C000
C000
C000
C000
C000
C000
ENDCHAR
STARTCHAR U+250D
ENCODING 9485
SWIDTH 1920 0
DWIDTH 16 0
BBX 8 14 8 -4
BITMAP
FF00
FF00
FF00
FF00
C000
C000
C000
C000
C000
C000
C000
C000
C000
C000
ENDCHAR
STARTCHAR U+250E
ENCODING 9486
SWIDTH 1920 0
DWIDTH 16 0
BBX 10 12 6 -4
BITMAP
FFC0
FFC0
F000
F000
F000
F000
F000
F000
F000
F000
F000
F000
ENDCHAR
STARTCHAR U+250F
ENCODING 9487
SWIDTH 1920 0
DWIDTH 16 0
BBX 10 14 6 -4
BITMAP
FFC0
FFC0
FFC0
FFC0
F000
F000
F000
F000
F000
F000
F000
F000
F000
F000
ENDCHAR
STARTCHAR U+2510
ENCODING 9488
SWIDTH 1920 0
DWIDTH 16 0
BBX 10 12 0 -4
BITMAP
FFC0
FFC0
00C0
00C0
00C0
00C0
00C0
00C0
00C0
00C0
00C0
00C0
ENDCHAR
STARTCHAR U+2511
ENCODING 9489
SWIDTH 1920 0
DWIDTH 16 0
BBX 10 14 0 -4
BITMAP
FFC0
FFC0
FFC0
FFC0
00C0
00C0
00C0
00C0
00C0
00C0
00C0
00C0
00C0
00C0
ENDCHAR
STARTCHAR U+2512
ENCODING 9490
SWIDTH 1920 0
DWIDTH 16 0
BBX 10 12 0 -4
BITMAP
FFC0
FFC0
03C0
03C0
03C0
03C0
03C0
03C0
03C0
03C0
03C0
03C0
ENDCHAR
STARTCHAR U+2513
ENCODING 9491
SWIDTH 1920 0
DWIDTH 16 0
BBX 10 14 0 -4
BITMAP
FFC0
FFC0
FFC0
FFC0
03C0
03C0
03C0
03C0
03C0
03C0
03C0
03C0
03C0
03C0
ENDCHAR
STARTCHAR U+2514
ENCODING 9492
SWIDTH 1920 0
DWIDTH 16 0
BBX 8 14 8 6
BITMAP
C000
C000
C000
C000
C000
C000
C000
C000
C000
C000
C000
C000
FF00
FF00
ENDCHAR
STARTCHAR U+2515
ENCODING 9493
SWIDTH 1920 0
DWIDTH 16 0
BBX 8 14 8 6
BITMAP
C000
C000
C000
C000
C000
C000
C000
C000
C000
C000
FF00
FF00
FF00
FF00
ENDCHAR
STARTCHAR U+2516
ENCODING 9494
SWIDTH 1920 0
DWIDTH 16 0
BBX 10 14 6 6
BITMAP
F000
F000
F000
F000
F000
F000
F000
F000
F000
F000
F000
F000
FFC0
FFC0
ENDCHAR
STARTCHAR U+2517
ENCODING 9495
SWIDTH 1920 0
DWIDTH 16 0
BBX 10 14 6 6
BITMAP
F000
F000
F000
F000
F000
F000
F000
F000
F000
F000
FFC0
FFC0
FFC0
FFC0
ENDCHAR
STARTCHAR U+2518
ENCODING 9496
SWIDTH 1920 0
DWIDTH 16 0
BBX 10 14 0 6
BITMAP
00C0
00C0
00C0
00C0
00C0
00C0
00C0
00C0
00C0
00C0
00C0
00C0
FFC0
FFC0
ENDCHAR
STARTCHAR U+2519
ENCODING 9497
SWIDTH 1920 0
DWIDTH 16 0
BBX 10 14 0 6
BITMAP
00C0
00C0
00C0
00C0
00C0
00C0
00C0
00C0
00C0
00C0
FFC0
FFC0
FFC0
FFC0
ENDCHAR
STARTCHAR U+251A
ENCODING 9498
SWIDTH 1920 0
DWIDTH 16 0
BBX 10 14 0 6
BITMAP
03C0
03C0
03C0
03C0
03C0
03C0
03C0
03C0
03C0
03C0
03C0
03C0
FFC0
FFC0
ENDCHAR
STARTCHAR U+251B
ENCODING 9499
SWIDTH 1920 0
DWIDTH 16 0
BBX 10 14 0 6
BITMAP
03C0
03C0
03C0
03C0
03C0
03C0
03C0
03C0
03C0
03C0
FFC0
FFC0
FFC0
FFC0
ENDCHAR
STARTCHAR U+251C
ENCODING 9500
SWIDTH 1920 0
DWIDTH 16 0
BBX 8 24 8 -4
BITMAP
C000
C000
C000
C000
C000
C000
C000
C000
C000
C000
C000
C000
FF00
FF00
C000
C000
C000
C000
C000
C000
C000
C000
C000
C000
ENDCHAR
STARTCHAR U+251D
ENCODING 9501
SWIDTH 1920 0
DWIDTH 16 0
BBX 8 24 8 -4
BITMAP
C000
C000
C000
C000
C000
C000
C000
C000
C000
C000
FF00
FF00
FF00
FF00
C000
C000
C000
C000
C000
C000
C000
C000
C000
C000
ENDCHAR
STARTCHAR U+251E
ENCODING 9502
SWIDTH 1920 0
DWIDTH 16 0
BBX 10 24 6 -4
BITMAP
F000
F000
F000
F000
F000
F000
F000
F000
F000
F000
F000
F000
FFC0
FFC0
3000
3000
3000
3000
3000
3000
3000
3000
3000
3000
ENDCHAR
STARTCHAR U+251F
ENCODING 9503
SWIDTH 1920 0
DWIDTH 16 0
BBX 10 24 6 -4
BITMAP
3000
3000
3000
3000
3000
3000
3000
3000
3000
3000
3000
3000
FFC0
FFC0
F000
F000
F000
F000
F000
F000
F000
F000
F000
F000
ENDCHAR
STARTCHAR U+2520
ENCODING 9504
SWIDTH 1920 0
DWIDTH 16 0
BBX 10 24 6 -4
BITMAP
F000
F000
F000
F000
F000
F000
F000
F000
F000
F000
F000
F000
FFC0
FFC0
F000
F000
F000
F000
F000
F000
F000
F000
F000
F000
ENDCHAR
STARTCHAR U+2521
ENCODING 9505
SWIDTH 1920 0
DWIDTH 16 0
BBX 10 24 6 -4
BITMAP
F000
F000
F000
F000
F000
F000
F000
F000
F000
F000
FFC0
FFC0
FFC0
FFC0
3000
3000
3000
3000
3000
3000
3000
3000
3000
3000
ENDCHAR
STARTCHAR U+2522
ENCODING 9506
SWIDTH 1920 0
DWIDTH 16 0
BBX 10 24 6 -4
BITMAP
3000
3000
3000
3000
3000
3000
3000
3000
3000
3000
FFC0
FFC0
FFC0
FFC0
F000
F000
F000
F000
F000
F000
F000
F000
F000
F000
ENDCHAR
STARTCHAR U+2523
ENCODING 9507
SWIDTH 1920 0
DWIDTH 16 0
BBX 10 24 6 -4
BITMAP
F000
F000
F000
F000
F000
F000
F000
F000
F000
F000
FFC0
FFC0
FFC0
FFC0
F000
F000
F000
F000
F000
F000
F000
F000
F000
F000
ENDCHAR
STARTCHAR U+2524
ENCODING 9508
SWIDTH 1920 0
DWIDTH 16 0
BBX 10 24 0 -4
BITMAP
00C0
00C0
00C0
00C0
00C0
00C0
00C0
00C0
00C0
00C0
00C0
00C0
FFC0
FFC0
00C0
00C0
00C0
00C0
00C0
00C0
00C0
00C0
00C0
00C0
ENDCHAR
STARTCHAR U+2525
ENCODING 9509
SWIDTH 1920 0
DWIDTH 16 0
BBX 10 24 0 -4
BITMAP
00C0
00C0
00C0
00C0
00C0
00C0
00C0
00C0
00C0
00C0
FFC0
FFC0
FFC0
FFC0
00C0
00C0
00C0
00C0
00C0
00C0
00C0
00C0
00C0
00C0
ENDCHAR
STARTCHAR U+2526
ENCODING 9510
SWIDTH 1920 0
DWIDTH 16 0
BBX 10 24 0 -4
BITMAP
03C0
03C0
03C0
03C0
03C0
03C0
03C0
03C0
03C0
03C0
03C0
03C0
FFC0
FFC0
00C0
00C0
00C0
00C0
00C0
00C0
00C0
00C0
00C0
00C0
ENDCHAR
STARTCHAR U+2527
ENCODING 9511
SWIDTH 1920 0
DWIDTH 16 0
BBX 10 24 0 -4
BITMAP
00C0
00C0
00C0
00C0
00C0
00C0
00C0
00C0
00C0
00C0
00C0
00C0
FFC0
FFC0
03C0
03C0
03C0
03C0
03C0
03C0
03C0
03C0
03C0
03C0
ENDCHAR
STARTCHAR U+2528
ENCODING 9512
SWIDTH 1920 0
DWIDTH 16 0
BBX 10 24 0 -4
BITMAP
03C0
03C0
03C0
03C0
03C0
03C0
03C0
03C0
03C0
03C0
03C0
03C0
FFC0
FFC0
03C0
03C0
03C0
03C0
03C0
03C0
03C0
03C0
03C0
03C0
ENDCHAR
STARTCHAR U+2529
ENCODING 9513
SWIDTH 1920 0
DWIDTH 16 0
BBX 10 24 0 -4
BITMAP
03C0
03C0
03C0
03C0
03C0
03C0
03C0
03C0
03C0
03C0
FFC0
FFC0
FFC0
FFC0
00C0
00C0
00C0
00C0
00C0
00C0
00C0
00C0
00C0
00C0
ENDCHAR
STARTCHAR U+252A
ENCODING 9514
SWIDTH 1920 0
DWIDTH 16 0
BBX 10 24 0 -4
BITMAP
00C0
00C0
00C0
00C0
00C0
00C0
00C0
00C0
00C0
00C0
FFC0
FFC0
FFC0
FFC0
03C0
03C0
03C0
03C0
03C0
03C0
03C0
03C0
03C0
03C0
ENDCHAR
STARTCHAR U+252B
ENCODING 9515
SWIDTH 1920 0
DWIDTH 16 0
BBX 10 24 0 -4
BITMAP
03C0
03C0
03C0
03C0
03C0
03C0
03C0
03C0
03C0
03C0
FFC0
FFC0
FFC0
FFC0
03C0
03C0
03C0
03C0
03C0
03C0
03C0
03C0
03C0
03C0
ENDCHAR
STARTCHAR U+252C
ENCODING 9516
SWIDTH 1920 0
DWIDTH 16 0
BBX 16 12 0 -4
BITMAP
FFFF
FFFF
00C0
00C0
00C0
00C0
00C0
00C0
00C0
00C0
00C0
00C0
ENDCHAR
STARTCHAR U+252D
ENCODING 9517
SWIDTH 1920 0
DWIDTH 16 0
BBX 16 14 0 -4
BITMAP
FFC0
FFC0
FFFF
FFFF
00C0
00C0
00C0
00C0
00C0
00C0
00C0
00C0
00C0
00C0
ENDCHAR
STARTCHAR U+252E
ENCODING 9518
SWIDTH 1920 0
DWIDTH 16 0
BBX 16 14 0 -4
BITMAP
00FF
00FF
FFFF
FFFF
00C0
00C0
00C0
00C0
00C0
00C0
00C0
00C0
00C0
00C0
ENDCHAR
STARTCHAR U+252F
ENCODING 9519
SWIDTH 1920 0
DWIDTH 16 0
BBX 16 14 0 -4
BITMAP
FFFF
FFFF
FFFF
FFFF
00C0
00C0
00C0
00C0
00C0
00C0
00C0
00C0
00C0
00C0
ENDCHAR
STARTCHAR U+2530
ENCODING 9520
SWIDTH 1920 0
DWIDTH 16 0
BBX 16 12 0 -4
BITMAP
FFFF
FFFF
03C0
03C0
03C0
03C0
03C0
03C0
03C0
03C0
03C0
03C0
ENDCHAR
STARTCHAR U+2531
ENCODING 9521
SWIDTH 1920 0
DWIDTH 16 0
BBX 16 14 0 -4
BITMAP
FFC0
FFC0
FFFF
FFFF
03C0
03C0
03C0
03C0
03C0
03C0
03C0
03C0
03C0
03C0
ENDCHAR
STARTCHAR U+2532
ENCODING 9522
SWIDTH 1920 0
DWIDTH 16 0
BBX 16 14 0 -4
BITMAP
03FF
03FF
FFFF
FFFF
03C0
03C0
03C0
03C0
03C0
03C0
03C0
03C0
03C0
03C0
ENDCHAR
STARTCHAR U+2533
ENCODING 9523
SWIDTH 1920 0
DWIDTH 16 0
BBX 16 14 0 -4
BITMAP
FFFF
FFFF
FFFF
FFFF
03C0
03C0
03C0
03C0
03C0
03C0
03C0
03C0
03C0
03C0
ENDCHAR
STARTCHAR U+2534
ENCODING 9524
SWIDTH 1920 0
DWIDTH 16 0
BBX 16 14 0 6
BITMAP
00C0
00C0
00C0
00C0
00C0
00C0
00C0
00C0
00C0
00C0
00C0
00C0
FFFF
FFFF
ENDCHAR
STARTCHAR U+2535
ENCODING 9525
SWIDTH 1920 0
DWIDTH 16 0
BBX 16 14 0 6
BITMAP
00C0
00C0
00C0
00C0
00C0
00C0
00C0
00C0
00C0
00C0
FFC0
FFC0
FFFF
FFFF
ENDCHAR
STARTCHAR U+2536
ENCODING 9526
SWIDTH 1920 0
DWIDTH 16 0
BBX 16 14 0 6
BITMAP
00C0
00C0
00C0
00C0
00C0
00C0
00C0
00C0
00C0
00C0
00FF
00FF
FFFF
FFFF
ENDCHAR
STARTCHAR U+2537
ENCODING 9527
SWIDTH 1920 0
DWIDTH 16 0
BBX 16 14 0 6
BITMAP
00C0
00C0
00C0
00C0
00C0
00C0
00C0
00C0
00C0
00C0
FFFF
FFFF
FFFF
FFFF
ENDCHAR
STARTCHAR U+2538
ENCODING 9528
SWIDTH 1920 0
DWIDTH 16 0
BBX 16 14 0 6
BITMAP
03C0
03C0
03C0
03C0
03C0
03C0
03C0
03C0
03C0
03C0
03C0
03C0
FFFF
FFFF
ENDCHAR
STARTCHAR U+2539
ENCODING 9529
SWIDTH 1920 0
DWIDTH 16 0
BBX 16 14 0 6
BITMAP
03C0
03C0
03C0
03C0
03C0
03C0
03C0
03C0
03C0
03C0
FFC0
FFC0
FFFF
FFFF
ENDCHAR
STARTCHAR U+253A
ENCODING 9530
SWIDTH 1920 0
DWIDTH 16 0
BBX 16 14 0 6
BITMAP
03C0
03C0
03C0
03C0
03C0
03C0
03C0
03C0
03C0
03C0
03FF
03FF
FFFF
FFFF
ENDCHAR
STARTCHAR U+253B
ENCODING 9531
SWIDTH 1920 0
DWIDTH 16 0
BBX 16 14 0 6
BITMAP
03C0
03C0
03C0
03C0
03C0
03C0
03C0
03C0
03C0
03C0
FFFF
FFFF
FFFF
FFFF
ENDCHAR
STARTCHAR U+253C
ENCODING 9532
SWIDTH 1920 0
DWIDTH 16 0
BBX 16 24 0 -4
BITMAP
00C0
00C0
00C0
00C0
00C0
00C0
00C0
00C0
00C0
00C0
00C0
00C0
FFFF
FFFF
00C0
00C0
00C0
00C0
00C0
00C0
00C0
00C0
00C0
00C0
ENDCHAR
STARTCHAR U+253D
ENCODING 9533
SWIDTH 1920 0
DWIDTH 16 0
BBX 16 24 0 -4
BITMAP
00C0
00C0
00C0
00C0
00C0
00C0
00C0
00C0
00C0
00C0
FFC0
FFC0
FFFF
FFFF
00C0
00C0
00C0
00C0
00C0
00C0
00C0
00C0
00C0
00C0
ENDCHAR
STARTCHAR U+253E
ENCODING 9534
SWIDTH 1920 0
DWIDTH 16 0
BBX 16 24 0 -4
BITMAP
00C0
00C0
00C0
00C0
00C0
00C0
00C0
00C0
00C0
00C0
00FF
00FF
FFFF
FFFF
00C0
00C0
00C0
00C0
00C0
00C0
00C0
00C0
00C0
00C0
ENDCHAR
STARTCHAR U+253F
ENCODING 9535
SWIDTH 1920 0
DWIDTH 16 0
BBX 16 24 0 -4
BITMAP
00C0
00C0
00C0
00C0
00C0
00C0
00C0
00C0
00C0
00C0
FFFF
FFFF
FFFF
FFFF
00C0
00C0
00C0
00C0
00C0
00C0
00C0
00C0
00C0
00C0
ENDCHAR
STARTCHAR U+2540
ENCODING 9536
SWIDTH 1920 0
DWIDTH 16 0
BBX 16 24 0 -4
BITMAP
03C0
03C0
03C0
03C0
03C0
03C0
03C0
03C0
03C0
03C0
03C0
03C0
FFFF
FFFF
00C0
00C0
00C0
00C0
00C0
00C0
00C0
00C0
00C0
00C0
ENDCHAR
STARTCHAR U+2541
ENCODING 9537
SWIDTH 1920 0
DWIDTH 16 0
BBX 16 24 0 -4
BITMAP
00C0
00C0
00C0
00C0
00C0
00C0
00C0
00C0
00C0
00C0
00C0
00C0
FFFF
FFFF
03C0
03C0
03C0
03C0
03C0
03C0
03C0
03C0
03C0
03C0
ENDCHAR
STARTCHAR U+2542
ENCODING 9538
SWIDTH 1920 0
DWIDTH 16 0
BBX 16 24 0 -4
BITMAP
03C0
03C0
03C0
03C0
03C0
03C0
03C0
03C0
03C0
03C0
03C0
03C0
FFFF
FFFF
03C0
03C0
03C0
03C0
03C0
03C0
03C0
03C0
03C0
03C0
ENDCHAR
ENDFONT
